<svg width="60" height="61" viewBox="0 0 60 61" fill="none" xmlns="http://www.w3.org/2000/svg">
<rect y="0.5" width="60" height="60" rx="30" fill="#5DE85B" fill-opacity="0.3"/>
<path d="M30 28.5C31.1046 28.5 32 29.3954 32 30.5C32 31.6046 31.1046 32.5 30 32.5C28.8954 32.5 28 31.6046 28 30.5C28 29.3954 28.8954 28.5 30 28.5Z" fill="#5DE85B"/>
<path d="M22 28.5C23.1046 28.5 24 29.3954 24 30.5C24 31.6046 23.1046 32.5 22 32.5C20.8954 32.5 20 31.6046 20 30.5C20 29.3954 20.8954 28.5 22 28.5Z" fill="#5DE85B"/>
<path d="M38 28.5C39.1046 28.5 40 29.3954 40 30.5C40 31.6046 39.1046 32.5 38 32.5C36.8954 32.5 36 31.6046 36 30.5C36 29.3954 36.8954 28.5 38 28.5Z" fill="#5DE85B"/>
</svg>
