<svg width="25" height="24" viewBox="0 0 25 24" fill="none" xmlns="http://www.w3.org/2000/svg">
  <path d="M14.5 13.5C14.7761 13.5 15 13.2761 15 13C15 12.7239 14.7761 12.5 14.5 12.5V13.5ZM14.5 21.5C14.7761 21.5 15 21.2761 15 21C15 20.7239 14.7761 20.5 14.5 20.5V21.5ZM15.5 16.5C15.2239 16.5 15 16.7239 15 17C15 17.2761 15.2239 17.5 15.5 17.5V16.5ZM21.5 17.5C21.7761 17.5 22 17.2761 22 17C22 16.7239 21.7761 16.5 21.5 16.5V17.5ZM18 20C18 20.2761 18.2239 20.5 18.5 20.5C18.7761 20.5 19 20.2761 19 20H18ZM19 14C19 13.7239 18.7761 13.5 18.5 13.5C18.2239 13.5 18 13.7239 18 14H19ZM15 6C15 7.933 13.433 9.5 11.5 9.5V10.5C13.9853 10.5 16 8.48528 16 6H15ZM11.5 9.5C9.567 9.5 8 7.933 8 6H7C7 8.48528 9.01472 10.5 11.5 10.5V9.5ZM8 6C8 4.067 9.567 2.5 11.5 2.5V1.5C9.01472 1.5 7 3.51472 7 6H8ZM11.5 2.5C13.433 2.5 15 4.067 15 6H16C16 3.51472 13.9853 1.5 11.5 1.5V2.5ZM8.5 13.5H14.5V12.5H8.5V13.5ZM14.5 20.5H8.5V21.5H14.5V20.5ZM8.5 20.5C6.567 20.5 5 18.933 5 17H4C4 19.4853 6.01472 21.5 8.5 21.5V20.5ZM8.5 12.5C6.01472 12.5 4 14.5147 4 17H5C5 15.067 6.567 13.5 8.5 13.5V12.5ZM15.5 17.5H21.5V16.5H15.5V17.5ZM19 20V14H18V20H19Z" fill="#5DE85B" />
</svg>