<svg width="20" height="24" viewBox="0 0 20 24" fill="none" xmlns="http://www.w3.org/2000/svg">
<path d="M14.6192 0C14.6751 0 14.7309 0 14.7899 0C14.9269 1.69253 14.2809 2.95719 13.4958 3.87301C12.7254 4.78251 11.6704 5.6646 9.96421 5.53076C9.8504 3.86247 10.4975 2.69161 11.2816 1.77789C12.0087 0.92636 13.3419 0.168621 14.6192 0Z" fill="white"/>
<path d="M19.7841 17.6169C19.7841 17.6337 19.7841 17.6485 19.7841 17.6643C19.3046 19.1165 18.6206 20.3612 17.7859 21.5162C17.024 22.5648 16.0903 23.976 14.423 23.976C12.9824 23.976 12.0254 23.0496 10.549 23.0243C8.98711 22.999 8.12819 23.7989 6.70019 24.0002C6.53684 24.0002 6.37348 24.0002 6.21329 24.0002C5.16468 23.8485 4.31842 23.018 3.7019 22.2698C1.88396 20.0587 0.479136 17.2027 0.217773 13.5478C0.217773 13.1895 0.217773 12.8323 0.217773 12.4739C0.328431 9.85821 1.59941 7.73148 3.28878 6.70079C4.18036 6.15277 5.40602 5.6859 6.7708 5.89457C7.3557 5.9852 7.95325 6.18544 8.47703 6.38357C8.9734 6.57432 9.59414 6.91262 10.1822 6.8947C10.5806 6.88311 10.9768 6.67549 11.3784 6.529C12.5545 6.10429 13.7074 5.6174 15.2271 5.84609C17.0535 6.12221 18.3498 6.93369 19.1507 8.1857C17.6057 9.16897 16.3843 10.6507 16.593 13.1811C16.7784 15.4796 18.1148 16.8244 19.7841 17.6169Z" fill="white"/>
</svg>
