<svg width="22" height="22" viewBox="0 0 22 22" fill="none" xmlns="http://www.w3.org/2000/svg">
<path d="M17.7553 11.7501C18.1695 11.7501 18.5053 11.4143 18.5053 11.0001C18.5053 10.5858 18.1695 10.2501 17.7553 10.2501V11.7501ZM4.24414 10.2501C3.82993 10.2501 3.49414 10.5858 3.49414 11.0001C3.49414 11.4143 3.82993 11.7501 4.24414 11.7501V10.2501ZM7.09396 15.755C7.38816 16.0466 7.86303 16.0444 8.15461 15.7502C8.44619 15.456 8.44407 14.9812 8.14988 14.6896L7.09396 15.755ZM6.13319 13.7468L6.66115 13.2141L6.66115 13.2141L6.13319 13.7468ZM6.13319 8.25334L5.60523 7.72065L5.60523 7.72065L6.13319 8.25334ZM8.14988 7.31052C8.44408 7.01894 8.44619 6.54407 8.15461 6.24987C7.86303 5.95568 7.38816 5.95356 7.09396 6.24514L8.14988 7.31052ZM4.26094 11.2646L3.51696 11.3595L3.51696 11.3595L4.26094 11.2646ZM4.26094 10.7355L3.51696 10.6406L3.51696 10.6406L4.26094 10.7355ZM17.7553 10.2501H4.24414V11.7501H17.7553V10.2501ZM8.14988 14.6896L6.66115 13.2141L5.60523 14.2795L7.09396 15.755L8.14988 14.6896ZM6.66115 8.78603L8.14988 7.31052L7.09396 6.24514L5.60523 7.72065L6.66115 8.78603ZM6.66115 13.2141C6.055 12.6133 5.64622 12.2066 5.37089 11.8637C5.10508 11.5327 5.02595 11.3348 5.00492 11.1698L3.51696 11.3595C3.58732 11.9115 3.85071 12.3664 4.20136 12.803C4.5425 13.2278 5.02414 13.7035 5.60523 14.2795L6.66115 13.2141ZM5.60523 7.72065C5.02414 8.29657 4.5425 8.77233 4.20136 9.19712C3.85071 9.63375 3.58732 10.0886 3.51696 10.6406L5.00492 10.8303C5.02595 10.6653 5.10508 10.4674 5.37089 10.1364C5.64622 9.79354 6.055 9.38679 6.66115 8.78603L5.60523 7.72065ZM5.00492 11.1698C4.99055 11.0571 4.99055 10.943 5.00492 10.8303L3.51696 10.6406C3.48654 10.8793 3.48654 11.1208 3.51696 11.3595L5.00492 11.1698Z" fill="#5DE85B"/>
</svg>
