<svg width="30" height="30" viewBox="0 0 30 30" fill="none" xmlns="http://www.w3.org/2000/svg">
<path d="M9.77495 19.3293C9.52761 19.5767 9.52761 19.9777 9.77495 20.225C10.0223 20.4723 10.4233 20.4723 10.6706 20.225L9.77495 19.3293ZM20.2244 10.6712C20.4717 10.4239 20.4717 10.0229 20.2244 9.77552C19.9771 9.52819 19.5761 9.52819 19.3287 9.77552L20.2244 10.6712ZM14.3997 8.99292C14.05 8.99448 13.7677 9.27929 13.7692 9.62907C13.7708 9.97884 14.0556 10.2611 14.4054 10.2596L14.3997 8.99292ZM16.4986 9.61689L16.4958 8.98356L16.4986 9.61689ZM20.383 13.5013L19.7497 13.4985L19.7497 13.4985L20.383 13.5013ZM19.7404 15.5945C19.7388 15.9443 20.0211 16.2291 20.3709 16.2307C20.7206 16.2323 21.0055 15.95 21.007 15.6002L19.7404 15.5945ZM19.5776 10.0481L19.9652 9.54727L19.9652 9.54727L19.5776 10.0481ZM19.9518 10.4223L20.4527 10.0347L20.4527 10.0347L19.9518 10.4223ZM10.6706 20.225L20.2244 10.6712L19.3287 9.77552L9.77495 19.3293L10.6706 20.225ZM14.4054 10.2596L16.5014 10.2502L16.4958 8.98356L14.3997 8.99292L14.4054 10.2596ZM19.7497 13.4985L19.7404 15.5945L21.007 15.6002L21.0164 13.5042L19.7497 13.4985ZM16.5014 10.2502C17.3521 10.2464 17.9366 10.2448 18.3818 10.2934C18.8143 10.3406 19.0344 10.4286 19.19 10.549L19.9652 9.54727C19.5491 9.22523 19.0655 9.09386 18.5193 9.03422C17.9858 8.97596 17.3166 8.9799 16.4958 8.98356L16.5014 10.2502ZM21.0164 13.5042C21.02 12.6833 21.024 12.0141 20.9657 11.4806C20.9061 10.9344 20.7747 10.4508 20.4527 10.0347L19.4509 10.8099C19.5713 10.9655 19.6593 11.1857 19.7065 11.6181C19.7552 12.0634 19.7535 12.6478 19.7497 13.4985L21.0164 13.5042ZM19.19 10.549C19.2877 10.6246 19.3753 10.7123 19.4509 10.8099L20.4527 10.0347C20.3115 9.85225 20.1477 9.68848 19.9652 9.54727L19.19 10.549Z" fill="white"/>
</svg>
