<svg width="16" height="16" viewBox="0 0 16 16" fill="none" xmlns="http://www.w3.org/2000/svg">
<path d="M11.0675 7.15375C11.4281 6.71457 11.6566 6.18201 11.7263 5.61804C11.796 5.05408 11.7041 4.48192 11.4613 3.96815C11.2185 3.45438 10.8348 3.02014 10.3548 2.71596C9.87477 2.41179 9.31825 2.2502 8.75 2.25H4.5C4.30109 2.25 4.11032 2.32902 3.96967 2.46967C3.82902 2.61032 3.75 2.80109 3.75 3V12.5C3.75 12.6989 3.82902 12.8897 3.96967 13.0303C4.11032 13.171 4.30109 13.25 4.5 13.25H9.5C10.2208 13.2497 10.9211 13.0098 11.4907 12.5679C12.0602 12.1261 12.4667 11.5075 12.6462 10.8093C12.8257 10.1112 12.7681 9.37321 12.4823 8.71145C12.1965 8.04969 11.6988 7.50172 11.0675 7.15375ZM5.25 3.75H8.75C9.14782 3.75 9.52936 3.90804 9.81066 4.18934C10.092 4.47064 10.25 4.85218 10.25 5.25C10.25 5.64782 10.092 6.02936 9.81066 6.31066C9.52936 6.59196 9.14782 6.75 8.75 6.75H5.25V3.75ZM9.5 11.75H5.25V8.25H9.5C9.96413 8.25 10.4092 8.43437 10.7374 8.76256C11.0656 9.09075 11.25 9.53587 11.25 10C11.25 10.4641 11.0656 10.9092 10.7374 11.2374C10.4092 11.5656 9.96413 11.75 9.5 11.75Z" fill="#9F9F9F"/>
</svg>
