<svg width="60" height="61" viewBox="0 0 60 61" fill="none" xmlns="http://www.w3.org/2000/svg">
<rect y="0.5" width="60" height="60" rx="30" fill="#5DE85B"/>
<path d="M24.3094 26.1691C24.4141 26.1573 24.6399 26.1774 25.1768 26.4413C25.7068 26.7019 26.3846 27.1177 27.3693 27.7238C28.3536 28.3295 29.0309 28.7476 29.5087 29.1074C29.9865 29.4673 30.1379 29.679 30.1969 29.8204C30.3771 30.2517 30.3771 30.7482 30.1969 31.1794C30.1379 31.3209 29.9865 31.5326 29.5087 31.8924C29.0309 32.2522 28.3536 32.6703 27.3693 33.2761C26.3846 33.8821 25.7068 34.298 25.1768 34.5585C24.6399 34.8225 24.4141 34.8425 24.3094 34.8308C23.9208 34.7872 23.5471 34.5677 23.2941 34.1965C23.2087 34.0711 23.1084 33.8149 23.0537 33.1788C22.9996 32.5506 22.9987 31.7089 22.9987 30.4999C22.9987 29.2909 22.9996 28.4492 23.0537 27.821C23.1084 27.1849 23.2087 26.9287 23.2941 26.8034C23.5471 26.4322 23.9208 26.2126 24.3094 26.1691Z" fill="white"/>
<path fill-rule="evenodd" clip-rule="evenodd" d="M26.0434 18.8333H25.954C24.125 18.8332 22.6911 18.8332 21.5386 18.9274C20.3651 19.0233 19.3956 19.2218 18.5181 19.6689C17.0755 20.4039 15.9027 21.5767 15.1676 23.0193C14.7205 23.8968 14.5221 24.8663 14.4262 26.0398C14.332 27.1923 14.332 28.6262 14.332 30.4552V30.5447C14.332 32.3736 14.332 33.8075 14.4262 34.96C14.5221 36.1335 14.7205 37.103 15.1676 37.9805C15.9027 39.4231 17.0755 40.5959 18.5181 41.331C19.3956 41.7781 20.3651 41.9766 21.5386 42.0724C22.691 42.1666 24.1247 42.1666 25.9535 42.1666H26.0435C27.8722 42.1666 29.3064 42.1666 30.4588 42.0724C31.6323 41.9766 32.6018 41.7781 33.4793 41.331C34.9219 40.5959 36.0947 39.4231 36.8297 37.9805C36.8965 37.8496 36.9576 37.7166 37.0138 37.5811C38.5694 38.2608 39.8433 38.8124 40.8773 39.093C41.9772 39.3913 43.0486 39.4528 44.0063 38.8261C44.9641 38.1994 45.3368 37.193 45.5038 36.0657C45.6654 34.9741 45.6654 33.5342 45.6654 31.7668V29.233C45.6654 27.4656 45.6654 26.0257 45.5038 24.9341C45.3368 23.8068 44.9641 22.8005 44.0063 22.1737C43.0486 21.547 41.9772 21.6085 40.8773 21.9069C39.8433 22.1874 38.5694 22.7391 37.0138 23.4187C36.9576 23.2832 36.8965 23.1502 36.8297 23.0193C36.0947 21.5767 34.9219 20.4039 33.4793 19.6689C32.6018 19.2218 31.6323 19.0233 30.4588 18.9274C29.3063 18.8332 27.8724 18.8332 26.0434 18.8333ZM28.373 25.9931C27.4437 25.4211 26.6848 24.9541 26.0592 24.6465C25.4304 24.3374 24.7758 24.1043 24.0868 24.1815C23.0909 24.2931 22.2067 24.8476 21.6415 25.677C21.2578 26.2398 21.1235 26.923 21.061 27.6495C20.9987 28.3738 20.9987 29.3022 20.9987 30.452V30.5478C20.9987 31.6977 20.9987 32.626 21.061 33.3503C21.1235 34.0768 21.2578 34.76 21.6415 35.3229C22.2067 36.1522 23.0909 36.7068 24.0868 36.8183C24.7758 36.8955 25.4304 36.6624 26.0592 36.3533C26.6848 36.0458 27.4436 35.5788 28.373 35.0068L28.4611 34.9526C29.3913 34.3801 30.1499 33.9132 30.7118 33.4901C31.2823 33.0604 31.7769 32.5859 32.0424 31.9502C32.4286 31.0258 32.4286 29.9741 32.0424 29.0496C31.7769 28.4139 31.2823 27.9394 30.7118 27.5098C30.1499 27.0866 29.3913 26.6197 28.4611 26.0472L28.373 25.9931Z" fill="white"/>
</svg>
