<svg width="24" height="17" viewBox="0 0 24 17" fill="none" xmlns="http://www.w3.org/2000/svg">
<path d="M23.4375 2.47419C23.7911 2.04992 23.7338 1.41935 23.3095 1.06579C22.8852 0.712224 22.2546 0.769548 21.9011 1.19383L14.7135 9.81891C13.2697 11.5514 12.2541 12.7665 11.3731 13.5619C10.5128 14.3389 9.91898 14.5858 9.33596 14.5858C8.75295 14.5858 8.15917 14.3389 7.29878 13.5619C6.41785 12.7665 5.4022 11.5514 3.95841 9.8189L2.10418 7.59383C1.75062 7.16955 1.12006 7.11223 0.695778 7.46579C0.271501 7.81935 0.214177 8.44992 0.567741 8.87419L2.47343 11.161C3.85379 12.8175 4.95924 14.1441 5.95839 15.0463C6.99046 15.9783 8.04548 16.5858 9.33596 16.5858C10.6264 16.5858 11.6815 15.9783 12.7135 15.0463C13.7127 14.1441 14.8181 12.8175 16.1985 11.1611L23.4375 2.47419Z" fill="#F7F7F5"/>
</svg>
