<svg width="24" height="24" viewBox="0 0 24 24" fill="none" xmlns="http://www.w3.org/2000/svg">
<path d="M12.9191 12.0139C11.051 8.77822 11.3963 5.88864 11.6711 4.03518L11.6997 3.84384C11.7573 3.46073 11.8126 3.09193 11.8314 2.79169C11.8425 2.61355 11.8442 2.41785 11.8136 2.22975C11.7836 2.04484 11.7113 1.79764 11.5173 1.58859C11.0765 1.11367 10.4574 1.24552 10.1231 1.35231C9.72572 1.47922 9.22917 1.73129 8.62667 2.07914C3.48503 5.04767 1.72337 11.6223 4.6919 16.7639C7.66043 21.9056 14.235 23.6672 19.3767 20.6987C19.9792 20.3508 20.4457 20.0468 20.7543 19.7662C21.014 19.53 21.4377 19.0598 21.2468 18.4406C21.1628 18.1681 20.9848 17.9819 20.8397 17.8634C20.6921 17.7429 20.5218 17.6465 20.362 17.567C20.0926 17.4332 19.7455 17.2967 19.385 17.155L19.2049 17.0841C17.4624 16.3954 14.7873 15.2496 12.9191 12.0139Z" fill="#3366ff"/>
</svg>
