<svg width="25" height="24" viewBox="0 0 25 24" fill="none" xmlns="http://www.w3.org/2000/svg">
  <path d="M19.0172 12.7795L19.5124 12.8484L19.0172 12.7795ZM18.7549 14.6645L19.2501 14.7334V14.7334L18.7549 14.6645ZM6.24514 14.6645L6.74036 14.5956L6.24514 14.6645ZM5.9828 12.7795L5.48757 12.8484L5.9828 12.7795ZM9.68365 21.7368L9.48925 22.1975H9.48925L9.68365 21.7368ZM6.97508 18.5603L7.44441 18.3879L6.97508 18.5603ZM18.0249 18.5603L18.4942 18.7328L18.0249 18.5603ZM15.3164 21.7368L15.122 21.2762L15.3164 21.7368ZM5.99776 8.95271C5.97164 8.6778 5.72761 8.47612 5.45271 8.50224C5.1778 8.52836 4.97612 8.77239 5.00224 9.04729L5.99776 8.95271ZM19.9978 9.04729C20.0239 8.77239 19.8222 8.52836 19.5473 8.50224C19.2724 8.47612 19.0284 8.6778 19.0022 8.95271L19.9978 9.04729ZM20.5 7.5C20.7761 7.5 21 7.27614 21 7C21 6.72386 20.7761 6.5 20.5 6.5V7.5ZM4.5 6.5C4.22386 6.5 4 6.72386 4 7C4 7.27614 4.22386 7.5 4.5 7.5V6.5ZM10 18C10 18.2761 10.2239 18.5 10.5 18.5C10.7761 18.5 11 18.2761 11 18H10ZM11 10C11 9.72386 10.7761 9.5 10.5 9.5C10.2239 9.5 10 9.72386 10 10H11ZM14 18C14 18.2761 14.2239 18.5 14.5 18.5C14.7761 18.5 15 18.2761 15 18H14ZM15 10C15 9.72386 14.7761 9.5 14.5 9.5C14.2239 9.5 14 9.72386 14 10H15ZM16.5 7V7.5H17V7H16.5ZM8.5 7H8V7.5H8.5V7ZM18.522 12.7106L18.2596 14.5956L19.2501 14.7334L19.5124 12.8484L18.522 12.7106ZM6.74036 14.5956L6.47803 12.7106L5.48757 12.8484L5.74991 14.7334L6.74036 14.5956ZM12.5 21.5C10.9933 21.5 10.3861 21.4905 9.87804 21.2762L9.48925 22.1975C10.2285 22.5095 11.0831 22.5 12.5 22.5V21.5ZM5.74991 14.7334C6.03142 16.7562 6.18031 17.847 6.50576 18.7328L7.44441 18.3879C7.16531 17.6282 7.02909 16.6703 6.74036 14.5956L5.74991 14.7334ZM9.87804 21.2762C8.87434 20.8526 7.97675 19.8368 7.44441 18.3879L6.50576 18.7328C7.10391 20.3608 8.16051 21.6368 9.48925 22.1975L9.87804 21.2762ZM18.2596 14.5956C17.9709 16.6703 17.8347 17.6282 17.5556 18.3879L18.4942 18.7328C18.8197 17.847 18.9686 16.7562 19.2501 14.7334L18.2596 14.5956ZM12.5 22.5C13.9169 22.5 14.7715 22.5095 15.5107 22.1975L15.122 21.2762C14.6139 21.4905 14.0067 21.5 12.5 21.5V22.5ZM17.5556 18.3879C17.0232 19.8368 16.1257 20.8526 15.122 21.2762L15.5107 22.1975C16.8395 21.6368 17.8961 20.3608 18.4942 18.7328L17.5556 18.3879ZM6.47803 12.7106C6.2562 11.1166 6.08941 9.91735 5.99776 8.95271L5.00224 9.04729C5.09643 10.0386 5.26693 11.263 5.48757 12.8484L6.47803 12.7106ZM19.5124 12.8484C19.7331 11.263 19.9036 10.0386 19.9978 9.04729L19.0022 8.95271C18.9106 9.91735 18.7438 11.1166 18.522 12.7106L19.5124 12.8484ZM20.5 6.5H4.5V7.5H20.5V6.5ZM11 18V10H10V18H11ZM15 18V10H14V18H15ZM16 6V7H17V6H16ZM16.5 6.5H8.5V7.5H16.5V6.5ZM9 7V6H8V7H9ZM12.5 2.5C14.433 2.5 16 4.067 16 6H17C17 3.51472 14.9853 1.5 12.5 1.5V2.5ZM12.5 1.5C10.0147 1.5 8 3.51472 8 6H9C9 4.067 10.567 2.5 12.5 2.5V1.5Z" fill="#E21D1D" />
</svg>