<svg width="39" height="42" viewBox="0 0 39 42" fill="none" xmlns="http://www.w3.org/2000/svg">
<path d="M5.06435 29.1231L5.18167 28.3824L5.18167 28.3824L5.06435 29.1231ZM13.3769 37.4357L14.1176 37.3183L14.1176 37.3183L13.3769 37.4357ZM5.62215 39.0902L5.18131 39.6969L5.62215 39.0902ZM3.40983 36.8779L2.80307 37.3187L3.40983 36.8779ZM35.5902 36.8779L34.9834 36.437L35.5902 36.8779ZM33.3779 39.0902L32.937 38.4834L33.3779 39.0902ZM33.3779 2.90983L32.937 3.51659L33.3779 2.90983ZM35.5902 5.12215L34.9834 5.56299L35.5902 5.12215ZM5.62215 2.90983L6.06299 3.51659L5.62215 2.90983ZM3.40983 5.12215L4.01659 5.56299L3.40983 5.12215ZM1.55786 29L0.808297 29.0257L1.55786 29ZM13.5 40.9421L13.4743 41.6917L13.5 40.9421ZM21.5 20.25C21.0858 20.25 20.75 20.5858 20.75 21C20.75 21.4142 21.0858 21.75 21.5 21.75V20.25ZM27.5 21.75C27.9142 21.75 28.25 21.4142 28.25 21C28.25 20.5858 27.9142 20.25 27.5 20.25V21.75ZM11.5 12.25C11.0858 12.25 10.75 12.5858 10.75 13C10.75 13.4142 11.0858 13.75 11.5 13.75L11.5 12.25ZM27.5 13.75C27.9142 13.75 28.25 13.4142 28.25 13C28.25 12.5858 27.9142 12.25 27.5 12.25L27.5 13.75ZM4.94702 29.8639C8.90502 30.4908 12.0092 33.595 12.6361 37.553L14.1176 37.3183C13.3891 32.7185 9.78151 29.1109 5.18167 28.3824L4.94702 29.8639ZM36.75 19V23H38.25V19H36.75ZM2.25 23V19H0.75V23H2.25ZM6.06299 38.4834C5.27771 37.9129 4.58713 37.2223 4.01659 36.437L2.80307 37.3187C3.46612 38.2313 4.26869 39.0339 5.18131 39.6969L6.06299 38.4834ZM36.75 23C36.75 26.7664 36.749 29.531 36.5156 31.6847C36.2838 33.8243 35.83 35.2718 34.9834 36.437L36.1969 37.3187C37.2602 35.8552 37.7613 34.1135 38.0069 31.8463C38.251 29.593 38.25 26.733 38.25 23H36.75ZM19.5 41.75C23.233 41.75 26.093 41.751 28.3463 41.5069C30.6135 41.2613 32.3552 40.7602 33.8187 39.6969L32.937 38.4834C31.7718 39.33 30.3243 39.7838 28.1847 40.0156C26.031 40.249 23.2664 40.25 19.5 40.25V41.75ZM34.9834 36.437C34.4129 37.2223 33.7223 37.9129 32.937 38.4834L33.8187 39.6969C34.7313 39.0339 35.5339 38.2313 36.1969 37.3187L34.9834 36.437ZM19.5 1.75C23.2664 1.75 26.031 1.75103 28.1847 1.98437C30.3243 2.21618 31.7718 2.67005 32.937 3.51659L33.8187 2.30307C32.3552 1.23978 30.6135 0.738735 28.3463 0.493092C26.093 0.248971 23.233 0.25 19.5 0.25V1.75ZM38.25 19C38.25 15.267 38.251 12.407 38.0069 10.1537C37.7613 7.88648 37.2602 6.1448 36.1969 4.68131L34.9834 5.56299C35.83 6.72815 36.2838 8.17567 36.5156 10.3153C36.749 12.469 36.75 15.2336 36.75 19H38.25ZM32.937 3.51659C33.7223 4.08713 34.4129 4.77771 34.9834 5.56299L36.1969 4.68131C35.5339 3.76869 34.7313 2.96612 33.8187 2.30307L32.937 3.51659ZM19.5 0.25C15.767 0.25 12.907 0.248971 10.6537 0.493092C8.38647 0.738735 6.6448 1.23978 5.18131 2.30307L6.06299 3.51659C7.22815 2.67005 8.67567 2.21618 10.8153 1.98437C12.969 1.75103 15.7336 1.75 19.5 1.75V0.25ZM2.25 19C2.25 15.2336 2.25103 12.469 2.48437 10.3153C2.71618 8.17567 3.17005 6.72815 4.01659 5.56299L2.80307 4.68131C1.73978 6.1448 1.23873 7.88647 0.993092 10.1537C0.748971 12.407 0.75 15.267 0.75 19H2.25ZM5.18131 2.30307C4.26869 2.96612 3.46612 3.76869 2.80307 4.68131L4.01659 5.56299C4.58713 4.77771 5.27771 4.08713 6.06299 3.51659L5.18131 2.30307ZM0.75 23C0.75 25.3337 0.749906 27.3214 0.808297 29.0257L2.30742 28.9743C2.25009 27.3012 2.25 25.342 2.25 23H0.75ZM0.808297 29.0257C0.936353 32.7633 1.34398 35.3104 2.80307 37.3187L4.01659 36.437C2.84675 34.8269 2.43484 32.6934 2.30742 28.9743L0.808297 29.0257ZM1.55785 29.75C3.40487 29.75 4.25055 29.7536 4.94702 29.8639L5.18167 28.3824C4.33971 28.249 3.3499 28.25 1.55786 28.25L1.55785 29.75ZM19.5 40.25C17.158 40.25 15.1988 40.2499 13.5257 40.1926L13.4743 41.6917C15.1786 41.7501 17.1663 41.75 19.5 41.75V40.25ZM13.5257 40.1926C9.80657 40.0652 7.67314 39.6533 6.06299 38.4834L5.18131 39.6969C7.18957 41.156 9.73669 41.5636 13.4743 41.6917L13.5257 40.1926ZM14.25 40.9421C14.25 39.1501 14.251 38.1603 14.1176 37.3183L12.6361 37.553C12.7464 38.2495 12.75 39.0951 12.75 40.9421L14.25 40.9421ZM21.5 21.75H27.5V20.25H21.5V21.75ZM11.5 13.75L27.5 13.75L27.5 12.25L11.5 12.25L11.5 13.75Z" fill="#5DE85B"/>
</svg>
