<svg width="21" height="20" viewBox="0 0 21 20" fill="none" xmlns="http://www.w3.org/2000/svg">
<path d="M4.58866 17.5377L4.95602 17.032L4.58866 17.5377ZM3.66686 16.6159L4.17249 16.2485L3.66686 16.6159ZM17.0753 16.6159L16.5697 16.2485L17.0753 16.6159ZM16.1535 17.5377L15.7862 17.032L16.1535 17.5377ZM16.1535 2.46251L16.5209 1.95687L16.1535 2.46251ZM17.0753 3.38431L16.5697 3.75168L17.0753 3.38431ZM4.58866 2.46251L4.95602 2.96815L4.58866 2.46251ZM3.66686 3.38431L4.17249 3.75168L3.66686 3.38431ZM11.3262 5.49617L11.424 6.11348V6.11348L11.3262 5.49617ZM10.0226 5.49617L9.92482 6.11348V6.11348L10.0226 5.49617ZM7.03776 14.3751C6.69258 14.3751 6.41276 14.6549 6.41276 15.0001C6.41276 15.3453 6.69258 15.6251 7.03776 15.6251V14.3751ZM13.7044 15.6251C14.0496 15.6251 14.3294 15.3453 14.3294 15.0001C14.3294 14.6549 14.0496 14.3751 13.7044 14.3751V15.6251ZM7.03776 11.0417C6.69258 11.0417 6.41276 11.3216 6.41276 11.6667C6.41276 12.0119 6.69258 12.2917 7.03776 12.2917V11.0417ZM13.7044 12.2917C14.0496 12.2917 14.3294 12.0119 14.3294 11.6667C14.3294 11.3216 14.0496 11.0417 13.7044 11.0417V12.2917ZM7.03776 7.70841C6.69258 7.70841 6.41276 7.98824 6.41276 8.33341C6.41276 8.67859 6.69258 8.95841 7.03776 8.95841V7.70841ZM9.53776 8.95841C9.88294 8.95841 10.1628 8.67859 10.1628 8.33341C10.1628 7.98824 9.88294 7.70841 9.53776 7.70841V8.95841ZM17.2461 9.16675V10.8334H18.4961V9.16675H17.2461ZM3.49609 10.8334V9.16675H2.24609V10.8334H3.49609ZM10.3711 17.7084C8.79478 17.7084 7.66275 17.7076 6.78613 17.6126C5.9212 17.5189 5.37936 17.3396 4.95602 17.032L4.22129 18.0433C4.89323 18.5315 5.68021 18.7501 6.65149 18.8553C7.61107 18.9593 8.82263 18.9584 10.3711 18.9584V17.7084ZM2.24609 10.8334C2.24609 12.3819 2.24524 13.5934 2.3492 14.553C2.45443 15.5243 2.67303 16.3113 3.16122 16.9832L4.17249 16.2485C3.86492 15.8252 3.68564 15.2833 3.59193 14.4184C3.49695 13.5418 3.49609 12.4097 3.49609 10.8334H2.24609ZM4.95602 17.032C4.65535 16.8136 4.39094 16.5492 4.17249 16.2485L3.16122 16.9832C3.45677 17.39 3.8145 17.7477 4.22129 18.0433L4.95602 17.032ZM17.2461 10.8334C17.2461 12.4097 17.2452 13.5418 17.1503 14.4184C17.0566 15.2833 16.8773 15.8252 16.5697 16.2485L17.581 16.9832C18.0692 16.3113 18.2878 15.5243 18.393 14.553C18.497 13.5934 18.4961 12.3819 18.4961 10.8334H17.2461ZM10.3711 18.9584C11.9196 18.9584 13.1311 18.9593 14.0907 18.8553C15.062 18.7501 15.849 18.5315 16.5209 18.0433L15.7862 17.032C15.3628 17.3396 14.821 17.5189 13.9561 17.6126C13.0794 17.7076 11.9474 17.7084 10.3711 17.7084V18.9584ZM16.5697 16.2485C16.3512 16.5492 16.0868 16.8136 15.7862 17.032L16.5209 18.0433C16.9277 17.7477 17.2854 17.39 17.581 16.9832L16.5697 16.2485ZM18.4961 9.16675C18.4961 7.61828 18.497 6.40673 18.393 5.44714C18.2878 4.47586 18.0692 3.68888 17.581 3.01694L16.5697 3.75168C16.8773 4.17501 17.0566 4.71686 17.1503 5.58179C17.2452 6.45841 17.2461 7.59044 17.2461 9.16675H18.4961ZM15.7862 2.96815C16.0868 3.1866 16.3512 3.45101 16.5697 3.75168L17.581 3.01694C17.2854 2.61016 16.9277 2.25242 16.5209 1.95687L15.7862 2.96815ZM3.49609 9.16675C3.49609 7.59044 3.49695 6.45841 3.59193 5.58179C3.68564 4.71686 3.86492 4.17501 4.17249 3.75168L3.16122 3.01694C2.67303 3.68888 2.45443 4.47586 2.3492 5.44714C2.24524 6.40673 2.24609 7.61828 2.24609 9.16675H3.49609ZM4.22129 1.95687C3.8145 2.25242 3.45677 2.61016 3.16122 3.01694L4.17249 3.75168C4.39094 3.45101 4.65535 3.18659 4.95602 2.96815L4.22129 1.95687ZM11.2284 4.87887C10.8614 4.93701 10.4874 4.93701 10.1204 4.87887L9.92482 6.11348C10.4214 6.19214 10.9274 6.19214 11.424 6.11348L11.2284 4.87887ZM15.2964 1.76744C14.2629 2.80021 13.5097 3.5418 12.8591 4.05416C12.2178 4.5592 11.7263 4.80002 11.2284 4.87887L11.424 6.11348C12.2141 5.98833 12.9027 5.61093 13.6325 5.03619C14.353 4.46879 15.1618 3.66906 16.1799 2.65164L15.2964 1.76744ZM10.3711 2.29175C11.7559 2.29175 12.8002 2.29219 13.6335 2.35768C14.4648 2.423 15.0248 2.54977 15.4568 2.76761L16.0196 1.65148C15.3751 1.32652 14.6269 1.18189 13.7314 1.11152C12.838 1.04131 11.737 1.04175 10.3711 1.04175V2.29175ZM15.4568 2.76761C15.5737 2.82658 15.6827 2.893 15.7862 2.96815L16.5209 1.95687C16.3621 1.84147 16.1954 1.74016 16.0196 1.65148L15.4568 2.76761ZM4.98935 2.47219C6.06481 3.54761 6.90897 4.39043 7.65311 4.98601C8.40645 5.58896 9.11196 5.98473 9.92482 6.11348L10.1204 4.87887C9.60825 4.79776 9.10287 4.54529 8.43419 4.0101C7.7563 3.46754 6.96729 2.68232 5.87321 1.58829L4.98935 2.47219ZM10.3711 1.04175C9.17418 1.04175 8.1825 1.04153 7.35846 1.08818C6.53502 1.13481 5.8347 1.22988 5.22742 1.43942L5.63514 2.62106C6.08132 2.4671 6.64765 2.38043 7.42912 2.33618C8.20999 2.29197 9.16149 2.29175 10.3711 2.29175V1.04175ZM5.22742 1.43942C4.86025 1.56611 4.52767 1.73428 4.22129 1.95687L4.95602 2.96815C5.15316 2.82492 5.37346 2.71135 5.63514 2.62106L5.22742 1.43942ZM7.03776 15.6251H13.7044V14.3751H7.03776V15.6251ZM7.03776 12.2917H13.7044V11.0417H7.03776V12.2917ZM7.03776 8.95841H9.53776V7.70841H7.03776V8.95841Z" fill="#5DE85B"/>
</svg>
