<svg width="16" height="16" viewBox="0 0 16 16" fill="none" xmlns="http://www.w3.org/2000/svg">
  <path d="M2.58663 10.2962L2.67462 9.74059L2.67462 9.74059L2.58663 10.2962ZM5.70383 13.4134L6.25941 13.3254L6.25941 13.3254L5.70383 13.4134ZM2.79581 14.0338L2.46518 14.4889L2.79581 14.0338ZM1.96619 13.2042L2.42126 12.8736L1.96619 13.2042ZM14.0338 13.2042L13.5787 12.8736L14.0338 13.2042ZM13.2042 14.0338L12.8736 13.5787L13.2042 14.0338ZM13.2042 1.96619L12.8736 2.42126L13.2042 1.96619ZM14.0338 2.79581L13.5787 3.12643L14.0338 2.79581ZM2.79581 1.96619L3.12643 2.42126L2.79581 1.96619ZM1.96619 2.79581L2.42126 3.12643L1.96619 2.79581ZM1.2717 10.25L0.709526 10.2693L1.2717 10.25ZM5.75 14.7283L5.73074 15.2905L5.75 14.7283ZM5 7.4375C4.68934 7.4375 4.4375 7.68934 4.4375 8C4.4375 8.31066 4.68934 8.5625 5 8.5625V7.4375ZM11 8.5625C11.3107 8.5625 11.5625 8.31066 11.5625 8C11.5625 7.68934 11.3107 7.4375 11 7.4375V8.5625ZM6.5 4.4375C6.18934 4.4375 5.9375 4.68934 5.9375 5C5.9375 5.31066 6.18934 5.5625 6.5 5.5625V4.4375ZM9.5 5.5625C9.81066 5.5625 10.0625 5.31066 10.0625 5C10.0625 4.68934 9.81066 4.4375 9.5 4.4375V5.5625ZM2.49864 10.8517C3.86254 11.0678 4.93223 12.1375 5.14826 13.5014L6.25941 13.3254C5.96714 11.4801 4.51991 10.0329 2.67462 9.74059L2.49864 10.8517ZM3.12643 13.5787C2.85583 13.3821 2.61786 13.1442 2.42126 12.8736L1.51111 13.5348C1.77711 13.9009 2.09907 14.2229 2.46518 14.4889L3.12643 13.5787ZM14.1875 8C14.1875 9.41868 14.1867 10.4375 14.1012 11.2265C14.0169 12.0049 13.8556 12.4926 13.5787 12.8736L14.4889 13.5348C14.9283 12.9301 15.125 12.2218 15.2197 11.3476C15.3133 10.484 15.3125 9.39362 15.3125 8H14.1875ZM8 15.3125C9.39362 15.3125 10.484 15.3133 11.3476 15.2197C12.2218 15.125 12.9301 14.9283 13.5348 14.4889L12.8736 13.5787C12.4926 13.8556 12.0049 14.0169 11.2265 14.1012C10.4375 14.1867 9.41868 14.1875 8 14.1875V15.3125ZM13.5787 12.8736C13.3821 13.1442 13.1442 13.3821 12.8736 13.5787L13.5348 14.4889C13.9009 14.2229 14.2229 13.9009 14.4889 13.5348L13.5787 12.8736ZM8 1.8125C9.41868 1.8125 10.4375 1.81327 11.2265 1.89875C12.0049 1.98309 12.4926 2.14444 12.8736 2.42126L13.5348 1.51111C12.9301 1.07174 12.2218 0.875004 11.3476 0.780296C10.484 0.686728 9.39362 0.6875 8 0.6875V1.8125ZM15.3125 8C15.3125 6.60638 15.3133 5.51598 15.2197 4.65236C15.125 3.7782 14.9283 3.06992 14.4889 2.46518L13.5787 3.12643C13.8556 3.50744 14.0169 3.9951 14.1012 4.77353C14.1867 5.56249 14.1875 6.58132 14.1875 8H15.3125ZM12.8736 2.42126C13.1442 2.61786 13.3821 2.85583 13.5787 3.12643L14.4889 2.46518C14.2229 2.09907 13.9009 1.77711 13.5348 1.51111L12.8736 2.42126ZM8 0.6875C6.60638 0.6875 5.51598 0.686728 4.65236 0.780296C3.7782 0.875004 3.06992 1.07174 2.46518 1.51111L3.12643 2.42126C3.50744 2.14444 3.9951 1.98309 4.77353 1.89875C5.56249 1.81327 6.58132 1.8125 8 1.8125V0.6875ZM1.8125 8C1.8125 6.58132 1.81327 5.56249 1.89875 4.77353C1.98309 3.9951 2.14444 3.50744 2.42126 3.12643L1.51111 2.46518C1.07174 3.06992 0.875004 3.7782 0.780296 4.65236C0.686728 5.51598 0.6875 6.60638 0.6875 8H1.8125ZM2.46518 1.51111C2.09907 1.77711 1.77711 2.09907 1.51111 2.46518L2.42126 3.12643C2.61786 2.85583 2.85583 2.61786 3.12643 2.42126L2.46518 1.51111ZM0.6875 8C0.6875 8.87358 0.68743 9.62432 0.709526 10.2693L1.83387 10.2307C1.81257 9.60916 1.8125 8.87981 1.8125 8H0.6875ZM0.709526 10.2693C0.757666 11.6743 0.909722 12.7071 1.51111 13.5348L2.42126 12.8736C2.0368 12.3444 1.88153 11.6219 1.83387 10.2307L0.709526 10.2693ZM1.27169 10.8125C1.97463 10.8125 2.26474 10.8147 2.49864 10.8517L2.67462 9.74059C2.33161 9.68627 1.9334 9.6875 1.2717 9.6875L1.27169 10.8125ZM8 14.1875C7.12019 14.1875 6.39084 14.1874 5.76926 14.1661L5.73074 15.2905C6.37568 15.3126 7.12642 15.3125 8 15.3125V14.1875ZM5.76926 14.1661C4.37807 14.1185 3.6556 13.9632 3.12643 13.5787L2.46518 14.4889C3.29292 15.0903 4.32566 15.2423 5.73074 15.2905L5.76926 14.1661ZM6.3125 14.7283C6.31249 14.0666 6.31373 13.6684 6.25941 13.3254L5.14826 13.5014C5.1853 13.7353 5.18749 14.0254 5.1875 14.7283L6.3125 14.7283ZM5 8.5625H11V7.4375H5V8.5625ZM6.5 5.5625H9.5V4.4375H6.5V5.5625Z" fill="black" />
</svg>