<svg width="18" height="18" viewBox="0 0 18 18" fill="none" xmlns="http://www.w3.org/2000/svg">
<path fill-rule="evenodd" clip-rule="evenodd" d="M11 18H7C5.13872 18 4.20808 18 3.45492 17.7553C1.93273 17.2607 0.739307 16.0673 0.244717 14.5451C0 13.7919 0 10.8613 0 9V2.69388C0 1.77997 0 1.32301 0.144045 0.970485C0.287017 0.620586 0.526558 0.33827 0.823442 0.169768C1.12256 0 1.51027 0 2.28571 0C4.22431 0 5.19361 0 5.9414 0.424419C6.68361 0.845675 7.28246 1.55147 7.63989 2.42621L7.6493 2.44925C7.98854 3.27918 8.7036 3.99842 9.60017 4.00325C11.5442 4.01371 13.9702 4.05793 14.5451 4.24472C16.0673 4.73931 17.2607 5.93272 17.7553 7.45492C18 8.20808 18 9.13872 18 11C18 12.8613 18 13.7919 17.7553 14.5451C17.2607 16.0673 16.0673 17.2607 14.5451 17.7553C13.7919 18 12.8613 18 11 18ZM5 12.25C4.58579 12.25 4.25 12.5858 4.25 13C4.25 13.4142 4.58579 13.75 5 13.75H13C13.4142 13.75 13.75 13.4142 13.75 13C13.75 12.5858 13.4142 12.25 13 12.25H5Z" fill="black"/>
</svg>
