<svg width="43" height="46" viewBox="0 0 43 46" fill="none" xmlns="http://www.w3.org/2000/svg">
<path d="M8.14595 29.0133H3.27309C2.04385 29.0133 0.726562 28.3401 0.726562 25.9677C0.726562 24.7385 1.72311 23.7419 2.95235 23.7419H8.14586V29.0133H8.14595Z" fill="#4BC3EF"/>
<path d="M40.7902 0H10.3708C9.96106 0 9.62891 0.332152 9.62891 0.74193V42.2727H41.5322V0.74193L40.7902 0Z" fill="#7AD7EE"/>
<path d="M41.5334 0H40.7914V37.0968C40.7914 39.5553 38.7984 41.5483 36.3398 41.5483V43.0322H41.5334C41.9431 43.0322 42.2753 42.7 42.2753 42.2903V0.74193C42.2753 0.332152 41.9431 0 41.5334 0Z" fill="#4BC3EF"/>
<path d="M31.144 2.96777H7.40209C6.99231 2.96777 6.66016 3.29993 6.66016 3.7097V40.136L7.36902 41.5508L6.66016 43.0323V45.2581C6.66016 45.6679 6.99231 46.0001 7.40209 46.0001H8.14402L9.62275 45.3271H38.6296V11.0018L31.144 2.96777Z" fill="#ECEAEC"/>
<path d="M31.8859 43.0321H6.66016V29.6772H31.8859C32.7055 29.6772 33.3698 30.3416 33.3698 31.1611V41.5482C33.3698 42.3677 32.7054 43.0321 31.8859 43.0321Z" fill="#DBD8DB"/>
<path d="M30.404 28.1936H2.95235C1.72311 28.1936 0.726562 27.197 0.726562 25.9678V39.3226C0.726562 40.5518 1.72311 41.5484 2.95235 41.5484L4.56091 40.8003H31.1969V29.0524L30.404 28.1936Z" fill="#7AD7EE"/>
<path d="M38.8712 9.95265L32.3211 3.40259C32.0428 3.12435 31.6654 2.96802 31.2718 2.96802H31.1445V9.64547C31.1445 10.465 31.8089 11.1293 32.6284 11.1293H37.08C37.4897 11.1293 37.8219 11.4615 37.8219 11.8713V40.0648C37.8219 42.5233 35.8288 44.5163 33.3703 44.5163H9.62839C8.80884 44.5163 8.14453 45.1807 8.14453 46.0002H38.5639C38.9737 46.0002 39.3058 45.6681 39.3058 45.2583V11.0019C39.3058 10.6083 39.1494 10.2309 38.8712 9.95265Z" fill="#DBD8DB"/>
<path d="M30.4047 28.1936V37.0969C30.4047 38.7359 29.076 40.0646 27.437 40.0646H4.43698C3.61743 40.0646 2.95312 40.729 2.95312 41.5484H30.4047C31.2243 41.5484 31.8886 40.884 31.8886 40.0646V29.6776C31.8886 28.858 31.2242 28.1936 30.4047 28.1936Z" fill="#4BC3EF"/>
<path d="M8.08679 31.9695H6.86302C6.66591 31.9695 6.47688 32.0477 6.33771 32.1872C6.19854 32.3266 6.12109 32.5157 6.12109 32.7129L6.12981 37.0341C6.13125 37.4427 6.46313 37.7731 6.87174 37.7731H6.87461C6.87461 37.7731 7.78392 37.7699 8.1353 37.7637C9.54747 37.7387 10.5727 36.5221 10.5727 34.8713C10.5728 33.1356 9.57361 31.9695 8.08679 31.9695ZM8.10925 36.2797C7.98895 36.2819 7.80279 36.2837 7.61079 36.2851C7.60936 35.7968 7.60576 33.4533 7.60576 33.4533H8.08688C9.01649 33.4533 9.0889 34.5387 9.0889 34.8712C9.0889 35.564 8.78604 36.2678 8.10925 36.2797Z" fill="#222222"/>
<path d="M22.1093 35.9892C22.0753 36.0287 22.0398 36.066 22.0006 36.1012C21.8115 36.2696 21.5666 36.3551 21.2724 36.3551C20.4544 36.3551 19.7885 35.6897 19.7885 34.8713C19.7885 34.0529 20.4544 33.3874 21.2724 33.3874C21.5702 33.3874 21.8571 33.4748 22.102 33.6403C22.4433 33.87 22.9033 33.7801 23.1324 33.4407C23.3613 33.1013 23.2722 32.6401 22.9324 32.4107C22.4411 32.0789 21.8673 31.9036 21.2724 31.9036C19.6356 31.9036 18.3047 33.235 18.3047 34.8713C18.3047 36.5076 19.6357 37.839 21.2724 37.839C21.9318 37.839 22.5252 37.6213 22.9867 37.2101C23.0773 37.1297 23.1621 37.0424 23.2411 36.9486C23.5063 36.6363 23.4678 36.1678 23.1548 35.9031C22.8425 35.6374 22.3738 35.6766 22.1093 35.9892Z" fill="#222222"/>
<path d="M28.9398 36.6702L27.563 34.7131L28.7188 33.0725C28.955 32.7377 28.8745 32.2747 28.5398 32.0389C28.2036 31.802 27.7413 31.8824 27.5059 32.2182L26.6563 33.4242L25.8082 32.2186C25.572 31.8835 25.1097 31.802 24.7743 32.0385C24.4388 32.2744 24.3584 32.737 24.5938 33.0721L25.7483 34.7132L24.37 36.6698C24.1338 37.0046 24.2142 37.4675 24.5489 37.7034C24.6794 37.795 24.8279 37.8389 24.9757 37.8389C25.209 37.8389 25.4386 37.7294 25.5828 37.524L26.655 36.0021L27.7254 37.5237C27.8703 37.7291 28.0999 37.8389 28.3332 37.8389C28.4803 37.8389 28.6295 37.795 28.7593 37.7037C29.0948 37.4679 29.1753 37.0053 28.9398 36.6702Z" fill="#222222"/>
<path d="M14.4326 31.9036C12.7958 31.9036 11.4648 33.235 11.4648 34.8713C11.4648 36.5076 12.7959 37.839 14.4326 37.839C16.0692 37.839 17.4003 36.5076 17.4003 34.8713C17.4003 33.235 16.0693 31.9036 14.4326 31.9036ZM14.4326 36.3551C13.6145 36.3551 12.9487 35.6897 12.9487 34.8713C12.9487 34.0529 13.6145 33.3874 14.4326 33.3874C15.2506 33.3874 15.9164 34.0529 15.9164 34.8713C15.9164 35.6897 15.2506 36.3551 14.4326 36.3551Z" fill="#222222"/>
<path d="M4.09718 36.2891H4.0899C3.67976 36.2891 3.35156 36.6213 3.35156 37.031C3.35156 37.4407 3.68704 37.7729 4.09709 37.7729C4.50713 37.7729 4.83902 37.4407 4.83902 37.031C4.83902 36.6213 4.50731 36.2891 4.09718 36.2891Z" fill="#222222"/>
<path d="M30.4052 24.4839H28.1794C27.7693 24.4839 27.4375 24.1516 27.4375 23.7419C27.4375 23.3322 27.7694 23 28.1794 23H30.4052C30.8154 23 31.1471 23.3322 31.1471 23.7419C31.1471 24.1516 30.8153 24.4839 30.4052 24.4839Z" fill="#7AD7EE"/>
<path d="M25.2113 24.4839H15.5661C15.156 24.4839 14.8242 24.1516 14.8242 23.7419C14.8242 23.3322 15.1561 23 15.5661 23H25.2113C25.6215 23 25.9533 23.3322 25.9533 23.7419C25.9533 24.1516 25.6215 24.4839 25.2113 24.4839Z" fill="#4BC3EF"/>
<path d="M30.403 21.5161H21.4997C21.0896 21.5161 20.7578 21.1838 20.7578 20.7742C20.7578 20.3645 21.0897 20.0322 21.4997 20.0322H30.403C30.8131 20.0322 31.1449 20.3645 31.1449 20.7742C31.1449 21.1838 30.813 21.5161 30.403 21.5161Z" fill="#4BC3EF"/>
<path d="M18.5339 21.5161H15.5661C15.156 21.5161 14.8242 21.1838 14.8242 20.7742C14.8242 20.3645 15.1561 20.0322 15.5661 20.0322H18.5339C18.944 20.0322 19.2758 20.3645 19.2758 20.7742C19.2758 21.1838 18.9439 21.5161 18.5339 21.5161Z" fill="#7AD7EE"/>
<path d="M30.405 18.5486H27.4372C27.0271 18.5486 26.6953 18.2163 26.6953 17.8066C26.6953 17.3969 27.0272 17.0647 27.4372 17.0647H30.405C30.8151 17.0647 31.1469 17.3969 31.1469 17.8066C31.1469 18.2163 30.815 18.5486 30.405 18.5486Z" fill="#4BC3EF"/>
<path d="M24.468 18.5486H22.9841C22.574 18.5486 22.2422 18.2163 22.2422 17.8066C22.2422 17.3969 22.5741 17.0647 22.9841 17.0647H24.468C24.8781 17.0647 25.2099 17.3969 25.2099 17.8066C25.2099 18.2163 24.8781 18.5486 24.468 18.5486Z" fill="#7AD7EE"/>
<path d="M30.4032 15.5805H22.2419C21.8318 15.5805 21.5 15.2483 21.5 14.8386C21.5 14.4289 21.8319 14.0967 22.2419 14.0967H30.4032C30.8134 14.0967 31.1452 14.4289 31.1452 14.8386C31.1452 15.2483 30.8133 15.5805 30.4032 15.5805Z" fill="#4BC3EF"/>
<path d="M20.3614 17.5448L18.4225 12.4045C18.2899 12.0799 17.9776 11.8701 17.6262 11.8701C17.2755 11.8701 16.9632 12.0799 16.8242 12.4211L14.8729 17.5415C14.7273 17.9244 14.9193 18.353 15.3018 18.499C15.6837 18.6439 16.1133 18.4526 16.2597 18.0697L16.5634 17.2724L18.673 17.273L18.9731 18.0686C19.0854 18.3656 19.3673 18.549 19.6673 18.549C19.7542 18.549 19.8426 18.5335 19.9288 18.5009C20.3129 18.3564 20.5063 17.9285 20.3614 17.5448ZM17.1288 15.7887L17.6234 14.4905L18.1132 15.789L17.1288 15.7887Z" fill="#7AD7EE"/>
</svg>
