<svg width="25" height="24" viewBox="0 0 25 24" fill="none" xmlns="http://www.w3.org/2000/svg">
  <path d="M10.0312 19.0199L9.84923 18.5541L10.0312 19.0199ZM5.97478 19.7988L5.72478 20.2318H5.72478L5.97478 19.7988ZM4.62116 15.8964L4.12686 15.9717L4.62116 15.8964ZM5.11146 13.2941L5.54447 13.5441L5.11146 13.2941ZM4.52731 14.5314L4.03596 14.4388H4.03596L4.52731 14.5314ZM12.0397 17.2941L12.4727 17.5441L12.0397 17.2941ZM11.2602 18.4186L11.5861 18.7979L11.2602 18.4186ZM8.9099 6.71503L8.47689 6.46503L8.9099 6.71503ZM19.9099 20.7509C20.186 20.7509 20.4099 20.5271 20.4099 20.2509C20.4099 19.9748 20.186 19.7509 19.9099 19.7509V20.7509ZM13.9099 19.7509C13.6338 19.7509 13.4099 19.9748 13.4099 20.2509C13.4099 20.5271 13.6338 20.7509 13.9099 20.7509V19.7509ZM15.4051 10.465L11.6067 17.0441L12.4727 17.5441L16.2711 10.965L15.4051 10.465ZM5.54447 13.5441L9.34291 6.96503L8.47689 6.46503L4.67845 13.0441L5.54447 13.5441ZM9.84923 18.5541C8.76004 18.9797 7.99353 19.2778 7.39542 19.4176C6.81038 19.5543 6.48299 19.5149 6.22478 19.3658L5.72478 20.2318C6.29904 20.5634 6.92521 20.5544 7.62293 20.3913C8.30758 20.2314 9.15304 19.8997 10.2131 19.4856L9.84923 18.5541ZM4.12686 15.9717C4.29823 17.0968 4.43376 17.9948 4.63755 18.6677C4.84524 19.3535 5.15053 19.9003 5.72478 20.2318L6.22478 19.3658C5.96658 19.2167 5.76877 18.9529 5.59462 18.3779C5.41658 17.79 5.29153 16.9771 5.11546 15.8211L4.12686 15.9717ZM4.67845 13.0441C4.34811 13.6163 4.11843 14.0011 4.03596 14.4388L5.01867 14.624C5.06232 14.3922 5.18004 14.1753 5.54447 13.5441L4.67845 13.0441ZM5.11546 15.8211C5.00572 15.1005 4.97501 14.8557 5.01867 14.624L4.03596 14.4388C3.95349 14.8765 4.02739 15.3185 4.12686 15.9717L5.11546 15.8211ZM11.6067 17.0441C11.2422 17.6753 11.1132 17.8857 10.9344 18.0394L11.5861 18.7979C11.9239 18.5076 12.1423 18.1163 12.4727 17.5441L11.6067 17.0441ZM10.2131 19.4856C10.8285 19.2452 11.2482 19.0882 11.5861 18.7979L10.9344 18.0394C10.7555 18.1931 10.5281 18.2889 9.84923 18.5541L10.2131 19.4856ZM14.124 5.68394C14.9527 6.16241 15.5302 6.49704 15.9325 6.80745C16.3232 7.109 16.4874 7.34271 16.5549 7.59475L17.5209 7.33593C17.374 6.78777 17.0227 6.38568 16.5434 6.01577C16.0755 5.65473 15.4283 5.28225 14.624 4.81791L14.124 5.68394ZM16.2711 10.965C16.7355 10.1608 17.1098 9.51455 17.3344 8.96796C17.5646 8.40794 17.6677 7.88409 17.5209 7.33593L16.5549 7.59475C16.6225 7.84679 16.5971 8.13128 16.4095 8.58781C16.2163 9.05777 15.8836 9.63629 15.4051 10.465L16.2711 10.965ZM14.624 4.81791C13.8197 4.35358 13.1735 3.97925 12.6269 3.7546C12.0669 3.52444 11.5431 3.42129 10.9949 3.56816L11.2537 4.53409C11.5058 4.46655 11.7903 4.4919 12.2468 4.67953C12.7167 4.87268 13.2953 5.20547 14.124 5.68394L14.624 4.81791ZM9.34291 6.96503C9.82138 6.13629 10.156 5.55883 10.4664 5.15658C10.768 4.76582 11.0017 4.60162 11.2537 4.53409L10.9949 3.56816C10.4467 3.71504 10.0447 4.0663 9.67475 4.54564C9.31371 5.01349 8.94122 5.66077 8.47689 6.46503L9.34291 6.96503ZM16.0881 10.282L9.1599 6.28202L8.6599 7.14804L15.5881 11.148L16.0881 10.282ZM19.9099 19.7509H13.9099V20.7509H19.9099V19.7509Z" fill="#007AFF" />
</svg>