<svg width="46" height="46" viewBox="0 0 46 46" fill="none" xmlns="http://www.w3.org/2000/svg">
<g clip-path="url(#clip0_364_31420)">
<path d="M9.64595 29.0133H4.77309C3.54385 29.0133 2.22656 28.3401 2.22656 25.9677C2.22656 24.7385 3.22311 23.7419 4.45235 23.7419H9.64586V29.0133H9.64595Z" fill="#FF5F7A"/>
<path d="M42.2902 0H11.8708C11.4611 0 11.1289 0.332152 11.1289 0.74193V42.2727H43.0322V0.74193L42.2902 0Z" fill="#FF7E92"/>
<path d="M43.0334 0H42.2914V37.0968C42.2914 39.5553 40.2984 41.5483 37.8398 41.5483V43.0322H43.0334C43.4431 43.0322 43.7753 42.7 43.7753 42.2903V0.74193C43.7753 0.332152 43.4431 0 43.0334 0Z" fill="#FF5F7A"/>
<path d="M32.644 2.96777H8.90209C8.49231 2.96777 8.16016 3.29993 8.16016 3.7097V40.136L8.86902 41.5508L8.16016 43.0323V45.2581C8.16016 45.6679 8.49231 46.0001 8.90209 46.0001H9.64402L11.1228 45.3271H40.1296V11.0018L32.644 2.96777Z" fill="#ECEAEC"/>
<path d="M33.3859 43.0323H8.16016V29.6775H33.3859C34.2055 29.6775 34.8698 30.3419 34.8698 31.1613V41.5485C34.8698 42.3679 34.2054 43.0323 33.3859 43.0323Z" fill="#DBD8DB"/>
<path d="M31.904 28.1936H4.45235C3.22311 28.1936 2.22656 27.197 2.22656 25.9678V39.3226C2.22656 40.5518 3.22311 41.5484 4.45235 41.5484L6.06091 40.8003H32.6969V29.0524L31.904 28.1936Z" fill="#FF7E92"/>
<path d="M40.3712 9.95265L33.8211 3.40259C33.5428 3.12435 33.1654 2.96802 32.7718 2.96802H32.6445V9.64547C32.6445 10.465 33.3089 11.1293 34.1284 11.1293H38.58C38.9897 11.1293 39.3219 11.4615 39.3219 11.8713V40.0648C39.3219 42.5233 37.3288 44.5163 34.8703 44.5163H11.1284C10.3088 44.5163 9.64453 45.1807 9.64453 46.0002H40.0639C40.4737 46.0002 40.8058 45.6681 40.8058 45.2583V11.0019C40.8058 10.6083 40.6494 10.2309 40.3712 9.95265Z" fill="#DBD8DB"/>
<path d="M31.9047 28.1934V37.0966C31.9047 38.7356 30.576 40.0643 28.937 40.0643H5.93698C5.11743 40.0643 4.45312 40.7287 4.45312 41.5482H31.9047C32.7243 41.5482 33.3886 40.8838 33.3886 40.0643V29.6773C33.3886 28.8578 32.7242 28.1934 31.9047 28.1934Z" fill="#FF5F7A"/>
<path d="M13.9933 32.6721C14.4035 32.6721 14.7353 32.3402 14.7353 31.9302C14.7353 31.5201 14.4034 31.1882 13.9933 31.1882H11.5154C11.1052 31.1882 10.7734 31.5201 10.7734 31.9302V37.8121C10.7734 38.2222 11.1053 38.554 11.5154 38.554H13.9933C14.4035 38.554 14.7353 38.2221 14.7353 37.8121C14.7353 37.402 14.4034 37.0701 13.9933 37.0701H12.2573V35.613H13.8107C14.2208 35.613 14.5526 35.2812 14.5526 34.8711C14.5526 34.4611 14.2207 34.1292 13.8107 34.1292H12.2573V32.6721H13.9933Z" fill="#222222"/>
<path d="M26.6418 37.0701H24.9057V35.613H26.4591C26.8693 35.613 27.2011 35.2812 27.2011 34.8711C27.2011 34.4611 26.8692 34.1292 26.4591 34.1292H24.9057V32.6721H26.6418C27.0519 32.6721 27.3837 32.3402 27.3837 31.9302C27.3837 31.5201 27.0518 31.1882 26.6418 31.1882H24.1638C23.7537 31.1882 23.4219 31.5201 23.4219 31.9302V37.8121C23.4219 38.2222 23.7538 38.554 24.1638 38.554H26.6418C27.0519 38.554 27.3837 38.2221 27.3837 37.8121C27.3837 37.402 27.0518 37.0701 26.6418 37.0701Z" fill="#222222"/>
<path d="M19.9862 34.661L21.6275 32.3311C21.8637 31.9956 21.7833 31.5334 21.4486 31.2972C21.1124 31.0617 20.6501 31.1414 20.4147 31.4761L19.0792 33.3717L17.7461 31.4768C17.5099 31.1414 17.0477 31.0602 16.7122 31.2964C16.3767 31.5326 16.2963 31.9956 16.5318 32.3304L18.1712 34.6607L16.2332 37.4116C15.997 37.747 16.0774 38.2093 16.4122 38.4455C16.5427 38.5368 16.6912 38.581 16.839 38.581C17.0723 38.581 17.3019 38.4715 17.4461 38.2665L19.0781 35.9499L20.7074 38.2658C20.8523 38.4715 21.0819 38.581 21.3152 38.581C21.4623 38.581 21.6116 38.5375 21.7413 38.4462C22.0768 38.21 22.1572 37.747 21.9217 37.4123L19.9862 34.661Z" fill="#222222"/>
<path d="M8.5503 37.0969H8.54302C8.13289 37.0969 7.80469 37.4288 7.80469 37.8389C7.80469 38.2489 8.14016 38.5808 8.55021 38.5808C8.96035 38.5808 9.29214 38.2489 9.29214 37.8389C9.29214 37.4288 8.96044 37.0969 8.5503 37.0969Z" fill="#222222"/>
<path d="M27.5282 17.4667C27.303 17.3631 27.1309 17.1485 27.1004 16.8744L27.0319 16.2581C26.9939 15.9156 26.7265 15.635 26.3836 15.6012C26.2467 15.5877 26.1078 15.5806 25.9673 15.5806C25.8268 15.5806 25.6879 15.5877 25.551 15.6012C25.2081 15.635 24.9409 15.9157 24.9028 16.2581L24.8342 16.8744C24.779 17.3717 24.2574 17.6728 23.7991 17.472L23.231 17.2232C22.9154 17.0849 22.5388 17.1761 22.338 17.4561C22.2578 17.5679 22.1823 17.6845 22.1119 17.8064C22.0417 17.928 21.9785 18.0518 21.9217 18.1771C21.7795 18.4909 21.8889 18.8628 22.1664 19.067L22.6659 19.4344C23.069 19.7309 23.069 20.3332 22.6659 20.6297L22.1664 20.9972C21.8889 21.2013 21.7795 21.5731 21.9217 21.8871C21.9784 22.0124 22.0416 22.1361 22.1119 22.2578C22.1821 22.3794 22.2576 22.496 22.3377 22.6078C22.5384 22.888 22.9152 22.9793 23.2309 22.841L23.7989 22.5922C24.0416 22.4859 24.3021 22.5203 24.5017 22.65L27.1925 22.5292L28.8463 20.3193L27.5282 17.4667ZM25.9746 20.7742C25.5645 20.7742 25.2291 20.4423 25.2291 20.0322C25.2291 19.6221 25.5573 19.2903 25.9674 19.2903H25.9747C26.3848 19.2903 26.7166 19.6221 26.7166 20.0322C26.7165 20.4423 26.3846 20.7742 25.9746 20.7742Z" fill="#B8B2B8"/>
<path d="M20.0349 17.0644C19.6248 17.0644 19.293 16.7325 19.293 16.3225V14.8386C19.293 14.4289 19.6249 14.0967 20.0349 14.0967C20.4449 14.0967 20.7768 14.4289 20.7768 14.8386V16.3225C20.7768 16.7326 20.4449 17.0644 20.0349 17.0644Z" fill="#B0A8AF"/>
<path d="M21.3172 13.3549C21.0607 13.3549 20.8114 13.2219 20.6738 12.9839C20.4688 12.6292 20.5905 12.1753 20.9455 11.9707L22.2301 11.2287C22.5836 11.0226 23.0379 11.1443 23.2437 11.5001C23.4487 11.8548 23.327 12.3087 22.972 12.5133L21.6874 13.2553C21.5708 13.323 21.4432 13.3549 21.3172 13.3549Z" fill="#B0A8AF"/>
<path d="M22.6042 15.5807C22.4782 15.5807 22.3506 15.5488 22.234 15.4814L20.9494 14.7391C20.5944 14.5344 20.4727 14.0804 20.6777 13.7258C20.8827 13.3708 21.3364 13.2488 21.6913 13.4545L22.9759 14.1964C23.331 14.4011 23.4526 14.8547 23.2476 15.2097C23.11 15.4481 22.8607 15.5807 22.6042 15.5807Z" fill="#B0A8AF"/>
<path d="M29.2707 20.6298C28.8676 20.3334 28.8676 19.7311 29.2707 19.4346L29.7702 19.0671C30.0403 18.8684 30.1441 18.4578 30.0039 18.1531C29.95 18.0361 29.8904 17.9203 29.8246 17.8064C29.7589 17.6925 29.6885 17.5831 29.614 17.478C29.4202 17.2042 29.0128 17.0887 28.7055 17.2232L28.1375 17.4721C27.9313 17.5625 27.7138 17.5519 27.5301 17.4668L27.5245 17.4762C27.3193 17.8281 27.3772 18.2612 27.6478 18.5658C28.0258 18.9912 28.243 19.5612 28.2008 20.1861C28.1338 21.1774 27.3948 22.0073 26.4225 22.2116C26.103 22.2788 25.7973 22.27 25.5122 22.2053C25.1237 22.1172 24.7218 22.277 24.5211 22.621L24.5039 22.6502C24.681 22.7654 24.8104 22.9561 24.8364 23.1899L24.9049 23.8063C24.9419 24.1395 25.2456 24.4346 25.5794 24.4656C25.7078 24.4776 25.8378 24.4838 25.9694 24.4838C26.1011 24.4838 26.2311 24.4775 26.3594 24.4656C26.6933 24.4346 26.997 24.1396 27.034 23.8063L27.1025 23.1899C27.1577 22.6927 27.6793 22.3914 28.1376 22.5923L28.7056 22.8412C29.013 22.9758 29.4205 22.8603 29.6142 22.5863C29.6886 22.4811 29.759 22.3717 29.8246 22.258C29.8904 22.1441 29.9499 22.0285 30.0038 21.9115C30.1441 21.6067 30.0404 21.196 29.7702 20.9973L29.2707 20.6298Z" fill="#B0A8AF"/>
<path d="M20.7767 11.2656V10.3869C20.7767 9.97726 20.4448 9.64502 20.0348 9.64502C19.6248 9.64502 19.2929 9.97726 19.2929 10.3869V11.2656C19.0353 11.3574 18.8022 11.4946 18.5982 11.6688L17.8359 11.2285C17.4808 11.0224 17.028 11.1441 16.8223 11.4998C16.6172 11.8545 16.739 12.3084 17.0939 12.5131L17.85 12.9497C17.8256 13.0815 17.809 13.2159 17.809 13.3547C17.809 13.4933 17.8255 13.6279 17.85 13.7596L17.0939 14.1962C16.7389 14.4009 16.6172 14.8545 16.8223 15.2095C16.9599 15.4478 17.2091 15.5805 17.4656 15.5805C17.5917 15.5805 17.7193 15.5486 17.8359 15.4812L18.5983 15.0406C18.9871 15.3725 19.4848 15.5805 20.0348 15.5805C21.2622 15.5805 22.2606 14.582 22.2606 13.3547C22.2606 12.3888 21.6385 11.5728 20.7767 11.2656ZM20.0348 14.0966C19.6255 14.0966 19.2929 13.7636 19.2929 13.3547C19.2929 12.9457 19.6255 12.6127 20.0348 12.6127C20.4441 12.6127 20.7767 12.9457 20.7767 13.3547C20.7767 13.7637 20.4441 14.0966 20.0348 14.0966Z" fill="#B8B2B8"/>
</g>
<defs>
<clipPath id="clip0_364_31420">
<rect width="46" height="46" fill="white"/>
</clipPath>
</defs>
</svg>
