<svg width="18" height="18" viewBox="0 0 18 18" fill="none" xmlns="http://www.w3.org/2000/svg">
<path d="M6.5 10.0417C6.15482 10.0417 5.875 10.3215 5.875 10.6667C5.875 11.0118 6.15482 11.2917 6.5 11.2917V10.0417ZM11.5 11.2917C11.8452 11.2917 12.125 11.0118 12.125 10.6667C12.125 10.3215 11.8452 10.0417 11.5 10.0417V11.2917ZM8.375 13.1667C8.375 13.5118 8.65482 13.7917 9 13.7917C9.34518 13.7917 9.625 13.5118 9.625 13.1667H8.375ZM9.625 8.16667C9.625 7.82149 9.34518 7.54167 9 7.54167C8.65482 7.54167 8.375 7.82149 8.375 8.16667H9.625ZM4.3791 16.2961L4.18596 16.8905L4.18596 16.8905L4.3791 16.2961ZM1.70393 13.6209L2.29834 13.4278L2.29834 13.4278L1.70393 13.6209ZM16.2961 13.6209L16.8905 13.814H16.8905L16.2961 13.6209ZM13.6209 16.2961L13.814 16.8905L13.814 16.8905L13.6209 16.2961ZM9.50014 4.83604L9.49677 5.46103L9.50014 4.83604ZM13.6209 5.03726L13.814 4.44285L13.6209 5.03726ZM16.2961 7.71243L16.8905 7.51929L16.8905 7.51929L16.2961 7.71243ZM6.45116 1.85368L6.14266 2.39724L6.45116 1.85368ZM7.86657 3.52184L7.28801 3.75825L7.28803 3.75831L7.86657 3.52184ZM2.1862 1.64147L1.8777 1.09792L1.8777 1.09792L2.1862 1.64147ZM1.62004 2.30874L1.04147 2.07233L1.62004 2.30874ZM7.87442 3.54104L7.29588 3.77751L7.29589 3.77752L7.87442 3.54104ZM6.5 11.2917H11.5V10.0417H6.5V11.2917ZM9.625 13.1667V8.16667H8.375V13.1667H9.625ZM10.6667 15.875H7.33333V17.125H10.6667V15.875ZM7.33333 15.875C5.73362 15.875 5.08199 15.8673 4.57223 15.7017L4.18596 16.8905C4.93147 17.1327 5.83091 17.125 7.33333 17.125V15.875ZM0.875 9C0.875 9.77373 0.874954 10.7813 0.900752 11.6748C0.913643 12.1213 0.933173 12.5467 0.963226 12.9045C0.991676 13.2433 1.03356 13.5803 1.10952 13.814L2.29834 13.4278C2.27233 13.3477 2.23775 13.1441 2.20884 12.7999C2.18154 12.4748 2.16283 12.0751 2.15023 11.6387C2.12505 10.7664 2.125 9.77734 2.125 9H0.875ZM4.57223 15.7017C3.49401 15.3513 2.64868 14.506 2.29834 13.4278L1.10952 13.814C1.5835 15.2728 2.7272 16.4165 4.18596 16.8905L4.57223 15.7017ZM15.875 10.6667C15.875 12.2664 15.8673 12.918 15.7017 13.4278L16.8905 13.814C17.1327 13.0685 17.125 12.1691 17.125 10.6667H15.875ZM10.6667 17.125C12.1691 17.125 13.0685 17.1327 13.814 16.8905L13.4278 15.7017C12.918 15.8673 12.2664 15.875 10.6667 15.875V17.125ZM15.7017 13.4278C15.3513 14.506 14.506 15.3513 13.4278 15.7017L13.814 16.8905C15.2728 16.4165 16.4165 15.2728 16.8905 13.814L15.7017 13.4278ZM9.49677 5.46103C10.305 5.46538 11.207 5.47674 11.9642 5.50608C12.3433 5.52078 12.6795 5.53974 12.9466 5.56385C13.234 5.5898 13.3837 5.61737 13.4278 5.63167L13.814 4.44285C13.6186 4.37934 13.336 4.34392 13.059 4.31891C12.7615 4.29206 12.4013 4.27209 12.0126 4.25702C11.2341 4.22685 10.3153 4.21542 9.5035 4.21105L9.49677 5.46103ZM17.125 10.6667C17.125 9.16424 17.1327 8.26481 16.8905 7.51929L15.7017 7.90556C15.8673 8.41532 15.875 9.06695 15.875 10.6667H17.125ZM13.4278 5.63167C14.506 5.98201 15.3513 6.82735 15.7017 7.90556L16.8905 7.51929C16.4165 6.06053 15.2728 4.91684 13.814 4.44285L13.4278 5.63167ZM2.125 9V3.7449H0.875V9H2.125ZM3.40476 2.125C4.22405 2.125 4.79637 2.12561 5.24298 2.1666C5.67953 2.20666 5.9388 2.28153 6.14266 2.39724L6.75967 1.31013C6.34038 1.07215 5.88419 0.970185 5.35721 0.921825C4.84028 0.874389 4.20097 0.875 3.40476 0.875V2.125ZM6.14266 2.39724C6.62608 2.67161 7.03715 3.14432 7.28801 3.75825L8.44514 3.28544C8.10028 2.44146 7.51326 1.73785 6.75967 1.31013L6.14266 2.39724ZM3.40476 0.875C3.0932 0.875 2.81738 0.874389 2.58952 0.895299C2.35159 0.917133 2.11004 0.966048 1.8777 1.09792L2.49471 2.18503C2.51162 2.17542 2.55625 2.1536 2.70374 2.14007C2.86129 2.12561 3.07013 2.125 3.40476 2.125V0.875ZM2.125 3.7449C2.125 3.35577 2.12532 3.09431 2.13865 2.89259C2.15167 2.69542 2.17504 2.60281 2.1986 2.54514L1.04147 2.07233C0.944998 2.30844 0.908348 2.55311 0.891364 2.81018C0.874682 3.0627 0.875 3.37243 0.875 3.7449H2.125ZM1.8777 1.09792C1.49521 1.31501 1.20762 1.66573 1.04147 2.07233L2.1986 2.54514C2.27075 2.36858 2.38239 2.24877 2.49471 2.18503L1.8777 1.09792ZM8.45296 3.30458L8.44511 3.28538L7.28803 3.75831L7.29588 3.77751L8.45296 3.30458ZM9.5035 4.21105C9.11156 4.20894 8.68599 3.87468 8.45295 3.30456L7.29589 3.77752C7.62824 4.59062 8.39443 5.45509 9.49677 5.46103L9.5035 4.21105Z" fill="#E88F1B"/>
</svg>
