<svg width="16" height="13" viewBox="0 0 16 13" fill="none" xmlns="http://www.w3.org/2000/svg">
<path d="M6.32 1.31261C5.19094 0.773552 3.61281 0.509489 1.5 0.500114C1.30074 0.497407 1.10539 0.555511 0.940002 0.666677C0.804248 0.758436 0.693122 0.882148 0.616398 1.02693C0.539674 1.17171 0.499704 1.33313 0.500002 1.49699V10.4376C0.500002 11.042 0.930002 11.4979 1.5 11.4979C3.72094 11.4979 5.94875 11.7054 7.28313 12.9667C7.30138 12.984 7.32432 12.9956 7.34911 13C7.37389 13.0044 7.39942 13.0014 7.42253 12.9914C7.44563 12.9814 7.46529 12.9649 7.47907 12.9438C7.49284 12.9228 7.50012 12.8981 7.5 12.8729V2.33824C7.50004 2.26717 7.48482 2.19691 7.45539 2.13222C7.42595 2.06753 7.38298 2.00991 7.32938 1.96324C7.02372 1.70194 6.6842 1.48309 6.32 1.31261ZM15.06 0.665739C14.8945 0.55485 14.6992 0.497071 14.5 0.500114C12.3872 0.509489 10.8091 0.772302 9.68 1.31261C9.31582 1.48277 8.97621 1.7012 8.67031 1.96199C8.61681 2.00872 8.57393 2.06637 8.54456 2.13105C8.51518 2.19573 8.49999 2.26595 8.5 2.33699V12.8723C8.49999 12.8965 8.50711 12.9201 8.52049 12.9403C8.53387 12.9605 8.5529 12.9762 8.57519 12.9856C8.59749 12.995 8.62206 12.9975 8.64582 12.993C8.66958 12.9885 8.69147 12.977 8.70875 12.9601C9.51094 12.1632 10.9188 11.497 14.5013 11.4973C14.7665 11.4973 15.0208 11.3919 15.2084 11.2044C15.3959 11.0169 15.5013 10.7625 15.5013 10.4973V1.4973C15.5016 1.33312 15.4616 1.17138 15.3846 1.02635C15.3076 0.881324 15.1962 0.757475 15.06 0.665739Z" fill="#1B1B1B"/>
</svg>
