<svg width="47" height="46" viewBox="0 0 47 46" fill="none" xmlns="http://www.w3.org/2000/svg">
<path d="M10.1459 29.0133H5.27309C4.04385 29.0133 2.72656 28.3401 2.72656 25.9677C2.72656 24.7385 3.72311 23.7419 4.95235 23.7419H10.1459V29.0133H10.1459Z" fill="#4CE1A1"/>
<path d="M42.7902 0H12.3708C11.9611 0 11.6289 0.332152 11.6289 0.74193V42.2727H43.5322V0.74193L42.7902 0Z" fill="#8CEEA1"/>
<path d="M43.5334 0H42.7914V37.0968C42.7914 39.5553 40.7984 41.5483 38.3398 41.5483V43.0322H43.5334C43.9431 43.0322 44.2753 42.7 44.2753 42.2903V0.74193C44.2753 0.332152 43.9431 0 43.5334 0Z" fill="#4CE1A1"/>
<path d="M33.144 2.96777H9.40209C8.99231 2.96777 8.66016 3.29993 8.66016 3.7097V40.136L9.36902 41.5508L8.66016 43.0323V45.2581C8.66016 45.6679 8.99231 46 9.40209 46H10.144L11.6228 45.3271H40.6296V11.0018L33.144 2.96777Z" fill="#ECEAEC"/>
<path d="M33.8859 43.0323H8.66016V29.6775H33.8859C34.7055 29.6775 35.3698 30.3419 35.3698 31.1613V41.5485C35.3698 42.3679 34.7054 43.0323 33.8859 43.0323Z" fill="#DBD8DB"/>
<path d="M32.404 28.1936H4.95235C3.72311 28.1936 2.72656 27.197 2.72656 25.9678V39.3226C2.72656 40.5518 3.72311 41.5484 4.95235 41.5484L6.56091 40.8003H33.1969V29.0524L32.404 28.1936Z" fill="#8CEEA1"/>
<path d="M40.8712 9.95241L34.3211 3.40235C34.0428 3.1241 33.6654 2.96777 33.2718 2.96777H33.1445V9.64523C33.1445 10.4648 33.8089 11.1291 34.6284 11.1291H39.08C39.4897 11.1291 39.8219 11.4612 39.8219 11.871V40.0645C39.8219 42.5231 37.8288 44.5161 35.3703 44.5161H11.6284C10.8088 44.5161 10.1445 45.1805 10.1445 46H40.5639C40.9737 46 41.3058 45.6678 41.3058 45.258V11.0017C41.3058 10.6081 41.1494 10.2307 40.8712 9.95241Z" fill="#DBD8DB"/>
<path d="M32.4047 28.1936V37.0969C32.4047 38.7359 31.076 40.0646 29.437 40.0646H6.43698C5.61743 40.0646 4.95312 40.729 4.95312 41.5484H32.4047C33.2243 41.5484 33.8886 40.884 33.8886 40.0646V29.6776C33.8886 28.858 33.2242 28.1936 32.4047 28.1936Z" fill="#4CE1A1"/>
<path d="M25.517 22.2581L22.3319 19.073C22.0422 18.7833 21.5724 18.7833 21.2827 19.073L18.0977 22.2581H25.517Z" fill="#4CE1A1"/>
<path d="M8.62061 37.0967H8.61334C8.2032 37.0967 7.875 37.4289 7.875 37.8386C7.875 38.2483 8.21048 38.5805 8.62052 38.5805C9.03066 38.5805 9.36245 38.2483 9.36245 37.8386C9.36245 37.4289 9.03075 37.0967 8.62061 37.0967Z" fill="#222222"/>
<path d="M13.6486 31.1477C13.2384 31.1477 12.9066 31.4799 12.9066 31.8896V36.659C12.9066 36.8336 12.8175 36.9912 12.6747 37.0706C12.4081 37.2169 12.0915 36.9267 12.0676 36.9046C11.777 36.6195 11.3126 36.6195 11.0235 36.9068C10.733 37.1955 10.7315 37.6654 11.0206 37.9559C11.3076 38.2454 11.864 38.6022 12.5139 38.6022C12.795 38.6022 13.0936 38.5356 13.3949 38.3682C14.0087 38.0273 14.3905 37.3723 14.3905 36.659V31.8896C14.3905 31.4799 14.0586 31.1477 13.6486 31.1477Z" fill="#222222"/>
<path d="M28.3093 34.1315H26.524C26.1139 34.1315 25.7821 34.4637 25.7821 34.8734C25.7821 35.2831 26.1139 35.6154 26.524 35.6154H27.4818C27.2927 36.4099 26.7681 37.1152 25.7335 37.1152C24.4974 37.1152 23.4917 36.1095 23.4917 34.8734C23.4917 33.6374 24.4974 32.6317 25.7335 32.6317C26.1827 32.6317 26.616 32.7639 26.987 33.0146C27.3275 33.2435 27.7876 33.1536 28.0173 32.8146C28.2462 32.4748 28.1571 32.0136 27.8173 31.7842C27.2 31.368 26.4791 31.1477 25.7335 31.1477C23.6794 31.1477 22.0078 32.8189 22.0078 34.8733C22.0078 36.9278 23.6794 38.599 25.7335 38.599C27.6868 38.599 29.0511 37.067 29.0511 34.8733C29.0512 34.4637 28.7194 34.1315 28.3093 34.1315Z" fill="#222222"/>
<path d="M18.4971 31.1477H16.8357C16.4255 31.1477 16.0938 31.4799 16.0938 31.8896V37.857C16.0938 38.2667 16.4256 38.5989 16.8357 38.5989C17.2457 38.5989 17.5776 38.2667 17.5776 37.857V36.0029C17.9132 36.0012 18.283 35.9996 18.4971 35.9996C19.8527 35.9996 20.9562 34.9113 20.9562 33.5735C20.9561 32.2359 19.8526 31.1477 18.4971 31.1477ZM18.4971 34.5157C18.3777 34.5157 17.9708 34.5162 17.5776 34.5169V32.6316H18.4971C19.026 32.6316 19.4723 33.063 19.4723 33.5735C19.4722 34.0842 19.026 34.5157 18.4971 34.5157Z" fill="#222222"/>
<path d="M20.1595 15.5807C21.1839 15.5807 22.0143 14.7503 22.0143 13.7259C22.0143 12.7015 21.1839 11.8711 20.1595 11.8711C19.1351 11.8711 18.3047 12.7015 18.3047 13.7259C18.3047 14.7503 19.1351 15.5807 20.1595 15.5807Z" fill="#222222"/>
<path d="M27.6362 17.9602C27.3465 17.6705 26.8767 17.6705 26.587 17.9602L22.2891 22.2582H31.9342L27.6362 17.9602Z" fill="#8CEEA1"/>
<path d="M33.1466 23.0002H16.824C16.4138 23.0002 16.082 22.668 16.082 22.2583C16.082 21.8486 16.4139 21.5164 16.824 21.5164H33.1465C33.5566 21.5164 33.8884 21.8486 33.8884 22.2583C33.8885 22.668 33.5566 23.0002 33.1466 23.0002Z" fill="#4CE1A1"/>
</svg>
