<svg width="21" height="21" viewBox="0 0 21 21" fill="none" xmlns="http://www.w3.org/2000/svg">
<path d="M10.0117 15.5C12.7731 15.5 15.0117 13.2614 15.0117 10.5C15.0117 7.73858 12.7731 5.5 10.0117 5.5C7.25029 5.5 5.01172 7.73858 5.01172 10.5C5.01172 13.2614 7.25029 15.5 10.0117 15.5Z" fill="#FADB41"/>
<path d="M10.0117 3.49965C9.45898 3.49965 9.01172 3.05188 9.01172 2.49965V1.5C9.01172 0.947773 9.45898 0.5 10.0117 0.5C10.5645 0.5 11.0117 0.947773 11.0117 1.5V2.49965C11.0117 3.05188 10.5645 3.49965 10.0117 3.49965Z" fill="#FADB41"/>
<path d="M15.668 5.84287C15.4121 5.84287 15.1562 5.74521 14.9609 5.5499C14.5703 5.15939 14.5703 4.52623 14.9609 4.13572L15.668 3.42881C16.0586 3.03842 16.6914 3.0383 17.082 3.42893C17.4727 3.81943 17.4727 4.4526 17.082 4.84311L16.375 5.55002C16.1797 5.74522 15.9238 5.84287 15.668 5.84287Z" fill="#FADB41"/>
<path d="M19.0117 11.4998H18.0117C17.459 11.4998 17.0117 11.052 17.0117 10.4998C17.0117 9.94753 17.459 9.49976 18.0117 9.49976H19.0117C19.5645 9.49976 20.0117 9.94753 20.0117 10.4998C20.0117 11.052 19.5645 11.4998 19.0117 11.4998Z" fill="#FADB41"/>
<path d="M16.375 17.864C16.1191 17.864 15.8633 17.7664 15.668 17.5711L14.9609 16.8642C14.5703 16.4737 14.5703 15.8405 14.9609 15.45C15.3516 15.0594 15.9844 15.0593 16.375 15.4499L17.082 16.1568C17.4727 16.5473 17.4727 17.1805 17.082 17.571C16.8867 17.7663 16.6309 17.864 16.375 17.864Z" fill="#FADB41"/>
<path d="M10.0117 20.4999C9.45898 20.4999 9.01172 20.0521 9.01172 19.4999V18.5002C9.01172 17.948 9.45898 17.5002 10.0117 17.5002C10.5645 17.5002 11.0117 17.948 11.0117 18.5002V19.4999C11.0117 20.0521 10.5645 20.4999 10.0117 20.4999Z" fill="#FADB41"/>
<path d="M3.64844 17.8639C3.39258 17.8639 3.13672 17.7662 2.94141 17.5709C2.55078 17.1804 2.55078 16.5472 2.94141 16.1567L3.64844 15.4498C4.03906 15.0594 4.67187 15.0593 5.0625 15.4499C5.45312 15.8404 5.45312 16.4736 5.0625 16.8641L4.35547 17.571C4.16016 17.7662 3.9043 17.8639 3.64844 17.8639Z" fill="#FADB41"/>
<path d="M2.01172 11.4998H1.01172C0.458984 11.4998 0.0117188 11.052 0.0117188 10.4998C0.0117188 9.94753 0.458984 9.49976 1.01172 9.49976H2.01172C2.56445 9.49976 3.01172 9.94753 3.01172 10.4998C3.01172 11.052 2.56445 11.4998 2.01172 11.4998Z" fill="#FADB41"/>
<path d="M4.35547 5.84296C4.09961 5.84296 3.84375 5.74542 3.64844 5.55011L2.94141 4.84319C2.55078 4.45269 2.55078 3.81952 2.94141 3.42901C3.33203 3.03839 3.96484 3.03827 4.35547 3.4289L5.0625 4.13581C5.45312 4.52632 5.45312 5.15948 5.0625 5.54999C4.86719 5.7453 4.61133 5.84296 4.35547 5.84296Z" fill="#FADB41"/>
</svg>
