<svg width="16" height="15" viewBox="0 0 16 15" fill="none" xmlns="http://www.w3.org/2000/svg">
<path fill-rule="evenodd" clip-rule="evenodd" d="M5.22647 2.35007C6.10031 -0.339346 9.90512 -0.339346 10.779 2.35007C11.0359 3.14079 11.7727 3.67615 12.6042 3.67615C15.432 3.67615 16.6077 7.29473 14.32 8.95688C13.6473 9.44557 13.3659 10.3118 13.6228 11.1025C14.4966 13.7919 11.4185 16.0283 9.13074 14.3662C8.45812 13.8775 7.54731 13.8775 6.87468 14.3662C4.58693 16.0283 1.50878 13.7919 2.38262 11.1025C2.63954 10.3118 2.35809 9.44557 1.68546 8.95688C-0.602292 7.29473 0.573458 3.67615 3.40128 3.67615C4.23269 3.67615 4.96955 3.14079 5.22647 2.35007ZM9.80959 4.59661C9.72099 4.33507 9.43715 4.19487 9.1756 4.28346C8.91406 4.37206 8.77386 4.6559 8.86245 4.91745C9.14985 5.76588 9.96497 6.32212 10.8643 6.32212C11.1405 6.32212 11.3643 6.09826 11.3643 5.82212C11.3643 5.54597 11.1405 5.32212 10.8643 5.32212C10.3713 5.32212 9.95245 5.01836 9.80959 4.59661Z" fill="#7733E6"/>
</svg>
