<svg width="16" height="16" viewBox="0 0 16 16" fill="none" xmlns="http://www.w3.org/2000/svg">
<path d="M3.98164 1.72346C4.19727 1.55096 4.23223 1.23631 4.05972 1.02068C3.88722 0.805048 3.57257 0.770087 3.35694 0.942592L1.69028 2.27593C1.47464 2.44843 1.43968 2.76308 1.61219 2.97871C1.78469 3.19434 2.09934 3.2293 2.31497 3.05679L3.98164 1.72346Z" fill="#FD9444"/>
<path d="M12.6483 0.942592C12.4327 0.770087 12.118 0.805048 11.9455 1.02068C11.773 1.23631 11.808 1.55096 12.0236 1.72346L13.6903 3.05679C13.9059 3.2293 14.2206 3.19434 14.3931 2.97871C14.5656 2.76308 14.5306 2.44843 14.315 2.27593L12.6483 0.942592Z" fill="#FD9444"/>
<path fill-rule="evenodd" clip-rule="evenodd" d="M8.00261 1.33303C4.04456 1.33303 0.835938 4.54165 0.835938 8.49969C0.835938 12.4577 4.04456 15.6664 8.00261 15.6664C11.9606 15.6664 15.1693 12.4577 15.1693 8.49969C15.1693 4.54165 11.9606 1.33303 8.00261 1.33303ZM8.50261 5.83303C8.50261 5.55688 8.27875 5.33303 8.00261 5.33303C7.72646 5.33303 7.5026 5.55688 7.5026 5.83303L7.50261 7.95925L7.02282 7.47947C6.82756 7.28421 6.51098 7.28421 6.31572 7.47947C6.12046 7.67474 6.12046 7.99132 6.31572 8.18658L7.31572 9.18658C7.75371 9.62457 8.50261 9.31437 8.50261 8.69495L8.50261 5.83303Z" fill="#FD9444"/>
</svg>
