<svg width="20" height="20" viewBox="0 0 20 20" fill="none" xmlns="http://www.w3.org/2000/svg">
<path d="M8.33261 14.2246C7.98743 14.2246 7.70761 14.5044 7.70761 14.8496C7.70761 15.1947 7.98743 15.4746 8.33261 15.4746H11.6659C12.0111 15.4746 12.2909 15.1947 12.2909 14.8496C12.2909 14.5044 12.0111 14.2246 11.6659 14.2246H8.33261Z" fill="black"/>
<path fill-rule="evenodd" clip-rule="evenodd" d="M10.1749 1.04472C10.0579 1.04043 9.94068 1.04043 9.82361 1.04472C9.05079 1.07308 8.3549 1.33587 7.59189 1.77332C6.84834 2.19962 5.99231 2.82157 4.90615 3.61071L4.84711 3.65361C3.76095 4.44274 2.9049 5.06469 2.26969 5.64013C1.61787 6.23061 1.1529 6.81124 0.887119 7.53747C0.846858 7.64748 0.810645 7.75893 0.778553 7.8716C0.566703 8.61535 0.601589 9.35839 0.781847 10.2192C0.957512 11.0581 1.2845 12.0645 1.69938 13.3413L1.72193 13.4107C2.1368 14.6876 2.46377 15.6939 2.81475 16.4759C3.17491 17.2782 3.58343 17.8999 4.19199 18.3771C4.28418 18.4494 4.37898 18.5182 4.47622 18.5836C5.1181 19.0149 5.83556 19.2113 6.70997 19.3059C7.56209 19.3981 8.62021 19.3981 9.96278 19.3981H10.0358C11.3783 19.3981 12.4365 19.3981 13.2886 19.3059C14.163 19.2113 14.8804 19.0149 15.5223 18.5836C15.6196 18.5182 15.7144 18.4494 15.8066 18.3771C16.4151 17.8999 16.8236 17.2782 17.1838 16.4759C17.5348 15.6939 17.8618 14.6876 18.2766 13.4107L18.2992 13.3413C18.714 12.0645 19.041 11.0581 19.2167 10.2192C19.397 9.35839 19.4318 8.61535 19.22 7.8716C19.1879 7.75893 19.1517 7.64748 19.1114 7.53747C18.8457 6.81124 18.3807 6.23061 17.7289 5.64013C17.0936 5.06469 16.2376 4.44274 15.1514 3.6536L15.0924 3.6107C14.0062 2.82156 13.1502 2.19962 12.4067 1.77332C11.6436 1.33587 10.9478 1.07308 10.1749 1.04472ZM9.86944 2.29388C9.95596 2.29071 10.0426 2.29071 10.1291 2.29388C10.6253 2.31209 11.1195 2.47623 11.7849 2.85773C12.4631 3.24653 13.265 3.82814 14.3872 4.64344C15.5094 5.45874 16.3103 6.04172 16.8896 6.56652C17.4581 7.08149 17.7669 7.50077 17.9376 7.96706C17.9673 8.04837 17.9941 8.13075 18.0178 8.21403C18.1538 8.69156 18.1504 9.2123 17.9932 9.96304C17.833 10.7281 17.5277 11.6706 17.0991 12.9898C16.6704 14.3089 16.3635 15.2508 16.0434 15.964C15.7293 16.6638 15.426 17.087 15.0352 17.3934C14.9671 17.4468 14.897 17.4978 14.8252 17.546C14.413 17.823 13.9167 17.9807 13.1542 18.0632C12.377 18.1472 11.3863 18.1481 9.99927 18.1481C8.6122 18.1481 7.62155 18.1472 6.84439 18.0632C6.08181 17.9807 5.58551 17.823 5.17338 17.546C5.10151 17.4978 5.03144 17.4468 4.9633 17.3934C4.57257 17.087 4.26923 16.6638 3.95514 15.964C3.63504 15.2508 3.3281 14.3089 2.89947 12.9898C2.47085 11.6706 2.16552 10.7281 2.00531 9.96304C1.84811 9.2123 1.84471 8.69156 1.98074 8.21403C2.00446 8.13075 2.03122 8.04837 2.06098 7.96706C2.23162 7.50077 2.54045 7.08149 3.10891 6.56652C3.68823 6.04172 4.48919 5.45874 5.61136 4.64344C6.73352 3.82814 7.53548 3.24653 8.21362 2.85773C8.87904 2.47623 9.37324 2.31209 9.86944 2.29388Z" fill="black"/>
</svg>
