<svg width="20" height="20" viewBox="0 0 20 20" fill="none" xmlns="http://www.w3.org/2000/svg">
<path d="M6.66667 14.3748C6.32149 14.3748 6.04167 14.6547 6.04167 14.9998C6.04167 15.345 6.32149 15.6248 6.66667 15.6248V14.3748ZM13.3333 15.6248C13.6785 15.6248 13.9583 15.345 13.9583 14.9998C13.9583 14.6547 13.6785 14.3748 13.3333 14.3748V15.6248ZM8.33333 11.0415C7.98816 11.0415 7.70833 11.3213 7.70833 11.6665C7.70833 12.0117 7.98816 12.2915 8.33333 12.2915V11.0415ZM11.6667 12.2915C12.0118 12.2915 12.2917 12.0117 12.2917 11.6665C12.2917 11.3213 12.0118 11.0415 11.6667 11.0415V12.2915ZM6.66667 7.70817C6.32149 7.70817 6.04167 7.98799 6.04167 8.33317C6.04167 8.67835 6.32149 8.95817 6.66667 8.95817V7.70817ZM13.3333 8.95817C13.6785 8.95817 13.9583 8.67835 13.9583 8.33317C13.9583 7.98799 13.6785 7.70817 13.3333 7.70817V8.95817ZM4.21756 17.5374L4.58493 17.0318L4.21756 17.5374ZM3.29576 16.6156L3.8014 16.2482L3.29576 16.6156ZM16.7042 16.6156L16.1986 16.2482L16.7042 16.6156ZM15.7824 17.5374L15.4151 17.0318L15.7824 17.5374ZM15.7824 2.46227L16.1498 1.95663L15.7824 2.46227ZM16.7042 3.38407L16.1986 3.75143L16.7042 3.38407ZM4.21756 2.46227L4.58493 2.9679L4.21756 2.46227ZM3.29576 3.38407L3.8014 3.75143L3.29576 3.38407ZM10.9551 5.49593L11.0529 6.11323V6.11323L10.9551 5.49593ZM9.6515 5.49593L9.55372 6.11323V6.11323L9.6515 5.49593ZM6.66667 15.6248H13.3333V14.3748H6.66667V15.6248ZM8.33333 12.2915H11.6667V11.0415H8.33333V12.2915ZM6.66667 8.95817H13.3333V7.70817H6.66667V8.95817ZM16.875 9.1665V10.8332H18.125V9.1665H16.875ZM3.125 10.8332V9.1665H1.875V10.8332H3.125ZM10 17.7082C8.42369 17.7082 7.29166 17.7073 6.41504 17.6123C5.55011 17.5186 5.00826 17.3393 4.58493 17.0318L3.8502 18.043C4.52213 18.5312 5.30912 18.7498 6.2804 18.8551C7.23998 18.959 8.45153 18.9582 10 18.9582V17.7082ZM1.875 10.8332C1.875 12.3816 1.87414 13.5932 1.97811 14.5528C2.08334 15.5241 2.30194 16.311 2.79013 16.983L3.8014 16.2482C3.49383 15.8249 3.31454 15.2831 3.22083 14.4181C3.12586 13.5415 3.125 12.4095 3.125 10.8332H1.875ZM4.58493 17.0318C4.28426 16.8133 4.01985 16.5489 3.8014 16.2482L2.79013 16.983C3.08567 17.3898 3.44341 17.7475 3.8502 18.043L4.58493 17.0318ZM16.875 10.8332C16.875 12.4095 16.8741 13.5415 16.7792 14.4181C16.6855 15.2831 16.5062 15.8249 16.1986 16.2482L17.2099 16.983C17.6981 16.311 17.9167 15.5241 18.0219 14.5528C18.1259 13.5932 18.125 12.3816 18.125 10.8332H16.875ZM10 18.9582C11.5485 18.9582 12.76 18.959 13.7196 18.8551C14.6909 18.7498 15.4779 18.5312 16.1498 18.043L15.4151 17.0318C14.9917 17.3393 14.4499 17.5186 13.585 17.6123C12.7083 17.7073 11.5763 17.7082 10 17.7082V18.9582ZM16.1986 16.2482C15.9802 16.5489 15.7157 16.8133 15.4151 17.0318L16.1498 18.043C16.5566 17.7475 16.9143 17.3898 17.2099 16.983L16.1986 16.2482ZM18.125 9.1665C18.125 7.61804 18.1259 6.40648 18.0219 5.4469C17.9167 4.47562 17.6981 3.68864 17.2099 3.0167L16.1986 3.75143C16.5062 4.17477 16.6855 4.71661 16.7792 5.58154C16.8741 6.45816 16.875 7.59019 16.875 9.1665H18.125ZM15.4151 2.9679C15.7157 3.18635 15.9802 3.45076 16.1986 3.75143L17.2099 3.0167C16.9143 2.60991 16.5566 2.25218 16.1498 1.95663L15.4151 2.9679ZM3.125 9.1665C3.125 7.59019 3.12586 6.45816 3.22083 5.58154C3.31454 4.71662 3.49383 4.17477 3.8014 3.75143L2.79013 3.0167C2.30194 3.68864 2.08334 4.47562 1.97811 5.4469C1.87414 6.40648 1.875 7.61804 1.875 9.1665H3.125ZM3.8502 1.95663C3.44341 2.25218 3.08567 2.60991 2.79013 3.0167L3.8014 3.75143C4.01985 3.45076 4.28426 3.18635 4.58493 2.9679L3.8502 1.95663ZM10.8573 4.87862C10.4903 4.93676 10.1163 4.93676 9.74927 4.87862L9.55372 6.11323C10.0504 6.19189 10.5563 6.19189 11.0529 6.11323L10.8573 4.87862ZM14.9253 1.7672C13.8918 2.79996 13.1386 3.54155 12.488 4.05392C11.8467 4.55896 11.3552 4.79978 10.8573 4.87862L11.0529 6.11323C11.843 5.98809 12.5316 5.61068 13.2614 5.03595C13.9819 4.46854 14.7907 3.66881 15.8089 2.6514L14.9253 1.7672ZM10 2.2915C11.3848 2.2915 12.4291 2.29194 13.2624 2.35743C14.0937 2.42276 14.6537 2.54953 15.0857 2.76736L15.6485 1.65124C15.004 1.32628 14.2558 1.18165 13.3603 1.11127C12.4669 1.04106 11.3659 1.0415 10 1.0415V2.2915ZM15.0857 2.76736C15.2026 2.82634 15.3116 2.89276 15.4151 2.9679L16.1498 1.95663C15.991 1.84123 15.8243 1.73991 15.6485 1.65124L15.0857 2.76736ZM4.61825 2.47194C5.69372 3.54736 6.53787 4.39018 7.28201 4.98577C8.03536 5.58872 8.74087 5.98449 9.55372 6.11323L9.74927 4.87862C9.23716 4.79751 8.73178 4.54504 8.0631 4.00985C7.38521 3.46729 6.5962 2.68207 5.50212 1.58804L4.61825 2.47194ZM10 1.0415C8.80309 1.0415 7.81141 1.04128 6.98737 1.08794C6.16393 1.13456 5.46361 1.22964 4.85633 1.43917L5.26404 2.62081C5.71023 2.46686 6.27655 2.38019 7.05803 2.33594C7.8389 2.29173 8.7904 2.2915 10 2.2915V1.0415ZM4.85633 1.43917C4.48916 1.56586 4.15658 1.73403 3.8502 1.95663L4.58493 2.9679C4.78207 2.82467 5.00236 2.7111 5.26404 2.62081L4.85633 1.43917Z" fill="#1B1B1B"/>
</svg>
