<svg width="20" height="20" viewBox="0 0 20 20" fill="none" xmlns="http://www.w3.org/2000/svg">
<path d="M7.4987 7.50016H4.16536M13.9938 6.43178C14.1654 7.23595 14.1654 8.31316 14.1654 10.0002C14.1654 11.6868 14.1654 12.764 13.9939 13.5681M13.9938 6.43178C13.928 6.12358 13.837 5.85548 13.7112 5.60854C13.3118 4.82453 12.6743 4.18711 11.8903 3.78764C10.999 3.3335 9.83225 3.3335 7.4987 3.3335C5.16515 3.3335 3.99837 3.3335 3.10707 3.78764C2.32306 4.18711 1.68564 4.82453 1.28617 5.60854C0.832031 6.49983 0.832031 7.66661 0.832031 10.0002C0.832031 12.3337 0.832031 13.5005 1.28617 14.3918C1.68564 15.1758 2.32306 15.8132 3.10707 16.2127C3.99837 16.6668 5.16515 16.6668 7.4987 16.6668C9.83225 16.6668 10.999 16.6668 11.8903 16.2127C12.6743 15.8132 13.3118 15.1758 13.7112 14.3918C13.8371 14.1447 13.9281 13.8765 13.9939 13.5681M13.9938 6.43178L14.1654 6.35163L14.4974 6.20656C16.6039 5.28609 17.6572 4.82585 18.4113 5.31929C19.1654 5.81273 19.1654 6.96216 19.1654 9.26103V10.7393C19.1654 13.0382 19.1654 14.1876 18.4113 14.681C17.6572 15.1745 16.6039 14.7142 14.4974 13.7938L14.1654 13.6487L13.9939 13.5681" stroke="#1B1B1B" stroke-width="1.25" stroke-linecap="round"/>
</svg>
