<svg width="20" height="20" viewBox="0 0 20 20" fill="none" xmlns="http://www.w3.org/2000/svg">
<path d="M7.5 11.0412C7.15482 11.0412 6.875 11.321 6.875 11.6662C6.875 12.0114 7.15482 12.2912 7.5 12.2912V11.0412ZM12.5 12.2912C12.8452 12.2912 13.125 12.0114 13.125 11.6662C13.125 11.321 12.8452 11.0412 12.5 11.0412V12.2912ZM9.375 14.1662C9.375 14.5114 9.65482 14.7912 10 14.7912C10.3452 14.7912 10.625 14.5114 10.625 14.1662H9.375ZM10.625 9.16618C10.625 8.821 10.3452 8.54118 10 8.54118C9.65482 8.54118 9.375 8.821 9.375 9.16618H10.625ZM5.3791 17.2956L5.18596 17.89L5.18596 17.89L5.3791 17.2956ZM2.70393 14.6204L3.29834 14.4273L3.29834 14.4273L2.70393 14.6204ZM17.2961 14.6204L17.8905 14.8136H17.8905L17.2961 14.6204ZM14.6209 17.2956L14.814 17.89L14.814 17.89L14.6209 17.2956ZM10.5001 5.83555L10.4968 6.46054L10.5001 5.83555ZM14.6209 6.03678L14.814 5.44237L14.6209 6.03678ZM17.2961 8.71194L17.8905 8.51881L17.8905 8.51881L17.2961 8.71194ZM7.45116 2.85319L7.14266 3.39675L7.45116 2.85319ZM8.86657 4.52136L8.28801 4.75776L8.28803 4.75782L8.86657 4.52136ZM3.1862 2.64098L2.8777 2.09743L2.8777 2.09743L3.1862 2.64098ZM2.62004 3.30825L2.04147 3.07184L2.62004 3.30825ZM8.87442 4.54055L8.29588 4.77702L8.29589 4.77703L8.87442 4.54055ZM7.5 12.2912H12.5V11.0412H7.5V12.2912ZM10.625 14.1662V9.16618H9.375V14.1662H10.625ZM11.6667 16.8745H8.33333V18.1245H11.6667V16.8745ZM8.33333 16.8745C6.73362 16.8745 6.08199 16.8668 5.57223 16.7012L5.18596 17.89C5.93147 18.1322 6.83091 18.1245 8.33333 18.1245V16.8745ZM1.875 9.99951C1.875 10.7732 1.87495 11.7808 1.90075 12.6743C1.91364 13.1208 1.93317 13.5462 1.96323 13.904C1.99168 14.2428 2.03356 14.5798 2.10952 14.8136L3.29834 14.4273C3.27233 14.3472 3.23775 14.1436 3.20884 13.7994C3.18154 13.4743 3.16283 13.0746 3.15023 12.6382C3.12505 11.7659 3.125 10.7769 3.125 9.99951H1.875ZM5.57223 16.7012C4.49401 16.3508 3.64868 15.5055 3.29834 14.4273L2.10952 14.8136C2.5835 16.2723 3.7272 17.416 5.18596 17.89L5.57223 16.7012ZM16.875 11.6662C16.875 13.2659 16.8673 13.9175 16.7017 14.4273L17.8905 14.8136C18.1327 14.068 18.125 13.1686 18.125 11.6662H16.875ZM11.6667 18.1245C13.1691 18.1245 14.0685 18.1322 14.814 17.89L14.4278 16.7012C13.918 16.8668 13.2664 16.8745 11.6667 16.8745V18.1245ZM16.7017 14.4273C16.3513 15.5055 15.506 16.3508 14.4278 16.7012L14.814 17.89C16.2728 17.416 17.4165 16.2723 17.8905 14.8136L16.7017 14.4273ZM10.4968 6.46054C11.305 6.46489 12.207 6.47625 12.9642 6.5056C13.3433 6.52029 13.6795 6.53926 13.9466 6.56336C14.234 6.58931 14.3837 6.61688 14.4278 6.63119L14.814 5.44237C14.6186 5.37885 14.336 5.34344 14.059 5.31843C13.7615 5.29157 13.4013 5.2716 13.0126 5.25653C12.2341 5.22636 11.3153 5.21493 10.5035 5.21056L10.4968 6.46054ZM18.125 11.6662C18.125 10.1638 18.1327 9.26432 17.8905 8.51881L16.7017 8.90508C16.8673 9.41484 16.875 10.0665 16.875 11.6662H18.125ZM14.4278 6.63119C15.506 6.98152 16.3513 7.82686 16.7017 8.90508L17.8905 8.51881C17.4165 7.06004 16.2728 5.91635 14.814 5.44237L14.4278 6.63119ZM3.125 9.99951V4.74441H1.875V9.99951H3.125ZM4.40476 3.12451C5.22405 3.12451 5.79637 3.12512 6.24298 3.16611C6.67953 3.20617 6.9388 3.28104 7.14266 3.39675L7.75967 2.30964C7.34038 2.07166 6.88419 1.9697 6.35721 1.92134C5.84028 1.8739 5.20097 1.87451 4.40476 1.87451V3.12451ZM7.14266 3.39675C7.62608 3.67112 8.03715 4.14383 8.28801 4.75776L9.44514 4.28495C9.10028 3.44097 8.51326 2.73736 7.75967 2.30964L7.14266 3.39675ZM4.40476 1.87451C4.0932 1.87451 3.81738 1.8739 3.58952 1.89481C3.35159 1.91664 3.11004 1.96556 2.8777 2.09743L3.49471 3.18454C3.51162 3.17494 3.55625 3.15312 3.70374 3.13958C3.86129 3.12512 4.07013 3.12451 4.40476 3.12451V1.87451ZM3.125 4.74441C3.125 4.35528 3.12532 4.09382 3.13865 3.8921C3.15167 3.69493 3.17504 3.60232 3.1986 3.54466L2.04147 3.07184C1.945 3.30795 1.90835 3.55263 1.89136 3.8097C1.87468 4.06221 1.875 4.37195 1.875 4.74441H3.125ZM2.8777 2.09743C2.49521 2.31452 2.20762 2.66524 2.04147 3.07184L3.1986 3.54466C3.27075 3.3681 3.38239 3.24828 3.49471 3.18454L2.8777 2.09743ZM9.45296 4.30409L9.44511 4.28489L8.28803 4.75782L8.29588 4.77702L9.45296 4.30409ZM10.5035 5.21056C10.1116 5.20845 9.68599 4.87419 9.45295 4.30407L8.29589 4.77703C8.62824 5.59013 9.39443 6.45461 10.4968 6.46054L10.5035 5.21056Z" fill="#1B1B1B"/>
</svg>
