<svg width="20" height="20" viewBox="0 0 20 20" fill="none" xmlns="http://www.w3.org/2000/svg">
<path d="M4.94364 4.4886L4.79168 5.09485L4.94364 4.4886ZM7.75577 2.86502L7.15477 2.6935L7.75577 2.86502ZM2.69905 8.37635L3.14809 7.94162L2.69905 8.37635ZM2.69905 11.6235L2.25001 11.1888H2.25001L2.69905 11.6235ZM4.94364 15.5113L5.0956 16.1175L4.94364 15.5113ZM7.75577 17.1348L7.15477 17.3064L7.75577 17.1348ZM12.245 17.1348L12.846 17.3064L12.245 17.1348ZM15.0571 15.5113L15.209 14.905L15.0571 15.5113ZM17.3017 11.6235L16.8526 12.0582L17.3017 11.6235ZM17.3017 8.37635L16.8526 7.94162L17.3017 8.37635ZM15.0571 4.4886L14.9051 3.88236L15.0571 4.4886ZM12.245 2.86502L12.846 2.6935L12.245 2.86502ZM4.79168 5.09485C6.34076 5.48315 7.91851 4.57224 8.35677 3.03654L7.15477 2.6935C6.90163 3.5805 5.99034 4.10664 5.0956 3.88236L4.79168 5.09485ZM3.14809 7.94162C1.95204 6.70618 3.12373 4.67676 4.79168 5.09485L5.0956 3.88236C2.20782 3.1585 0.179239 6.67212 2.25001 8.81107L3.14809 7.94162ZM3.14809 12.0582C4.25891 10.9108 4.25891 9.08902 3.14809 7.94162L2.25001 8.81107C2.8916 9.4738 2.8916 10.5261 2.25001 11.1888L3.14809 12.0582ZM4.79168 14.905C3.12373 15.3231 1.95204 13.2937 3.14809 12.0582L2.25001 11.1888C0.179239 13.3278 2.20782 16.8414 5.0956 16.1175L4.79168 14.905ZM8.35677 16.9633C7.91851 15.4276 6.34076 14.5167 4.79168 14.905L5.0956 16.1175C5.99034 15.8932 6.90163 16.4194 7.15477 17.3064L8.35677 16.9633ZM11.6439 16.9633C11.1721 18.6169 8.82867 18.6169 8.35677 16.9633L7.15477 17.3064C7.97178 20.1692 12.0289 20.1692 12.846 17.3064L11.6439 16.9633ZM15.209 14.905C13.66 14.5167 12.0822 15.4276 11.6439 16.9633L12.846 17.3064C13.0991 16.4194 14.0104 15.8932 14.9051 16.1175L15.209 14.905ZM16.8526 12.0582C18.0487 13.2937 16.877 15.3231 15.209 14.905L14.9051 16.1175C17.7929 16.8414 19.8215 13.3278 17.7507 11.1888L16.8526 12.0582ZM16.8526 7.94162C15.7418 9.08902 15.7418 10.9108 16.8526 12.0582L17.7507 11.1888C17.1091 10.5261 17.1091 9.4738 17.7507 8.81107L16.8526 7.94162ZM15.209 5.09485C16.877 4.67676 18.0487 6.70618 16.8526 7.94162L17.7507 8.81107C19.8215 6.67212 17.7929 3.1585 14.9051 3.88236L15.209 5.09485ZM11.6439 3.03654C12.0822 4.57224 13.66 5.48315 15.209 5.09485L14.9051 3.88236C14.0104 4.10664 13.0991 3.5805 12.846 2.6935L11.6439 3.03654ZM12.846 2.6935C12.0289 -0.169318 7.97178 -0.169317 7.15477 2.6935L8.35677 3.03654C8.82867 1.383 11.1721 1.383 11.6439 3.03654L12.846 2.6935ZM6.87536 9.99993C6.87536 11.7258 8.27447 13.1249 10.0004 13.1249V11.8749C8.96483 11.8749 8.12536 11.0355 8.12536 9.99993H6.87536ZM10.0004 13.1249C11.7263 13.1249 13.1254 11.7258 13.1254 9.99993H11.8754C11.8754 11.0355 11.0359 11.8749 10.0004 11.8749V13.1249ZM13.1254 9.99993C13.1254 8.27404 11.7263 6.87493 10.0004 6.87493V8.12493C11.0359 8.12493 11.8754 8.9644 11.8754 9.99993H13.1254ZM10.0004 6.87493C8.27447 6.87493 6.87536 8.27404 6.87536 9.99993H8.12536C8.12536 8.9644 8.96483 8.12493 10.0004 8.12493V6.87493Z" fill="#1B1B1B"/>
</svg>
