<svg width="57" height="56" viewBox="0 0 57 56" fill="none" xmlns="http://www.w3.org/2000/svg">
<path fill-rule="evenodd" clip-rule="evenodd" d="M10.7628 10.2637C20.5584 0.46808 36.4403 0.46808 46.2359 10.2637C49.0023 13.0301 51.5374 17.2188 52.7776 21.9069C54.0223 26.6125 53.992 31.9507 51.4171 36.8826C51.1737 37.3488 50.9977 37.6859 50.8711 37.9347C50.8082 38.0585 50.7618 38.1519 50.7279 38.2227C50.7177 38.2439 50.7092 38.262 50.7022 38.2772C50.6977 38.287 50.6937 38.2957 50.6904 38.3032C50.6821 38.3216 50.6788 38.3297 50.6788 38.3297C50.5156 38.7398 50.4709 38.9312 50.4547 39.0728C50.4385 39.2144 50.439 39.4111 50.5054 39.8474C50.5243 39.9714 50.5734 40.1704 50.7473 40.8414L50.7574 40.8805C50.9906 41.7803 51.1799 42.5104 51.3057 43.099C51.4319 43.6898 51.5233 44.2626 51.5031 44.8226C51.382 48.1851 48.6841 50.883 45.3216 51.0041C44.7616 51.0243 44.1889 50.9329 43.5981 50.8067C43.0094 50.6809 42.2793 50.4916 41.3796 50.2584L41.3404 50.2483C40.6693 50.0743 40.4706 50.0254 40.3458 50.0064C39.913 49.9408 39.7125 49.9404 39.5668 49.9574C39.4211 49.9744 39.226 50.0207 38.8199 50.1841C38.8199 50.1841 38.8117 50.1874 38.7931 50.1958C38.774 50.2045 38.7479 50.2166 38.7134 50.2333C38.6435 50.2671 38.5513 50.3133 38.4292 50.3761C38.1836 50.5023 37.8513 50.6775 37.3913 50.9201C27.5844 56.0929 16.3821 51.3563 10.7628 45.7369C0.967103 35.9413 0.967103 20.0594 10.7628 10.2637ZM43.7611 12.7386C35.3323 4.30979 21.6664 4.30979 13.2376 12.7386C4.80881 21.1674 4.80881 34.8332 13.2376 43.262C18.233 48.2575 27.8088 52.0175 35.7584 47.8244C35.8161 47.794 35.8724 47.7642 35.9275 47.7351C36.6836 47.3361 37.2042 47.0614 37.5139 46.9369C38.0498 46.7213 38.5736 46.5494 39.1621 46.4809C39.7506 46.4124 40.2999 46.4594 40.871 46.5461C41.2005 46.5961 41.5942 46.6982 42.116 46.8336C42.1496 46.8424 42.1838 46.8512 42.2185 46.8602C43.1668 47.106 43.8236 47.2758 44.3294 47.3839C44.8417 47.4934 45.0754 47.5107 45.1956 47.5064C46.724 47.4513 47.9503 46.225 48.0054 44.6966C48.0097 44.5764 47.9924 44.3427 47.8829 43.8304C47.7748 43.3245 47.605 42.6678 47.3592 41.7195C47.3502 41.6846 47.3413 41.6503 47.3325 41.6165C47.1973 41.0952 47.0953 40.7022 47.0454 40.3746C46.9589 39.8071 46.9104 39.2613 46.9773 38.6754C47.0443 38.0896 47.2147 37.5688 47.4269 37.0354C47.5497 36.727 47.8244 36.201 48.2248 35.4344C48.2541 35.3785 48.284 35.3213 48.3145 35.2627C50.3918 31.2839 50.4732 26.8817 49.394 22.802C48.3101 18.7047 46.0855 15.063 43.7611 12.7386Z" fill="#2D264B"/>
<path d="M21.1677 27.6688C21.1677 28.9574 20.123 30.0021 18.8343 30.0021C17.5457 30.0021 16.501 28.9574 16.501 27.6688C16.501 26.3801 17.5457 25.3355 18.8343 25.3355C20.123 25.3355 21.1677 26.3801 21.1677 27.6688Z" fill="#2D264B"/>
<path d="M30.501 27.6688C30.501 28.9574 29.4563 30.0021 28.1677 30.0021C26.879 30.0021 25.8343 28.9574 25.8343 27.6688C25.8343 26.3801 26.879 25.3355 28.1677 25.3355C29.4563 25.3355 30.501 26.3801 30.501 27.6688Z" fill="#2D264B"/>
<path d="M39.8343 27.6688C39.8343 28.9574 38.7897 30.0021 37.501 30.0021C36.2123 30.0021 35.1677 28.9574 35.1677 27.6688C35.1677 26.3801 36.2123 25.3355 37.501 25.3355C38.7897 25.3355 39.8343 26.3801 39.8343 27.6688Z" fill="#2D264B"/>
</svg>
