<svg width="60" height="61" viewBox="0 0 60 61" fill="none" xmlns="http://www.w3.org/2000/svg">
<rect y="0.5" width="60" height="60" rx="30" fill="#5DE85B" fill-opacity="0.3"/>
<path d="M17.1123 23.046C16.668 24.6993 16.668 26.9801 16.668 30.5C16.668 35.4996 16.668 37.9995 17.9412 39.7519C18.3524 40.3179 18.8501 40.8156 19.4161 41.2268C21.1685 42.5 23.6683 42.5 28.668 42.5H31.3346C36.3343 42.5 38.8341 42.5 40.5865 41.2268C41.1525 40.8156 41.6502 40.3179 42.0614 39.7519C43.3346 37.9995 43.3346 35.4996 43.3346 30.5C43.3346 26.9684 43.3346 24.6841 42.8859 23.0295L40.0822 25.8331C37.9058 28.0095 36.2003 29.7151 34.6906 30.8669C33.1454 32.0459 31.6884 32.7386 30.0011 32.7386C28.3139 32.7386 26.8569 32.0459 25.3116 30.8669C23.8019 29.7151 22.0964 28.0095 19.92 25.8331L17.3131 23.2262L17.1123 23.046Z" fill="#5DE85B"/>
<path d="M18.0013 21.1667L18.1464 21.2868L18.6891 21.7738L21.2801 24.3648C23.5223 26.607 25.1344 28.216 26.5248 29.2769C27.8921 30.3201 28.927 30.7386 30.0011 30.7386C31.0753 30.7386 32.1101 30.3201 33.4775 29.2769C34.8679 28.216 36.4799 26.607 38.7221 24.3648L41.7993 21.2876L41.9668 21.1211C41.5556 20.5551 41.1525 20.1844 40.5865 19.7732C38.8341 18.5 36.3343 18.5 31.3346 18.5H28.668C23.6683 18.5 21.1685 18.5 19.4161 19.7732C18.8501 20.1844 18.4125 20.6007 18.0013 21.1667Z" fill="#5DE85B"/>
</svg>
