<svg width="18" height="18" viewBox="0 0 18 18" fill="none" xmlns="http://www.w3.org/2000/svg">
<path d="M6.62367 14.7034C5.13514 12.4396 5.38543 9.36631 7.37452 7.37472C9.38038 5.36633 12.4849 5.12842 14.751 6.66097M6.62367 14.7034C6.83792 15.0293 7.08821 15.3384 7.37452 15.6251C8.69811 16.9503 11.5049 18.0961 13.783 16.6865C13.9098 16.6081 13.9732 16.5689 14.0211 16.5499C14.1127 16.5135 14.1822 16.503 14.2805 16.5106C14.3319 16.5146 14.3901 16.5297 14.5066 16.5599C15.2395 16.7501 15.6059 16.8452 15.8699 16.7914C16.3281 16.6981 16.6861 16.3395 16.7794 15.8808C16.8331 15.6164 16.7381 15.2496 16.5482 14.5158C16.518 14.3991 16.5029 14.3408 16.4989 14.2892C16.4914 14.1908 16.5021 14.1204 16.5386 14.0287C16.5577 13.9806 16.5968 13.9176 16.6751 13.7915C18.0877 11.5156 16.9944 8.7564 15.6145 7.37472C15.3449 7.10483 15.0555 6.86691 14.751 6.66097M6.62367 14.7034L6.5013 14.6825C5.9833 14.5581 5.47186 14.352 4.98067 14.0481C4.82673 13.9528 4.74976 13.9052 4.69156 13.8821C4.58028 13.838 4.49589 13.8252 4.37656 13.8345C4.31415 13.8393 4.24344 13.8576 4.10202 13.8943C3.21212 14.1253 2.76717 14.2407 2.44661 14.1754C1.89025 14.0621 1.45544 13.6267 1.34221 13.0696C1.27697 12.7487 1.3923 12.3032 1.62295 11.4121C1.65962 11.2705 1.67795 11.1997 1.68275 11.137C1.69191 11.0175 1.6789 10.932 1.63462 10.8207C1.61138 10.7623 1.56388 10.6858 1.46889 10.5327C-0.246445 7.76905 1.08108 4.41863 2.75673 2.74087C5.51972 -0.0256013 9.99941 -0.0256013 12.7624 2.74087C13.8664 3.84625 14.5293 5.22605 14.751 6.66097" stroke="white" stroke-width="1.25"/>
<path d="M9.83464 11.4993C9.83464 11.9596 9.46154 12.3327 9.0013 12.3327C8.54106 12.3327 8.16797 11.9596 8.16797 11.4993C8.16797 11.0391 8.54106 10.666 9.0013 10.666C9.46154 10.666 9.83464 11.0391 9.83464 11.4993Z" fill="white"/>
<path d="M12.3346 11.4993C12.3346 11.9596 11.9615 12.3327 11.5013 12.3327C11.0411 12.3327 10.668 11.9596 10.668 11.4993C10.668 11.0391 11.0411 10.666 11.5013 10.666C11.9615 10.666 12.3346 11.0391 12.3346 11.4993Z" fill="white"/>
<path d="M14.8346 11.4993C14.8346 11.9596 14.4615 12.3327 14.0013 12.3327C13.5411 12.3327 13.168 11.9596 13.168 11.4993C13.168 11.0391 13.5411 10.666 14.0013 10.666C14.4615 10.666 14.8346 11.0391 14.8346 11.4993Z" fill="white"/>
</svg>
