<svg width="60" height="61" viewBox="0 0 60 61" fill="none" xmlns="http://www.w3.org/2000/svg">
<rect y="0.5" width="60" height="60" rx="30" fill="#5DE85B"/>
<path fill-rule="evenodd" clip-rule="evenodd" d="M23.6654 22.5001C23.6654 19.0023 26.5009 16.1667 29.9987 16.1667C33.4965 16.1667 36.332 19.0023 36.332 22.5001V27.8334C36.332 31.3312 33.4965 34.1667 29.9987 34.1667C26.5009 34.1667 23.6654 31.3312 23.6654 27.8334V22.5001ZM28.3149 28.7821L28.6284 28.6776C29.5179 28.3811 30.4795 28.3811 31.369 28.6776L31.6825 28.7821C32.2064 28.9567 32.7727 28.6736 32.9474 28.1496C33.122 27.6257 32.8389 27.0594 32.3149 26.8847L32.0015 26.7802C30.7014 26.3469 29.2959 26.3469 27.9959 26.7802L27.6825 26.8847C27.1585 27.0594 26.8754 27.6257 27.05 28.1496C27.2247 28.6736 27.791 28.9567 28.3149 28.7821Z" fill="white"/>
<path d="M19.332 26.8334C19.8843 26.8334 20.332 27.2811 20.332 27.8334C20.332 33.1722 24.6599 37.5001 29.9987 37.5001C35.3375 37.5001 39.6654 33.1722 39.6654 27.8334C39.6654 27.2811 40.1131 26.8334 40.6654 26.8334C41.2176 26.8334 41.6654 27.2811 41.6654 27.8334C41.6654 33.9399 36.9739 38.9506 30.9987 39.4578V42.4374C31.2873 42.4754 31.5742 42.5299 31.8581 42.6008L32.9079 42.8633C33.4437 42.9972 33.7695 43.5402 33.6355 44.076C33.5016 44.6117 32.9586 44.9375 32.4228 44.8036L31.3731 44.5411C30.9219 44.4283 30.4603 44.3719 29.9987 44.3719C29.5371 44.3719 29.0755 44.4283 28.6243 44.5411L27.5746 44.8036C27.0388 44.9375 26.4958 44.6117 26.3619 44.076C26.2279 43.5402 26.5537 42.9972 27.0895 42.8633L28.1393 42.6008C28.4232 42.5299 28.7101 42.4754 28.9987 42.4374V39.4578C23.0235 38.9506 18.332 33.9399 18.332 27.8334C18.332 27.2811 18.7797 26.8334 19.332 26.8334Z" fill="white"/>
</svg>
