<svg width="15" height="18" viewBox="0 0 15 18" fill="none" xmlns="http://www.w3.org/2000/svg">
<path d="M4.19317 13.9998L4.5265 14.5713C6.0265 17.1427 9.0265 17.1427 10.5265 14.5713L10.8598 13.9998M1.01219 11.9578L1.09832 12.1354C1.65146 13.2757 2.80748 13.9998 4.0749 13.9998H10.9256C12.0117 13.9998 13.0225 13.445 13.6056 12.5287C14.4288 11.2353 14.2108 9.53856 13.0874 8.49528L13.0508 8.46131C12.2881 7.75297 11.9125 6.72103 12.0417 5.68816L12.0955 5.25738C12.4002 2.81966 10.4994 0.666504 8.04275 0.666504H6.62365C4.16996 0.666504 2.27151 2.81704 2.57585 5.25178L2.64198 5.78082C2.76377 6.75509 2.40789 7.72825 1.68631 8.39411C0.700715 9.30361 0.426887 10.7512 1.01219 11.9578Z" stroke="white" stroke-width="1.25" stroke-linecap="round"/>
</svg>
