<svg width="43" height="46" viewBox="0 0 43 46" fill="none" xmlns="http://www.w3.org/2000/svg">
<path d="M8.00003 29.0133H3.07421C1.83161 29.0133 0.5 28.3401 0.5 25.9677C0.5 24.7385 1.50738 23.7419 2.74998 23.7419H7.99993L8.00003 29.0133Z" fill="#FB4455"/>
<path d="M41 0H10.25C9.83576 0 9.5 0.332152 9.5 0.74193V42.2727H41.75V0.74193L41 0Z" fill="#FF5F7A"/>
<path d="M41.75 0H41V37.0968C41 39.5553 38.9853 41.5483 36.5 41.5483V43.0322H41.75C42.1642 43.0322 42.4999 42.6999 42.4999 42.2903V0.74193C42.4999 0.332152 42.1642 0 41.75 0Z" fill="#FB4455"/>
<path d="M31.25 2.96777H7.24999C6.83576 2.96777 6.5 3.29993 6.5 3.7097V40.136L7.21657 41.5508L6.5 43.0323V45.2581C6.5 45.6679 6.83576 46.0001 7.24999 46.0001H7.99999L9.4948 45.3271H38.8169V11.0018L31.25 2.96777Z" fill="#ECEAEC"/>
<path d="M32 43.0323H6.5V29.6775H32C32.8284 29.6775 33.4999 30.3419 33.4999 31.1613V41.5485C33.4999 42.3679 32.8283 43.0323 32 43.0323Z" fill="#DBD8DB"/>
<path d="M30.5 28.1936H2.74998C1.50738 28.1936 0.5 27.197 0.5 25.9678V39.3226C0.5 40.5518 1.50738 41.5484 2.74998 41.5484L4.37603 40.8003H31.3015V29.0524L30.5 28.1936Z" fill="#FF5F7A"/>
<path d="M39.0606 9.95241L32.4394 3.40235C32.158 3.1241 31.7766 2.96777 31.3787 2.96777H31.25V9.64523C31.25 10.4648 31.9216 11.1291 32.75 11.1291H37.2499C37.6642 11.1291 37.9999 11.4612 37.9999 11.871V40.0645C37.9999 42.5231 35.9852 44.5161 33.5 44.5161H9.49999C8.67152 44.5161 8 45.1805 8 46H38.75C39.1642 46 39.5 45.6678 39.5 45.258V11.0017C39.5 10.6081 39.3419 10.2307 39.0606 9.95241Z" fill="#DBD8DB"/>
<path d="M30.4999 28.1941V37.0973C30.4999 38.7364 29.1568 40.0651 27.5 40.0651H4.24999C3.42153 40.0651 2.75 40.7294 2.75 41.5489H30.4999C31.3284 41.5489 31.9999 40.8845 31.9999 40.0651V29.678C31.9999 28.8585 31.3283 28.1941 30.4999 28.1941Z" fill="#FB4455"/>
<path d="M5.992 37.0967H5.98392C5.56932 37.0967 5.23828 37.4289 5.23828 37.8386C5.23828 38.2483 5.5774 38.5805 5.99191 38.5805C6.40641 38.5805 6.7419 38.2483 6.7419 37.8386C6.7419 37.4289 6.4065 37.0967 5.992 37.0967Z" fill="#222222"/>
<path d="M10.768 31.1475H9.09374C8.67915 31.1475 8.34375 31.4797 8.34375 31.8894V37.8383C8.34375 38.248 8.67924 38.5802 9.09374 38.5802C9.50834 38.5802 9.84374 38.248 9.84374 37.8383V35.9923C10.1814 35.9905 10.553 35.9889 10.768 35.9889C12.1362 35.9889 13.2488 34.9027 13.2488 33.5681C13.2487 32.2335 12.1361 31.1475 10.768 31.1475ZM10.768 34.5049C10.613 34.5049 10.1917 34.5057 9.84374 34.5068V32.6312H10.768C11.2998 32.6312 11.7487 33.0601 11.7487 33.568C11.7487 34.0759 11.2997 34.5049 10.768 34.5049Z" fill="#222222"/>
<path d="M16.96 31.1531H15.2578C15.0586 31.1531 14.8675 31.2313 14.7268 31.3708C14.5862 31.5102 14.5071 31.6993 14.5078 31.8964L14.5203 37.8417C14.521 38.0384 14.6008 38.2267 14.7422 38.3656C14.8821 38.5032 15.0725 38.5807 15.2703 38.5807H15.2732C15.2732 38.5807 16.5345 38.5761 17.023 38.5677C18.827 38.5362 20.1365 36.9799 20.1365 34.8667C20.1365 32.6456 18.8598 31.1531 16.96 31.1531ZM16.9966 37.0838C16.7695 37.0878 16.3733 37.0911 16.0173 37.0933C16.0152 36.3908 16.0093 32.6369 16.0093 32.6369H16.96C18.1963 32.6369 18.6365 33.7886 18.6365 34.8668C18.6365 35.9561 18.1296 37.0643 16.9966 37.0838Z" fill="#222222"/>
<path d="M24.5703 34.0742H23.0703V32.6313H24.7644C25.179 32.6313 25.5144 32.2991 25.5144 31.8894C25.5144 31.4797 25.1789 31.1475 24.7644 31.1475H22.3203C21.9057 31.1475 21.5703 31.4797 21.5703 31.8894V37.8564C21.5703 38.2661 21.9058 38.5983 22.3203 38.5983C22.7348 38.5983 23.0703 38.2661 23.0703 37.8564V35.5581H24.5703C24.9849 35.5581 25.3203 35.2258 25.3203 34.8161C25.3203 34.4065 24.9849 34.0742 24.5703 34.0742Z" fill="#222222"/>
<path d="M27.3238 24.4409H18.5874C18.1853 24.4409 17.8594 24.1184 17.8594 23.7207V12.9177C17.8594 12.52 18.1853 12.1975 18.5874 12.1975H24.8381C25.0312 12.1975 25.2164 12.2734 25.3529 12.4085L27.8385 14.8674C27.975 15.0024 28.0518 15.1856 28.0518 15.3766V23.7207C28.0518 24.1184 27.7258 24.4409 27.3238 24.4409Z" fill="#DBD8DB"/>
<path d="M28.0542 15.3766C28.0542 15.1856 27.9775 15.0024 27.841 14.8674L25.3553 12.4085C25.2188 12.2734 25.0336 12.1975 24.8406 12.1975H24.4141V15.0783C24.4141 15.4761 24.74 15.7985 25.1421 15.7985H28.0542V15.3766Z" fill="#B8B2B8"/>
</svg>
