<svg width="43" height="46" viewBox="0 0 43 46" fill="none" xmlns="http://www.w3.org/2000/svg">
<path d="M8.14595 29.0131H3.27309C2.04385 29.0131 0.726562 28.3399 0.726562 25.9675C0.726562 24.7382 1.72311 23.7417 2.95235 23.7417H8.14586V29.0131H8.14595Z" fill="#FF744D"/>
<path d="M40.7902 0H10.3708C9.96106 0 9.62891 0.332152 9.62891 0.74193V42.2727H41.5322V0.74193L40.7902 0Z" fill="#FF8B57"/>
<path d="M41.5334 0H40.7914V37.0968C40.7914 39.5553 38.7984 41.5483 36.3398 41.5483V43.0322H41.5334C41.9431 43.0322 42.2753 42.6999 42.2753 42.2903V0.74193C42.2753 0.332152 41.9431 0 41.5334 0Z" fill="#FF744D"/>
<path d="M31.144 2.96753H7.40209C6.99231 2.96753 6.66016 3.29968 6.66016 3.70946V40.1358L7.36902 41.5506L6.66016 43.0321V45.2579C6.66016 45.6677 6.99231 45.9998 7.40209 45.9998H8.14402L9.62275 45.3269H38.6296V11.0015L31.144 2.96753Z" fill="#ECEAEC"/>
<path d="M31.8859 43.0323H6.66016V29.6775H31.8859C32.7055 29.6775 33.3698 30.3419 33.3698 31.1613V41.5485C33.3698 42.3679 32.7054 43.0323 31.8859 43.0323Z" fill="#DBD8DB"/>
<path d="M30.404 28.1933H2.95235C1.72311 28.1933 0.726562 27.1968 0.726562 25.9675V39.3224C0.726562 40.5516 1.72311 41.5481 2.95235 41.5481L4.56091 40.8001H31.1969V29.0521L30.404 28.1933Z" fill="#FF8B57"/>
<path d="M38.8712 9.95216L32.3211 3.4021C32.0428 3.12386 31.6654 2.96753 31.2718 2.96753H31.1445V9.64499C31.1445 10.4645 31.8089 11.1288 32.6284 11.1288H37.08C37.4897 11.1288 37.8219 11.461 37.8219 11.8708V40.0643C37.8219 42.5229 35.8288 44.5159 33.3703 44.5159H9.62839C8.80884 44.5159 8.14453 45.1803 8.14453 45.9997H38.5639C38.9737 45.9997 39.3058 45.6676 39.3058 45.2578V11.0014C39.3058 10.6078 39.1494 10.2304 38.8712 9.95216Z" fill="#DBD8DB"/>
<path d="M30.4047 28.1934V37.0966C30.4047 38.7356 29.076 40.0643 27.437 40.0643H4.43698C3.61743 40.0643 2.95312 40.7287 2.95312 41.5482H30.4047C31.2243 41.5482 31.8886 40.8838 31.8886 40.0643V29.6773C31.8886 28.8578 31.2242 28.1934 30.4047 28.1934Z" fill="#FF744D"/>
<path d="M23.7281 12.6694V17.0644C23.7281 17.4742 23.396 17.8063 22.9862 17.8063H18.5912C18.1452 17.8063 17.7887 18.1992 17.8508 18.6408C18.037 19.9643 18.6597 21.1475 19.5686 22.0405C19.5686 22.0405 21.6366 23.8613 24.8954 23.393C27.229 23.0576 28.6035 21.2082 29.1493 18.9146C30.0664 15.0607 26.3992 12.5043 26.3992 12.5043C25.833 12.2185 25.2148 12.0207 24.5626 11.9289C24.121 11.8668 23.7281 12.2234 23.7281 12.6694Z" fill="#FF8B57"/>
<path d="M16.3727 14.8385H20.0179C20.4277 14.8385 20.7598 14.5063 20.7598 14.0965V10.4513C20.7598 10.0019 20.3608 9.64055 19.9172 9.71287C17.7238 10.0707 15.9921 11.8025 15.6343 13.9958C15.5619 14.4394 15.9234 14.8385 16.3727 14.8385Z" fill="#FF8B57"/>
<path d="M4.82374 36.7715H4.81646C4.40632 36.7715 4.07812 37.1037 4.07812 37.5134C4.07812 37.9231 4.4136 38.2553 4.82365 38.2553C5.23378 38.2553 5.56558 37.9231 5.56558 37.5134C5.56558 37.1037 5.23387 36.7715 4.82374 36.7715Z" fill="#222222"/>
<path d="M28.3703 37.0866L26.6945 34.7044L28.1094 32.6958C28.3456 32.3611 28.2652 31.8981 27.9305 31.6623C27.5935 31.4261 27.132 31.5061 26.8965 31.8416L25.7878 33.4156L24.6808 31.842C24.4446 31.5072 23.9824 31.4257 23.6469 31.6619C23.3114 31.8978 23.231 32.3604 23.4665 32.6955L24.8797 34.7045L23.202 37.0862C22.9658 37.421 23.0462 37.884 23.381 38.1198C23.5114 38.2114 23.6599 38.2553 23.8077 38.2553C24.041 38.2553 24.2707 38.1458 24.4149 37.9405L25.7864 35.9935L27.1558 37.9401C27.3008 38.1455 27.5304 38.2553 27.7637 38.2553C27.9108 38.2553 28.06 38.2114 28.1898 38.1202C28.5253 37.8843 28.6057 37.4217 28.3703 37.0866Z" fill="#222222"/>
<path d="M21.4316 31.5266H18.5349C18.1248 31.5266 17.793 31.8589 17.793 32.2685C17.793 32.6782 18.1249 33.0105 18.5349 33.0105H19.2355V37.5132C19.2355 37.9229 19.5674 38.2551 19.9774 38.2551C20.3875 38.2551 20.7194 37.9229 20.7194 37.5132V33.0105H21.4316C21.8416 33.0105 22.1735 32.6782 22.1735 32.2685C22.1735 31.8589 21.8418 31.5266 21.4316 31.5266Z" fill="#222222"/>
<path d="M9.12345 31.5151H7.6599C7.24976 31.5151 6.91797 31.8474 6.91797 32.2571V37.5136C6.91797 37.9233 7.24985 38.2556 7.6599 38.2556C8.06995 38.2556 8.40183 37.9233 8.40183 37.5136V35.9682C8.67235 35.9668 8.95365 35.9656 9.12345 35.9656C10.3661 35.9656 11.3775 34.9676 11.3775 33.7406C11.3775 32.5136 10.3661 31.5151 9.12345 31.5151ZM9.12345 34.4818C9.01968 34.4818 8.69732 34.4821 8.40183 34.4829V32.999H9.12345C9.54078 32.999 9.89368 33.3384 9.89368 33.7406C9.89368 34.1423 9.54078 34.4818 9.12345 34.4818Z" fill="#222222"/>
<path d="M14.7602 31.5151H13.2966C12.8865 31.5151 12.5547 31.8474 12.5547 32.2571V37.5136C12.5547 37.9233 12.8866 38.2556 13.2966 38.2556C13.7067 38.2556 14.0385 37.9233 14.0385 37.5136V35.9682C14.3091 35.9668 14.5904 35.9656 14.7602 35.9656C16.0028 35.9656 17.0143 34.9676 17.0143 33.7406C17.0143 32.5136 16.0027 31.5151 14.7602 31.5151ZM14.7602 34.4818C14.6564 34.4818 14.334 34.4821 14.0385 34.4829V32.999H14.7602C15.1775 32.999 15.5304 33.3384 15.5304 33.7406C15.5303 34.1423 15.1775 34.4818 14.7602 34.4818Z" fill="#222222"/>
<path d="M26.397 12.5046C27.7519 13.8344 28.5076 15.8272 28.0952 17.9499C27.6455 20.2642 25.7806 22.1292 23.4663 22.5787C22.0525 22.8534 20.7021 22.6239 19.5664 22.0407C20.8947 23.3454 22.835 24.0306 24.9167 23.6261C27.231 23.1765 29.0959 21.3116 29.5455 18.9973C30.0876 16.207 28.6386 13.6547 26.397 12.5046Z" fill="#FF744D"/>
</svg>
