<svg width="36" height="42" viewBox="0 0 36 42" fill="none" xmlns="http://www.w3.org/2000/svg">
<path d="M15.5 24C15.5 22.6193 16.6193 21.5 18 21.5C19.3807 21.5 20.5 22.6193 20.5 24C20.5 25.3807 19.3807 26.5 18 26.5C16.6193 26.5 15.5 25.3807 15.5 24Z" fill="#F7F7F5"/>
<path fill-rule="evenodd" clip-rule="evenodd" d="M18 0.5C11.6487 0.5 6.5 5.64873 6.5 12V14.2274C6.5 14.361 6.51747 14.4906 6.55025 14.6139C3.67806 15.6693 1.43933 17.9864 0.489435 20.9098C0 22.4162 0 24.2774 0 28C0 31.7226 0 33.5838 0.489435 35.0902C1.47861 38.1345 3.86545 40.5214 6.90983 41.5106C8.41615 42 10.2774 42 14 42H22C25.7225 42 27.5839 42 29.0902 41.5106C32.1345 40.5214 34.5214 38.1345 35.5106 35.0902C36 33.5838 36 31.7226 36 28C36 24.2774 36 22.4162 35.5106 20.9098C34.5607 17.9864 32.3219 15.6693 29.4498 14.6139C29.4825 14.4906 29.5 14.361 29.5 14.2274V12C29.5 5.64873 24.3513 0.5 18 0.5ZM22 14C23.9306 14 25.3605 14 26.5 14.0683V12C26.5 7.30558 22.6944 3.5 18 3.5C13.3056 3.5 9.5 7.30558 9.5 12V14.0683C10.6395 14 12.0694 14 14 14H22ZM12.5 24C12.5 20.9624 14.9624 18.5 18 18.5C21.0376 18.5 23.5 20.9624 23.5 24C23.5 26.5176 21.8085 28.64 19.5 29.293V36C19.5 36.8284 18.8284 37.5 18 37.5C17.1716 37.5 16.5 36.8284 16.5 36V29.293C14.1915 28.64 12.5 26.5176 12.5 24Z" fill="#F7F7F5"/>
</svg>
