<svg width="46" height="46" viewBox="0 0 46 46" fill="none" xmlns="http://www.w3.org/2000/svg">
<g clip-path="url(#clip0_364_31476)">
<path d="M9.64595 29.0131H4.77309C3.54385 29.0131 2.22656 28.3399 2.22656 25.9675C2.22656 24.7382 3.22311 23.7417 4.45235 23.7417H9.64586V29.0131H9.64595Z" fill="#1BADDE"/>
<path d="M42.2902 0H11.8708C11.4611 0 11.1289 0.332152 11.1289 0.74193V42.2727H43.0322V0.74193L42.2902 0Z" fill="#4BC3EF"/>
<path d="M43.0334 0H42.2914V37.0968C42.2914 39.5553 40.2984 41.5483 37.8398 41.5483V43.0322H43.0334C43.4431 43.0322 43.7753 42.7 43.7753 42.2903V0.74193C43.7753 0.332152 43.4431 0 43.0334 0Z" fill="#1BADDE"/>
<path d="M32.644 2.96777H8.90209C8.49231 2.96777 8.16016 3.29993 8.16016 3.7097V40.136L8.86902 41.5508L8.16016 43.0323V45.2581C8.16016 45.6679 8.49231 46.0001 8.90209 46.0001H9.64402L11.1228 45.3271H40.1296V11.0018L32.644 2.96777Z" fill="#ECEAEC"/>
<path d="M33.3859 43.0323H8.16016V29.6775H33.3859C34.2055 29.6775 34.8698 30.3419 34.8698 31.1613V41.5485C34.8698 42.3679 34.2054 43.0323 33.3859 43.0323Z" fill="#DBD8DB"/>
<path d="M31.904 28.1936H4.45235C3.22311 28.1936 2.22656 27.197 2.22656 25.9678V39.3226C2.22656 40.5518 3.22311 41.5484 4.45235 41.5484L6.06091 40.8003H32.6969V29.0524L31.904 28.1936Z" fill="#4BC3EF"/>
<path d="M40.3712 9.95241L33.8211 3.40235C33.5428 3.1241 33.1654 2.96777 32.7718 2.96777H32.6445V9.64523C32.6445 10.4648 33.3089 11.1291 34.1284 11.1291H38.58C38.9897 11.1291 39.3219 11.4612 39.3219 11.871V40.0645C39.3219 42.5231 37.3288 44.5161 34.8703 44.5161H11.1284C10.3088 44.5161 9.64453 45.1805 9.64453 46H40.0639C40.4737 46 40.8058 45.6678 40.8058 45.258V11.0017C40.8058 10.6081 40.6494 10.2307 40.3712 9.95241Z" fill="#DBD8DB"/>
<path d="M31.9047 28.1936V37.0969C31.9047 38.7359 30.576 40.0646 28.937 40.0646H5.93698C5.11743 40.0646 4.45312 40.729 4.45312 41.5484H31.9047C32.7243 41.5484 33.3886 40.884 33.3886 40.0646V29.6776C33.3886 28.858 32.7242 28.1936 31.9047 28.1936Z" fill="#1BADDE"/>
<path d="M23.6226 16.0757L23.2422 17.7318L27.5353 21.6569L28.2473 20.759L23.6226 16.0757Z" fill="#DBD8DB"/>
<path d="M25.1517 15.8225L23.8828 16.6337L28.0266 21.1659L29.0769 20.1155L25.1517 15.8225Z" fill="#C9C5C9"/>
<path d="M29.4482 20.6127C28.9015 20.0287 28.0139 19.8955 27.4535 20.5421C27.0509 21.1768 27.1264 22.0275 27.6801 22.5811C28.243 23.1442 29.0791 23.4341 29.7909 23.5833L30.2824 23.1299C30.2824 23.1299 30.0958 21.3046 29.4482 20.6127Z" fill="#4BC3EF"/>
<path d="M8.06202 37.0969H8.05402C7.64389 37.0969 7.31641 37.4292 7.31641 37.8389C7.31641 38.2485 7.65188 38.5808 8.06193 38.5808C8.47198 38.5808 8.80386 38.2485 8.80386 37.8389C8.80386 37.4292 8.47207 37.0969 8.06202 37.0969Z" fill="#222222"/>
<path d="M19.8116 34.2152C19.0798 33.9453 18.3995 33.6516 18.1916 33.5606C18.0285 33.4298 18.0336 33.2476 18.0452 33.1719C18.0597 33.0665 18.1365 32.8089 18.519 32.6936C19.3588 32.4407 20.1348 33.0537 20.1572 33.0722C20.4717 33.3327 20.9361 33.2907 21.1992 32.9788C21.4629 32.6651 21.4223 32.197 21.1086 31.9333C21.0528 31.8866 19.7167 30.7842 18.0916 31.2729C17.2707 31.5203 16.6895 32.167 16.5758 32.9614C16.4693 33.7062 16.7924 34.4224 17.4192 34.831C17.4518 34.8524 17.4865 34.8709 17.522 34.8868C17.5561 34.9024 18.3748 35.2669 19.2979 35.607C19.5587 35.7034 20.158 35.9755 20.079 36.4188C20.0196 36.7522 19.6139 37.0966 19.0378 37.0966C18.4458 37.0966 17.8771 36.8583 17.5148 36.4586C17.2394 36.154 16.7692 36.1322 16.4664 36.4068C16.1628 36.6822 16.1396 37.1512 16.4149 37.4548C17.054 38.1598 18.0342 38.5804 19.0378 38.5804C20.2906 38.5804 21.3426 37.7809 21.5397 36.6796C21.6875 35.8508 21.3115 34.7684 19.8116 34.2152Z" fill="#222222"/>
<path d="M12.7849 31.1479H11.1286C10.7185 31.1479 10.3867 31.4802 10.3867 31.8899V37.8388C10.3867 38.2485 10.7186 38.5807 11.1286 38.5807C11.5388 38.5807 11.8706 38.2485 11.8706 37.8388V35.9928C12.2046 35.991 12.5723 35.9894 12.7849 35.9894C14.1384 35.9894 15.239 34.9032 15.239 33.5686C15.239 32.234 14.1384 31.1479 12.7849 31.1479ZM12.7849 34.5054C12.6658 34.5054 12.2608 34.5102 11.8706 34.5146V32.6391L12.7849 32.6317C13.311 32.6317 13.7551 33.0606 13.7551 33.5685C13.7551 34.0764 13.311 34.5054 12.7849 34.5054Z" fill="#222222"/>
<path d="M25.4628 31.1479H23.7732C23.5761 31.1479 23.387 31.2262 23.2479 31.3656C23.1088 31.5051 23.0305 31.6942 23.0313 31.8913L23.0356 34.867C23.0356 35.6966 23.0428 37.8597 23.0428 37.8597C23.0436 38.0565 23.1225 38.2452 23.2624 38.3836C23.4008 38.5216 23.5892 38.5991 23.7849 38.5991H23.7877C23.7877 38.5991 25.0405 38.5945 25.5259 38.5861C27.3155 38.5546 28.6147 36.9932 28.6147 34.8735C28.6146 32.6452 27.3481 31.1479 25.4628 31.1479ZM25.4998 37.1023C25.2738 37.1062 24.8789 37.1095 24.5245 37.1117C24.5224 36.4063 24.5195 35.3808 24.5195 34.867L24.5159 32.6318H25.4629C26.6924 32.6318 27.1308 33.79 27.1308 34.8736C27.1307 35.9687 26.6264 37.0827 25.4998 37.1023Z" fill="#222222"/>
<path d="M20.9308 12.0071L18.0095 10.2146C17.939 10.2658 17.8715 10.3233 17.8078 10.3869C17.1318 11.063 17.1565 12.1665 17.8621 12.8115L23.2433 17.7316L24.1023 16.8727L20.9308 12.0071Z" fill="#C9C5C9"/>
<path d="M18.0078 10.2148L24.1006 16.8729L25.1508 15.8226L20.2307 10.4414C19.6478 9.80363 18.6858 9.72546 18.0078 10.2148Z" fill="#B8B2B8"/>
<path d="M31.0843 22.8265C30.9738 22.0698 30.7064 21.0107 30.0587 20.3188C29.512 19.7348 28.5768 19.6056 27.9187 20.0604C27.7126 20.2028 27.5707 20.3467 27.4531 20.542C27.9406 20.5155 28.4243 20.7356 28.7695 21.1044C29.4079 21.7863 29.6771 22.829 29.7905 23.5833C29.947 23.616 30.1035 23.6431 30.2437 23.6636C30.7338 23.7353 31.1559 23.3166 31.0843 22.8265Z" fill="#1BADDE"/>
</g>
<defs>
<clipPath id="clip0_364_31476">
<rect width="46" height="46" fill="white"/>
</clipPath>
</defs>
</svg>
