<svg width="16" height="16" viewBox="0 0 16 16" fill="none" xmlns="http://www.w3.org/2000/svg">
<path d="M5.99164 3.70138C6.26438 3.65819 6.45047 3.40207 6.40727 3.12932C6.36407 2.85658 6.10795 2.6705 5.83521 2.7137C4.19495 2.97349 2.90852 4.25991 2.64873 5.90017C2.60554 6.17291 2.79162 6.42903 3.06436 6.47223C3.3371 6.51543 3.59322 6.32935 3.63642 6.0566C3.82844 4.84424 4.77928 3.8934 5.99164 3.70138Z" fill="white"/>
<path fill-rule="evenodd" clip-rule="evenodd" d="M7.10156 0.666504C3.51171 0.666504 0.601562 3.57665 0.601562 7.1665C0.601562 10.7564 3.51171 13.6665 7.10156 13.6665C10.6914 13.6665 13.6016 10.7564 13.6016 7.1665C13.6016 3.57665 10.6914 0.666504 7.10156 0.666504ZM1.60156 7.1665C1.60156 4.12894 4.064 1.6665 7.10156 1.6665C10.1391 1.6665 12.6016 4.12894 12.6016 7.1665C12.6016 10.2041 10.1391 12.6665 7.10156 12.6665C4.064 12.6665 1.60156 10.2041 1.60156 7.1665Z" fill="white"/>
<path d="M12.7885 12.1463C12.5932 11.9511 12.2767 11.9511 12.0814 12.1463C11.8861 12.3416 11.8861 12.6582 12.0814 12.8534L14.748 15.5201C14.9432 15.7153 15.2598 15.7153 15.4551 15.5201C15.6504 15.3248 15.6504 15.0082 15.4551 14.813L12.7885 12.1463Z" fill="white"/>
</svg>
