<svg width="40" height="41" viewBox="0 0 40 41" fill="none" xmlns="http://www.w3.org/2000/svg">
<rect y="0.5" width="40" height="40" rx="20" fill="#5DE85B"/>
<path d="M20.4082 11.2759C20.1371 11.2414 19.8629 11.2414 19.5918 11.2759C18.9737 11.3547 18.4588 11.6496 17.9515 12.0571C17.4636 12.4489 16.916 13.0013 16.2461 13.6773L14.4673 15.472C14.1757 15.7662 14.1778 16.2411 14.472 16.5327C14.7662 16.8243 15.2411 16.8222 15.5327 16.528L17.28 14.765C17.9891 14.0495 18.4772 13.5587 18.8907 13.2266C19.0251 13.1187 19.1434 13.0345 19.25 12.9691L19.25 28C19.25 28.4142 19.5858 28.75 20 28.75C20.4142 28.75 20.75 28.4142 20.75 28L20.75 12.9691C20.8566 13.0345 20.9749 13.1187 21.1093 13.2266C21.5228 13.5587 22.0109 14.0495 22.72 14.765L24.4673 16.528C24.7589 16.8222 25.2338 16.8243 25.528 16.5327C25.8222 16.2411 25.8243 15.7662 25.5327 15.472L23.7539 13.6773C23.084 13.0013 22.5364 12.4489 22.0485 12.0571C21.5412 11.6496 21.0263 11.3547 20.4082 11.2759Z" fill="white"/>
</svg>
