<svg width="60" height="61" viewBox="0 0 60 61" fill="none" xmlns="http://www.w3.org/2000/svg">
<rect y="0.5" width="60" height="60" rx="30" fill="#5DE85B" fill-opacity="0.3"/>
<path fill-rule="evenodd" clip-rule="evenodd" d="M19.2732 21.2481C18 23.0005 18 25.5004 18 30.5C18 35.4996 18 37.9995 19.2732 39.7519C19.6844 40.3179 20.1821 40.8156 20.7481 41.2268C22.5005 42.5 25.0004 42.5 30 42.5C34.9996 42.5 37.4995 42.5 39.2519 41.2268C39.8179 40.8156 40.3156 40.3179 40.7268 39.7519C42 37.9995 42 35.4996 42 30.5C42 25.5004 42 23.0005 40.7268 21.2481C40.3156 20.6821 39.8179 20.1844 39.2519 19.7732C37.4995 18.5 34.9996 18.5 30 18.5C25.0004 18.5 22.5005 18.5 20.7481 19.7732C20.1821 20.1844 19.6844 20.6821 19.2732 21.2481ZM27.6897 25.0716C28.2449 24.6257 28.8284 24.2865 29.5393 24.1959C29.6923 24.1764 29.8461 24.1667 30 24.1667C30.1539 24.1667 30.3077 24.1764 30.4607 24.1959C31.1716 24.2865 31.7551 24.6257 32.3103 25.0716C32.8397 25.4967 33.4306 26.0929 34.1391 26.8078L36.0436 28.7294C36.4324 29.1217 36.4295 29.7548 36.0373 30.1436C35.645 30.5324 35.0119 30.5295 34.6231 30.1373L32.7593 28.2568C31.9996 27.4902 31.4882 26.9764 31.058 26.631C31.0383 26.6151 31.019 26.5998 31 26.5851V35.8333C31 36.3856 30.5523 36.8333 30 36.8333C29.4477 36.8333 29 36.3856 29 35.8333V26.5851C28.981 26.5998 28.9617 26.6151 28.942 26.631C28.5118 26.9764 28.0004 27.4902 27.2407 28.2568L25.3769 30.1373C24.9881 30.5295 24.355 30.5324 23.9627 30.1436C23.5705 29.7548 23.5676 29.1217 23.9564 28.7294L25.8609 26.8079C26.5694 26.093 27.1603 25.4967 27.6897 25.0716Z" fill="#5DE85B"/>
</svg>
