<svg width="21" height="20" viewBox="0 0 21 20" fill="none" xmlns="http://www.w3.org/2000/svg">
<path d="M5.31473 4.4886L5.16277 5.09485L5.31473 4.4886ZM8.12686 2.86502L7.52586 2.6935L8.12686 2.86502ZM3.07014 8.37635L3.51918 7.94162L3.07014 8.37635ZM3.07014 11.6235L2.6211 11.1888H2.6211L3.07014 11.6235ZM5.31473 15.5113L5.4667 16.1175L5.31473 15.5113ZM8.12686 17.1348L7.52586 17.3064L8.12686 17.1348ZM12.616 17.1348L13.2171 17.3064L12.616 17.1348ZM15.4282 15.5113L15.5801 14.905L15.4282 15.5113ZM17.6728 11.6235L17.2237 12.0582L17.6728 11.6235ZM17.6728 8.37635L17.2237 7.94162L17.6728 8.37635ZM15.4282 4.4886L15.2762 3.88236L15.4282 4.4886ZM12.616 2.86502L13.2171 2.6935L12.616 2.86502ZM5.16277 5.09485C6.71186 5.48315 8.2896 4.57224 8.72787 3.03654L7.52586 2.6935C7.27272 3.5805 6.36143 4.10664 5.4667 3.88236L5.16277 5.09485ZM3.51918 7.94162C2.32313 6.70618 3.49482 4.67676 5.16277 5.09485L5.4667 3.88236C2.57892 3.1585 0.550333 6.67212 2.6211 8.81107L3.51918 7.94162ZM3.51918 12.0582C4.63 10.9108 4.63 9.08902 3.51918 7.94162L2.6211 8.81107C3.2627 9.4738 3.2627 10.5261 2.6211 11.1888L3.51918 12.0582ZM5.16277 14.905C3.49482 15.3231 2.32313 13.2937 3.51918 12.0582L2.6211 11.1888C0.550332 13.3278 2.57892 16.8414 5.4667 16.1175L5.16277 14.905ZM8.72787 16.9633C8.2896 15.4276 6.71186 14.5167 5.16277 14.905L5.4667 16.1175C6.36143 15.8932 7.27272 16.4194 7.52586 17.3064L8.72787 16.9633ZM12.015 16.9633C11.5431 18.6169 9.19977 18.6169 8.72787 16.9633L7.52586 17.3064C8.34287 20.1692 12.4 20.1692 13.2171 17.3064L12.015 16.9633ZM15.5801 14.905C14.0311 14.5167 12.4533 15.4276 12.015 16.9633L13.2171 17.3064C13.4702 16.4194 14.3815 15.8932 15.2762 16.1175L15.5801 14.905ZM17.2237 12.0582C18.4198 13.2937 17.2481 15.3231 15.5801 14.905L15.2762 16.1175C18.164 16.8414 20.1926 13.3278 18.1218 11.1888L17.2237 12.0582ZM17.2237 7.94162C16.1129 9.08902 16.1129 10.9108 17.2237 12.0582L18.1218 11.1888C17.4802 10.5261 17.4802 9.4738 18.1218 8.81107L17.2237 7.94162ZM15.5801 5.09485C17.2481 4.67676 18.4198 6.70618 17.2237 7.94162L18.1218 8.81107C20.1926 6.67212 18.164 3.1585 15.2762 3.88236L15.5801 5.09485ZM12.015 3.03654C12.4533 4.57224 14.0311 5.48315 15.5801 5.09485L15.2762 3.88236C14.3815 4.10664 13.4702 3.5805 13.2171 2.6935L12.015 3.03654ZM13.2171 2.6935C12.4 -0.169318 8.34287 -0.169317 7.52586 2.6935L8.72787 3.03654C9.19976 1.383 11.5431 1.383 12.015 3.03654L13.2171 2.6935ZM7.24645 9.99993C7.24645 11.7258 8.64556 13.1249 10.3715 13.1249V11.8749C9.33592 11.8749 8.49645 11.0355 8.49645 9.99993H7.24645ZM10.3715 13.1249C12.0973 13.1249 13.4965 11.7258 13.4965 9.99993H12.2465C12.2465 11.0355 11.407 11.8749 10.3715 11.8749V13.1249ZM13.4965 9.99993C13.4965 8.27404 12.0973 6.87493 10.3715 6.87493V8.12493C11.407 8.12493 12.2465 8.9644 12.2465 9.99993H13.4965ZM10.3715 6.87493C8.64556 6.87493 7.24645 8.27404 7.24645 9.99993H8.49645C8.49645 8.9644 9.33592 8.12493 10.3715 8.12493V6.87493Z" fill="white"/>
</svg>
