<svg width="24" height="24" viewBox="0 0 24 24" fill="none" xmlns="http://www.w3.org/2000/svg">
<path d="M16.1645 4.27559C14.8538 0.241469 9.14656 0.241469 7.83579 4.27559C7.45041 5.46167 6.34513 6.26471 5.09801 6.26471C0.856281 6.26471 -0.907344 11.6926 2.52429 14.1858C3.53323 14.9188 3.95541 16.2182 3.57003 17.4043C2.25926 21.4384 6.87649 24.793 10.3081 22.2998C11.3171 21.5667 12.6833 21.5667 13.6922 22.2998C17.1238 24.793 21.7411 21.4384 20.4303 17.4043C20.0449 16.2182 20.4671 14.9188 21.476 14.1858C24.9077 11.6926 23.144 6.26471 18.9023 6.26471C17.6552 6.26471 16.5499 5.46167 16.1645 4.27559Z" fill="#E88F1B"/>
</svg>
