<svg width="16" height="16" viewBox="0 0 16 16" fill="none" xmlns="http://www.w3.org/2000/svg">
<path d="M10 5.33333H10.0067M8.33333 14H4C3.46957 14 2.96086 13.7893 2.58579 13.4142C2.21071 13.0391 2 12.5304 2 12V4C2 3.46957 2.21071 2.96086 2.58579 2.58579C2.96086 2.21071 3.46957 2 4 2H12C12.5304 2 13.0391 2.21071 13.4142 2.58579C13.7893 2.96086 14 3.46957 14 4V8.33333" stroke="#9F9F9F" stroke-linecap="round" stroke-linejoin="round"/>
<path d="M2 10.6666L5.33333 7.33322C5.952 6.73789 6.71467 6.73789 7.33333 7.33322L10 9.99989" stroke="#9F9F9F" stroke-linecap="round" stroke-linejoin="round"/>
<path d="M9.33203 9.33331L9.9987 8.66664C10.4454 8.23731 10.9654 8.11731 11.4534 8.30664M10.6654 12.6666H14.6654M12.6654 10.6666V14.6666" stroke="#9F9F9F" stroke-linecap="round" stroke-linejoin="round"/>
</svg>
