<svg width="16" height="16" viewBox="0 0 16 16" fill="none" xmlns="http://www.w3.org/2000/svg">
<g clip-path="url(#clip0_1734_86136)">
<path d="M2.02063 2.7576V5.06938H2.59354V2H2.13618L1.34182 2.61833L1.56809 3.08626L2.02063 2.7576Z" fill="#9F9F9F"/>
<path d="M2.07359 6.88538C2.1232 6.88003 2.17323 6.88647 2.22062 6.90429C2.268 6.92211 2.31174 6.95094 2.34916 6.98902C2.38657 7.02709 2.41687 7.07361 2.4382 7.12571C2.45952 7.17782 2.47143 7.23441 2.47318 7.29203C2.47318 7.50371 2.37208 7.70425 2.05433 7.99949L1.09147 8.87407V9.43112H3.08459V8.81279H1.95805L2.43948 8.38386C2.92091 7.99392 3.05571 7.6764 3.05571 7.26975C3.05164 7.13083 3.02306 6.99434 2.97173 6.86868C2.9204 6.74301 2.8474 6.63082 2.75722 6.53899C2.66704 6.44717 2.56158 6.37765 2.44733 6.33472C2.33308 6.29178 2.21245 6.27634 2.09285 6.28933C1.89221 6.28798 1.69416 6.34183 1.51504 6.44643C1.33591 6.55103 1.18083 6.70339 1.06259 6.89095L1.42847 7.2976C1.50198 7.17682 1.59825 7.07696 1.71001 7.00554C1.82177 6.93413 1.94609 6.89304 2.07359 6.88538Z" fill="#9F9F9F"/>
<path d="M2.55021 12.3557C2.68687 12.3162 2.80831 12.2252 2.89546 12.0972C2.9826 11.9691 3.0305 11.8112 3.03164 11.6482C3.03164 11.1636 2.65612 10.8071 2.06878 10.8071C1.87451 10.8031 1.6821 10.8514 1.50668 10.9481C1.33126 11.0447 1.1776 11.1871 1.05777 11.3641L1.38996 11.7652C1.46684 11.6583 1.56229 11.5713 1.67012 11.5099C1.77794 11.4485 1.89572 11.414 2.01582 11.4087C2.27579 11.4087 2.45873 11.5535 2.45873 11.7763C2.45873 11.9992 2.28542 12.1217 1.9773 12.1217H1.69807V12.6788H2.00619C2.36245 12.6788 2.52132 12.7957 2.52132 13.0297C2.52132 13.2637 2.35282 13.4085 2.03989 13.4085C1.90751 13.4073 1.77677 13.3745 1.65583 13.3122C1.53489 13.2499 1.42636 13.1594 1.337 13.0464L1 13.4809C1.13417 13.6515 1.29886 13.7862 1.48261 13.8757C1.66635 13.9652 1.86474 14.0072 2.06396 13.999C2.68501 13.999 3.08941 13.6146 3.08941 13.0854C3.08903 12.9095 3.03457 12.7395 2.93579 12.6058C2.837 12.4721 2.70032 12.3834 2.55021 12.3557Z" fill="#9F9F9F"/>
<path d="M15 3.64331C15 3.49557 14.9493 3.35388 14.859 3.24942C14.7687 3.14495 14.6463 3.08626 14.5186 3.08626H4.68776C4.42187 3.08626 4.20633 3.33566 4.20633 3.64331C4.20633 3.95097 4.42187 4.20037 4.68776 4.20037H9.60316H14.5186C14.6463 4.20037 14.7687 4.14168 14.859 4.03721C14.9493 3.93274 15 3.79105 15 3.64331Z" fill="#9F9F9F"/>
<path d="M14.5186 7.5427H4.68776C4.42187 7.5427 4.20633 7.79211 4.20633 8.09976C4.20633 8.40741 4.42187 8.65682 4.68776 8.65682H14.5186C14.6463 8.65682 14.7687 8.59813 14.859 8.49366C14.9493 8.38919 15 8.2475 15 8.09976C15 7.95202 14.9493 7.81033 14.859 7.70586C14.7687 7.60139 14.6463 7.5427 14.5186 7.5427Z" fill="#9F9F9F"/>
<path d="M14.5186 11.9992H4.68776C4.42187 11.9992 4.20633 12.2486 4.20633 12.5562C4.20633 12.8639 4.42187 13.1133 4.68776 13.1133H14.5186C14.6463 13.1133 14.7687 13.0546 14.859 12.9501C14.9493 12.8456 15 12.7039 15 12.5562C15 12.4085 14.9493 12.2668 14.859 12.1623C14.7687 12.0578 14.6463 11.9992 14.5186 11.9992Z" fill="#9F9F9F"/>
</g>
<defs>
<clipPath id="clip0_1734_86136">
<rect width="16" height="16" fill="white"/>
</clipPath>
</defs>
</svg>
