<svg width="16" height="16" viewBox="0 0 16 16" fill="none" xmlns="http://www.w3.org/2000/svg">
<path d="M3 12.6665C3 13.0855 3.34285 13.4284 3.76189 13.4284H12.9046C13.3237 13.4284 13.6665 13.0855 13.6665 12.6665C13.6665 12.2475 13.3237 11.9046 12.9046 11.9046H3.76189C3.34285 11.9046 3 12.2475 3 12.6665ZM6.42852 8.70466H10.238L10.7408 9.92369C10.8551 10.198 11.1218 10.3808 11.4189 10.3808C11.9446 10.3808 12.2951 9.83988 12.0894 9.35989L9.13324 2.52571C8.9961 2.20571 8.68372 2 8.33325 2C7.98278 2 7.6704 2.20571 7.53326 2.52571L4.57712 9.35989C4.37141 9.83988 4.7295 10.3808 5.2552 10.3808C5.55234 10.3808 5.81901 10.198 5.93329 9.92369L6.42852 8.70466ZM8.33325 3.50855L9.75799 7.33325H6.90851L8.33325 3.50855Z" fill="#9F9F9F"/>
</svg>
