<svg width="16" height="16" viewBox="0 0 16 16" fill="none" xmlns="http://www.w3.org/2000/svg">
<path d="M8.5026 5.33337C8.5026 5.05723 8.27875 4.83337 8.0026 4.83337C7.72646 4.83337 7.5026 5.05723 7.5026 5.33337L8.5026 5.33337ZM10.0026 9.16671C10.2787 9.16671 10.5026 8.94285 10.5026 8.66671C10.5026 8.39057 10.2787 8.16671 10.0026 8.16671V9.16671ZM1.69026 1.77627C1.47463 1.94878 1.43967 2.26342 1.61217 2.47905C1.78467 2.69469 2.09932 2.72965 2.31495 2.55714L1.69026 1.77627ZM3.98162 1.22381C4.19725 1.0513 4.23221 0.736657 4.05971 0.521026C3.8872 0.305396 3.57255 0.270435 3.35692 0.44294L3.98162 1.22381ZM13.6903 2.55714C13.9059 2.72965 14.2205 2.69469 14.393 2.47905C14.5655 2.26342 14.5306 1.94878 14.315 1.77627L13.6903 2.55714ZM12.6483 0.44294C12.4327 0.270435 12.118 0.305396 11.9455 0.521026C11.773 0.736657 11.808 1.0513 12.0236 1.22381L12.6483 0.44294ZM8.0026 7.66671L7.5026 7.66671L8.0026 7.66671ZM7.5026 5.33337L7.5026 7.66671L8.5026 7.66671L8.5026 5.33337L7.5026 5.33337ZM14.1693 8.00004C14.1693 11.4058 11.4084 14.1667 8.0026 14.1667V15.1667C11.9606 15.1667 15.1693 11.9581 15.1693 8.00004H14.1693ZM8.0026 14.1667C4.59685 14.1667 1.83594 11.4058 1.83594 8.00004H0.835938C0.835938 11.9581 4.04456 15.1667 8.0026 15.1667V14.1667ZM1.83594 8.00004C1.83594 4.59428 4.59685 1.83337 8.0026 1.83337V0.833374C4.04456 0.833374 0.835938 4.042 0.835938 8.00004H1.83594ZM8.0026 1.83337C11.4084 1.83337 14.1693 4.59428 14.1693 8.00004H15.1693C15.1693 4.042 11.9606 0.833374 8.0026 0.833374V1.83337ZM2.31495 2.55714L3.98162 1.22381L3.35692 0.44294L1.69026 1.77627L2.31495 2.55714ZM14.315 1.77627L12.6483 0.44294L12.0236 1.22381L13.6903 2.55714L14.315 1.77627ZM9.0026 9.16671H10.0026V8.16671H9.0026V9.16671ZM7.5026 7.66671C7.5026 8.49514 8.17418 9.16671 9.0026 9.16671V8.16671C8.72646 8.16671 8.5026 7.94285 8.5026 7.66671L7.5026 7.66671Z" fill="#9F9F9F"/>
</svg>
