<svg width="12" height="16" viewBox="0 0 12 16" fill="none" xmlns="http://www.w3.org/2000/svg">
<path d="M3.64551 5.59638L3.64417 5.59705L3.64217 5.59838L3.64551 5.59638ZM10.2815 5.47171C10.2353 5.42679 10.1838 5.38762 10.1282 5.35505C10.0496 5.30879 9.9624 5.27914 9.87192 5.26793C9.78145 5.25672 9.68963 5.26419 9.60215 5.28987C9.51468 5.31555 9.4334 5.3589 9.36334 5.41724C9.29328 5.47558 9.23594 5.54767 9.19484 5.62905C8.96497 6.08149 8.64828 6.48426 8.26284 6.81438C8.32185 6.48206 8.35174 6.14523 8.35217 5.80771C8.35372 4.78108 8.08305 3.7724 7.56776 2.88445C7.05247 1.99651 6.31097 1.26106 5.41884 0.753047C5.32055 0.697199 5.20967 0.667264 5.09663 0.666054C4.98359 0.664844 4.8721 0.6924 4.77263 0.746131C4.67317 0.799863 4.58901 0.878004 4.52805 0.97321C4.46709 1.06842 4.43135 1.17756 4.42417 1.29038C4.38673 1.92242 4.22144 2.54029 3.93828 3.1066C3.65513 3.67291 3.26001 4.17587 2.77684 4.58505L2.62351 4.70971C2.11782 5.04976 1.6703 5.46914 1.29817 5.95171C0.719692 6.68046 0.318968 7.53396 0.127786 8.44454C-0.0633965 9.35513 -0.0397773 10.2977 0.19677 11.1976C0.433317 12.0975 0.876285 12.9298 1.49054 13.6287C2.10479 14.3275 2.87344 14.8736 3.73551 15.2237C3.83672 15.2649 3.94651 15.2806 4.05521 15.2694C4.16391 15.2582 4.26818 15.2204 4.35886 15.1594C4.44954 15.0985 4.52384 15.0161 4.57522 14.9197C4.6266 14.8232 4.65348 14.7157 4.65351 14.6064C4.65349 14.5357 4.64224 14.4655 4.62017 14.3984C4.47137 13.8377 4.42842 13.2542 4.49351 12.6777C5.12432 13.8676 6.13709 14.8106 7.36884 15.355C7.51916 15.422 7.68894 15.4311 7.84551 15.3804C8.81849 15.0663 9.69501 14.5086 10.3918 13.7604C11.0886 13.0122 11.5825 12.0982 11.8265 11.1053C12.0706 10.1125 12.0568 9.07368 11.7864 8.08766C11.516 7.10165 10.9979 6.20115 10.2815 5.47171ZM7.67817 14.0257C7.09694 13.7314 6.58419 13.318 6.17333 12.8123C5.76246 12.3067 5.46268 11.7202 5.29351 11.091C5.24186 10.8792 5.2018 10.6646 5.17351 10.4484C5.15454 10.3107 5.09299 10.1823 4.99748 10.0813C4.90197 9.98031 4.77728 9.91169 4.64084 9.88505C4.59888 9.87697 4.55624 9.87296 4.51351 9.87305C4.39637 9.87293 4.28128 9.90368 4.17981 9.9622C4.07834 10.0207 3.99408 10.1049 3.93551 10.2064C3.38251 11.1606 3.10446 12.2492 3.13217 13.3517C2.64561 12.9735 2.23896 12.5025 1.93579 11.966C1.63261 11.4294 1.43895 10.8381 1.36602 10.2261C1.2931 9.61421 1.34236 8.99389 1.51095 8.40114C1.67955 7.80839 1.96412 7.255 2.34817 6.77305C2.64019 6.39464 2.99191 6.06633 3.38951 5.80105C3.40673 5.78961 3.42342 5.77737 3.43951 5.76438C3.43951 5.76438 3.63684 5.60105 3.64351 5.59771C4.59357 4.79435 5.2694 3.71466 5.57684 2.50905C6.30313 3.18062 6.78735 4.07322 6.95431 5.04822C7.12127 6.02323 6.96163 7.02608 6.50017 7.90105C6.43911 8.01783 6.41402 8.1501 6.42809 8.28113C6.44216 8.41217 6.49475 8.5361 6.57921 8.63726C6.66368 8.73842 6.77624 8.81227 6.90266 8.84949C7.02908 8.88672 7.1637 8.88563 7.28951 8.84638C8.31059 8.52597 9.20908 7.90061 9.86417 7.05438C10.258 7.63587 10.5155 8.29874 10.6174 8.99358C10.7194 9.68843 10.6632 10.3973 10.4531 11.0674C10.243 11.7376 9.8843 12.3516 9.40383 12.8638C8.92337 13.376 8.33349 13.7732 7.67817 14.0257Z" fill="#34C759"/>
</svg>
