<svg width="10" height="16" viewBox="0 0 10 16" fill="none" xmlns="http://www.w3.org/2000/svg">
<path d="M4.24957 14.7556C4.24957 15.1698 4.58535 15.5056 4.99957 15.5056C5.41378 15.5056 5.74957 15.1698 5.74957 14.7556L4.24957 14.7556ZM5.74957 1.24445C5.74957 0.830232 5.41378 0.494445 4.99957 0.494445C4.58535 0.494445 4.24957 0.830232 4.24957 1.24445L5.74957 1.24445ZM0.244653 4.09426C-0.0469307 4.38846 -0.0448121 4.86333 0.249385 5.15491C0.543582 5.4465 1.01845 5.44438 1.31003 5.15018L0.244653 4.09426ZM2.25285 3.13349L1.72016 2.60553L2.25285 3.13349ZM7.74628 3.13349L7.21359 3.66145L7.21359 3.66145L7.74628 3.13349ZM8.6891 5.15018C8.98068 5.44438 9.45555 5.4465 9.74975 5.15491C10.0439 4.86333 10.0461 4.38846 9.75448 4.09426L8.6891 5.15018ZM4.73497 1.26124L4.64015 0.51726L4.64014 0.51726L4.73497 1.26124ZM5.26416 1.26124L5.35899 0.51726L5.35899 0.51726L5.26416 1.26124ZM5.74957 14.7556L5.74957 1.24445L4.24957 1.24445L4.24957 14.7556L5.74957 14.7556ZM1.31003 5.15018L2.78554 3.66145L1.72016 2.60553L0.244653 4.09426L1.31003 5.15018ZM7.21359 3.66145L8.6891 5.15018L9.75448 4.09426L8.27897 2.60553L7.21359 3.66145ZM2.78554 3.66145C3.3863 3.05531 3.79305 2.64652 4.13588 2.3712C4.46687 2.10538 4.66477 2.02626 4.8298 2.00522L4.64014 0.51726C4.08808 0.587627 3.63326 0.851013 3.19663 1.20166C2.77184 1.54281 2.29609 2.02444 1.72016 2.60553L2.78554 3.66145ZM8.27897 2.60553C7.70305 2.02444 7.22729 1.54281 6.8025 1.20166C6.36587 0.851013 5.91105 0.587627 5.35899 0.51726L5.16933 2.00522C5.33436 2.02626 5.53226 2.10538 5.86325 2.3712C6.20608 2.64652 6.61283 3.05531 7.21359 3.66145L8.27897 2.60553ZM4.8298 2.00522C4.94253 1.99085 5.0566 1.99085 5.16933 2.00522L5.35899 0.51726C5.12033 0.48684 4.87881 0.48684 4.64015 0.51726L4.8298 2.00522Z" fill="#1B1B1B"/>
</svg>
