<svg width="36" height="36" viewBox="0 0 36 36" fill="none" xmlns="http://www.w3.org/2000/svg">
<path fill-rule="evenodd" clip-rule="evenodd" d="M18.0007 0.0834963C18.1811 0.0833815 18.3595 0.122353 18.5235 0.197732C18.6875 0.273111 18.8332 0.383108 18.9507 0.520163L23.9507 6.3535C24.1664 6.60545 24.2731 6.93278 24.2475 7.26347C24.2219 7.59416 24.0659 7.90112 23.814 8.11683C23.562 8.33254 23.2347 8.43932 22.904 8.41369C22.5733 8.38806 22.2664 8.23212 22.0507 7.98016L19.2507 4.7135V23.0002C19.2507 23.3317 19.119 23.6496 18.8845 23.884C18.6501 24.1185 18.3322 24.2502 18.0007 24.2502C17.6691 24.2502 17.3512 24.1185 17.1168 23.884C16.8823 23.6496 16.7507 23.3317 16.7507 23.0002V4.71183L13.9507 7.98016C13.8438 8.10492 13.7135 8.20742 13.5671 8.2818C13.4207 8.35619 13.261 8.401 13.0973 8.41369C12.9335 8.42638 12.7689 8.4067 12.6128 8.35576C12.4566 8.30483 12.3121 8.22364 12.1873 8.11683C12.0626 8.01002 11.9601 7.87969 11.8857 7.73327C11.8113 7.58685 11.7665 7.42721 11.7538 7.26347C11.7411 7.09973 11.7608 6.93509 11.8117 6.77896C11.8627 6.62282 11.9438 6.47825 12.0507 6.3535L17.0507 0.520163C17.1681 0.383108 17.3138 0.273111 17.4778 0.197732C17.6418 0.122353 17.8202 0.0833815 18.0007 0.0834963ZM9.66065 11.7535C9.99217 11.7517 10.3108 11.8817 10.5465 12.1149C10.7822 12.3481 10.9156 12.6653 10.9173 12.9968C10.9191 13.3284 10.7891 13.647 10.5559 13.8827C10.3227 14.1183 10.0055 14.2517 9.67399 14.2535C7.85232 14.2635 6.56065 14.3102 5.57898 14.4902C4.63565 14.6652 4.08732 14.9435 3.68232 15.3485C3.22065 15.8102 2.92065 16.4585 2.75565 17.6818C2.58732 18.9402 2.58398 20.6085 2.58398 23.0002V24.6668C2.58398 27.0602 2.58732 28.7285 2.75565 29.9868C2.92065 31.2102 3.22232 31.8568 3.68232 32.3202C4.14398 32.7802 4.79065 33.0802 6.01565 33.2452C7.27232 33.4152 8.94232 33.4168 11.334 33.4168H24.6673C27.059 33.4168 28.7273 33.4152 29.9873 33.2452C31.2107 33.0802 31.8573 32.7802 32.319 32.3185C32.7807 31.8568 33.0807 31.2102 33.2457 29.9868C33.414 28.7285 33.4173 27.0602 33.4173 24.6668V23.0002C33.4173 20.6085 33.414 18.9402 33.2457 17.6802C33.0807 16.4585 32.779 15.8102 32.319 15.3485C31.9123 14.9435 31.3657 14.6652 30.4223 14.4902C29.4407 14.3102 28.149 14.2635 26.3273 14.2535C26.1632 14.2526 26.0008 14.2194 25.8495 14.1558C25.6981 14.0922 25.5608 13.9994 25.4454 13.8827C25.3299 13.766 25.2386 13.6277 25.1766 13.4757C25.1146 13.3237 25.0831 13.161 25.084 12.9968C25.0849 12.8327 25.1181 12.6703 25.1817 12.519C25.2453 12.3677 25.3381 12.2304 25.4548 12.1149C25.5715 11.9994 25.7098 11.9081 25.8618 11.8461C26.0138 11.7841 26.1765 11.7526 26.3407 11.7535C28.144 11.7635 29.6457 11.8068 30.874 12.0318C32.1373 12.2652 33.2123 12.7068 34.0873 13.5818C35.0907 14.5835 35.5207 15.8485 35.724 17.3485C35.9173 18.7918 35.9173 20.6302 35.9173 22.9085V24.7585C35.9173 27.0385 35.9173 28.8752 35.724 30.3202C35.5207 31.8202 35.0907 33.0835 34.0873 34.0868C33.084 35.0902 31.8207 35.5202 30.3207 35.7235C28.8757 35.9168 27.0373 35.9168 24.759 35.9168H11.2423C8.96399 35.9168 7.12565 35.9168 5.68065 35.7235C4.18065 35.5218 2.91732 35.0902 1.91398 34.0868C0.910651 33.0835 0.480651 31.8202 0.278984 30.3202C0.0839844 28.8752 0.0839844 27.0368 0.0839844 24.7585V22.9085C0.0839844 20.6302 0.0839844 18.7918 0.278984 17.3468C0.478984 15.8468 0.912318 14.5835 1.91398 13.5802C2.78898 12.7068 3.86398 12.2635 5.12732 12.0318C6.35565 11.8068 7.85732 11.7635 9.66065 11.7535Z" fill="#5DE85B"/>
</svg>
