<svg width="43" height="46" viewBox="0 0 43 46" fill="none" xmlns="http://www.w3.org/2000/svg">
<path d="M8.14595 29.0138H3.27309C2.04385 29.0138 0.726562 28.3406 0.726562 25.9682C0.726562 24.739 1.72311 23.7424 2.95235 23.7424H8.14586V29.0138H8.14595Z" fill="#77CC7D"/>
<path d="M40.7902 0H10.3708C9.96106 0 9.62891 0.332152 9.62891 0.74193V42.2727H41.5322V0.74193L40.7902 0Z" fill="#98DB7C"/>
<path d="M41.5334 0H40.7914V37.0968C40.7914 39.5553 38.7984 41.5483 36.3398 41.5483V43.0322H41.5334C41.9431 43.0322 42.2753 42.7 42.2753 42.2903V0.74193C42.2753 0.332152 41.9431 0 41.5334 0Z" fill="#77CC7D"/>
<path d="M31.144 2.96777H7.40209C6.99231 2.96777 6.66016 3.29993 6.66016 3.7097V40.136L7.36902 41.5508L6.66016 43.0323V45.2581C6.66016 45.6679 6.99231 46.0001 7.40209 46.0001H8.14402L9.62275 45.3271H38.6296V11.0018L31.144 2.96777Z" fill="#ECEAEC"/>
<path d="M31.8859 43.0321H6.66016V29.6772H31.8859C32.7055 29.6772 33.3698 30.3416 33.3698 31.1611V41.5482C33.3698 42.3677 32.7054 43.0321 31.8859 43.0321Z" fill="#DBD8DB"/>
<path d="M30.404 28.1936H2.95235C1.72311 28.1936 0.726562 27.197 0.726562 25.9678V39.3226C0.726562 40.5518 1.72311 41.5484 2.95235 41.5484L4.56091 40.8003H31.1969V29.0524L30.404 28.1936Z" fill="#98DB7C"/>
<path d="M38.8712 9.95241L32.3211 3.40235C32.0428 3.1241 31.6654 2.96777 31.2718 2.96777H31.1445V9.64523C31.1445 10.4648 31.8089 11.1291 32.6284 11.1291H37.08C37.4897 11.1291 37.8219 11.4612 37.8219 11.871V40.0645C37.8219 42.5231 35.8288 44.5161 33.3703 44.5161H9.62839C8.80884 44.5161 8.14453 45.1805 8.14453 46H38.5639C38.9737 46 39.3058 45.6678 39.3058 45.258V11.0017C39.3058 10.6081 39.1494 10.2307 38.8712 9.95241Z" fill="#DBD8DB"/>
<path d="M30.4047 28.1931V37.0964C30.4047 38.7354 29.076 40.0641 27.437 40.0641H4.43698C3.61743 40.0641 2.95312 40.7285 2.95312 41.5479H30.4047C31.2243 41.5479 31.8886 40.8835 31.8886 40.0641V29.6771C31.8886 28.8575 31.2242 28.1931 30.4047 28.1931Z" fill="#77CC7D"/>
<path d="M4.99561 36.7019H4.98834C4.5782 36.7019 4.25 37.0341 4.25 37.4438C4.25 37.8535 4.58548 38.1858 4.99552 38.1858C5.40566 38.1858 5.73745 37.8535 5.73745 37.4438C5.73754 37.0341 5.40566 36.7019 4.99561 36.7019Z" fill="#222222"/>
<path d="M15.5161 36.6978C15.5161 36.6978 14.9517 36.701 14.4604 36.7021V32.2983C14.4604 31.8886 14.1285 31.5564 13.7185 31.5564C13.3084 31.5564 12.9766 31.8886 12.9766 32.2983V37.4397C12.9766 37.8005 13.2359 38.1092 13.5917 38.1708C13.6461 38.1802 13.6823 38.1863 14.2511 38.1863C14.5286 38.1863 14.9315 38.1849 15.5248 38.1817C15.9341 38.1795 16.2646 37.8455 16.2624 37.4358C16.2602 37.0256 15.9001 36.68 15.5161 36.6978Z" fill="#222222"/>
<path d="M20.4731 34.2155C19.8579 33.9884 19.2841 33.7417 19.0899 33.6568C19.0022 33.5797 19.0015 33.4782 19.0095 33.4214C19.0197 33.3493 19.0733 33.1725 19.3493 33.0891C20.021 32.8895 20.652 33.3807 20.6745 33.3985C20.9882 33.6583 21.4548 33.6155 21.7157 33.304C21.9794 32.9903 21.9389 32.5222 21.6251 32.2589C21.5744 32.2161 20.376 31.2303 18.9211 31.6683C18.1741 31.8937 17.6444 32.4849 17.5408 33.2105C17.4423 33.8938 17.7387 34.5509 18.3139 34.9259C18.3466 34.9473 18.3813 34.9658 18.4168 34.9817C18.4466 34.9951 19.158 35.3117 19.9593 35.6077C20.1173 35.6657 20.6273 35.8801 20.5708 36.1979C20.5273 36.4403 20.2086 36.7018 19.7688 36.7018C19.2848 36.7018 18.8204 36.508 18.5262 36.1831C18.2508 35.8791 17.7821 35.8559 17.4785 36.1309C17.1749 36.4058 17.151 36.875 17.4263 37.1785C18.0052 37.8187 18.8595 38.1857 19.7688 38.1857C20.9013 38.1857 21.8533 37.4593 22.0316 36.4587C22.1671 35.7019 21.828 34.715 20.4731 34.2155Z" fill="#222222"/>
<path d="M10.227 34.6886L11.61 32.7254C11.8462 32.3906 11.7658 31.9277 11.4311 31.6918C11.0949 31.4556 10.6326 31.5357 10.3971 31.8711L9.32036 33.3997L8.24529 31.8715C8.00909 31.5364 7.54684 31.4556 7.21137 31.6915C6.87589 31.9273 6.79548 32.3899 7.03096 32.725L8.4124 34.6887L6.7723 37.0168C6.5361 37.3516 6.61651 37.8146 6.95127 38.0504C7.08172 38.1421 7.23023 38.1859 7.37803 38.1859C7.61135 38.1859 7.84099 38.0765 7.98519 37.8711L9.31901 35.9776L10.6508 37.8707C10.7957 38.0761 11.0253 38.1859 11.2586 38.1859C11.4057 38.1859 11.555 38.1421 11.6847 38.0508C12.0202 37.8149 12.1006 37.3523 11.8651 37.0172L10.227 34.6886Z" fill="#222222"/>
<path d="M27.9635 37.0172L26.3251 34.6881L27.7078 32.7254C27.944 32.3906 27.8636 31.9277 27.5288 31.6918C27.1919 31.4556 26.7304 31.5357 26.4949 31.8711L25.4185 33.3993L24.3438 31.8715C24.1076 31.5364 23.6453 31.4556 23.3098 31.6915C22.9744 31.9273 22.8939 32.3899 23.1294 32.725L24.5104 34.6882L22.87 37.0168C22.6338 37.3516 22.7142 37.8146 23.0489 38.0504C23.1794 38.1421 23.3279 38.1859 23.4757 38.1859C23.709 38.1859 23.9386 38.0765 24.0828 37.8711L25.417 35.9771L26.7491 37.8707C26.8941 38.0761 27.1237 38.1859 27.357 38.1859C27.5041 38.1859 27.6533 38.1421 27.7831 38.0508C28.1185 37.8149 28.1989 37.3523 27.9635 37.0172Z" fill="#222222"/>
<path d="M21.7459 14.8389H29.6602C30.0699 14.8389 30.4021 15.171 30.4021 15.5807V16.0752C30.4021 16.485 30.0699 16.8172 29.6602 16.8172H21.7458C21.3361 16.8172 21.0039 16.4851 21.0039 16.0753V15.5808C21.004 15.1711 21.3361 14.8389 21.7459 14.8389Z" fill="#222222"/>
<path d="M30.4024 19.0429V19.5377C30.4024 19.9475 30.0702 20.2797 29.6604 20.2797H21.7458C21.3361 20.2797 21.0039 19.9476 21.0039 19.5378V19.043C21.0039 18.6332 21.3361 18.301 21.7458 18.301H29.6604C30.0701 18.301 30.4023 18.6331 30.4024 19.0429Z" fill="#222222"/>
<path d="M16.3083 14.8389H18.7812C19.191 14.8389 19.5231 15.171 19.5231 15.5808V16.0753C19.5231 16.4851 19.191 16.8172 18.7812 16.8172H16.3083C15.8986 16.8172 15.5664 16.4851 15.5664 16.0753V15.5808C15.5663 15.1711 15.8986 14.8389 16.3083 14.8389Z" fill="#98DB7C"/>
<path d="M19.5231 19.043V19.5378C19.5231 19.9476 19.191 20.2797 18.7812 20.2797H16.3083C15.8986 20.2797 15.5664 19.9476 15.5664 19.5378V19.043C15.5664 18.6332 15.8986 18.301 16.3083 18.301H18.7812C19.191 18.301 19.5231 18.6332 19.5231 19.043Z" fill="#98DB7C"/>
<path d="M15.5664 23.0003V22.5058C15.5664 22.0961 15.8986 21.7639 16.3083 21.7639H18.7812C19.191 21.7639 19.5231 22.0961 19.5231 22.5058V23.0003C19.5231 23.4101 19.191 23.7423 18.7812 23.7423H16.3083C15.8986 23.7423 15.5664 23.4101 15.5664 23.0003Z" fill="#98DB7C"/>
<path d="M21.0078 23.0003V22.5058C21.0078 22.0961 21.34 21.7639 21.7497 21.7639H29.6646C30.0744 21.7639 30.4065 22.0961 30.4065 22.5058L30.4066 23.0003C30.4066 23.41 30.0745 23.7423 29.6647 23.7423H21.7497C21.34 23.7423 21.0078 23.4101 21.0078 23.0003Z" fill="#222222"/>
</svg>
