<svg width="43" height="46" viewBox="0 0 43 46" fill="none" xmlns="http://www.w3.org/2000/svg">
<path d="M8.14595 29.0133H3.27309C2.04385 29.0133 0.726562 28.3401 0.726562 25.9677C0.726562 24.7385 1.72311 23.7419 2.95235 23.7419H8.14586V29.0133H8.14595Z" fill="#FFD05B"/>
<path d="M40.7902 0H10.3708C9.96106 0 9.62891 0.332152 9.62891 0.74193V42.2727H41.5322V0.74193L40.7902 0Z" fill="#FFE077"/>
<path d="M41.5334 0H40.7914V37.0968C40.7914 39.5553 38.7984 41.5483 36.3398 41.5483V43.0322H41.5334C41.9431 43.0322 42.2753 42.7 42.2753 42.2903V0.74193C42.2753 0.332152 41.9431 0 41.5334 0Z" fill="#FFD05B"/>
<path d="M31.144 2.96753H7.40209C6.99231 2.96753 6.66016 3.29968 6.66016 3.70946V40.1358L7.36902 41.5506L6.66016 43.0321V45.2579C6.66016 45.6677 6.99231 45.9998 7.40209 45.9998H8.14402L9.62275 45.3269H38.6296V11.0015L31.144 2.96753Z" fill="#ECEAEC"/>
<path d="M31.8859 43.0323H6.66016V29.6775H31.8859C32.7055 29.6775 33.3698 30.3419 33.3698 31.1613V41.5485C33.3698 42.3679 32.7054 43.0323 31.8859 43.0323Z" fill="#DBD8DB"/>
<path d="M30.404 28.1933H2.95235C1.72311 28.1933 0.726562 27.1968 0.726562 25.9675V39.3224C0.726562 40.5516 1.72311 41.5481 2.95235 41.5481L4.56091 40.8001H31.1969V29.0521L30.404 28.1933Z" fill="#FFE077"/>
<path d="M38.8712 9.95241L32.3211 3.40235C32.0428 3.1241 31.6654 2.96777 31.2718 2.96777H31.1445V9.64523C31.1445 10.4648 31.8089 11.1291 32.6284 11.1291H37.08C37.4897 11.1291 37.8219 11.4612 37.8219 11.871V40.0645C37.8219 42.5231 35.8288 44.5161 33.3703 44.5161H9.62839C8.80884 44.5161 8.14453 45.1805 8.14453 46H38.5639C38.9737 46 39.3058 45.6678 39.3058 45.258V11.0017C39.3058 10.6081 39.1494 10.2307 38.8712 9.95241Z" fill="#DBD8DB"/>
<path d="M30.4047 28.1936V37.0969C30.4047 38.7359 29.076 40.0646 27.437 40.0646H4.43698C3.61743 40.0646 2.95312 40.729 2.95312 41.5484H30.4047C31.2243 41.5484 31.8886 40.884 31.8886 40.0646V29.6776C31.8886 28.858 31.2242 28.1936 30.4047 28.1936Z" fill="#FFD05B"/>
<path d="M22.2422 2.96753H23.726V19.2901H22.2422V2.96753Z" fill="#DBD8DB"/>
<path d="M7.30811 37.0969H7.30084C6.8907 37.0969 6.5625 37.4292 6.5625 37.8389C6.5625 38.2485 6.89798 38.5808 7.30802 38.5808C7.71807 38.5808 8.04995 38.2485 8.04995 37.8389C8.04995 37.4292 7.71825 37.0969 7.30811 37.0969Z" fill="#222222"/>
<path d="M17.613 31.1616C17.2029 31.1616 16.8711 31.4939 16.8711 31.9036V37.8054C16.8711 38.2151 17.203 38.5473 17.613 38.5473C18.0231 38.5473 18.355 38.2151 18.355 37.8054V31.9036C18.355 31.4938 18.0231 31.1616 17.613 31.1616Z" fill="#222222"/>
<path d="M14.6204 37.0969H12.0518L15.15 32.3421C15.2985 32.1139 15.3101 31.823 15.1805 31.5835C15.0507 31.344 14.8008 31.1951 14.5284 31.1951H10.8042C10.3941 31.1951 10.0623 31.5273 10.0623 31.937C10.0623 32.3467 10.3941 32.6789 10.8042 32.6789H13.1597L10.0615 37.4337C9.91303 37.6619 9.90144 37.9528 10.0311 38.1924C10.1608 38.4314 10.4108 38.5808 10.6832 38.5808H14.6204C15.0305 38.5808 15.3623 38.2485 15.3623 37.8388C15.3623 37.4291 15.0304 37.0969 14.6204 37.0969Z" fill="#222222"/>
<path d="M22.6235 31.1951H20.9802C20.5701 31.1951 20.2383 31.5273 20.2383 31.937V37.8388C20.2383 38.2485 20.5702 38.5808 20.9802 38.5808C21.3903 38.5808 21.7221 38.2485 21.7221 37.8388V36.0133C22.052 36.0116 22.4138 36.0101 22.6235 36.0101C23.969 36.0101 25.0637 34.9301 25.0637 33.6028C25.0637 32.275 23.969 31.1951 22.6235 31.1951ZM22.6235 34.5261C22.4561 34.5261 22.0482 34.5271 21.7221 34.5284V32.6789H22.6235C23.1422 32.6789 23.5798 33.1021 23.5798 33.6027C23.5798 34.1034 23.1422 34.5261 22.6235 34.5261Z" fill="#222222"/>
<path d="M21.4184 23.7229C21.1079 23.3284 20.9441 22.8157 21.0046 22.2716L21.4274 18.4664C21.4692 18.0907 21.7868 17.8064 22.1649 17.8064H22.8337L23.5712 19.3345L23.4696 24.0373L21.4184 23.7229Z" fill="#FFE077"/>
<path d="M24.4675 15.5805H21.4997C21.0896 15.5805 20.7578 15.2483 20.7578 14.8386C20.7578 14.4289 21.0897 14.0967 21.4997 14.0967H24.4675C24.8776 14.0967 25.2094 14.4289 25.2094 14.8386C25.2094 15.2483 24.8776 15.5805 24.4675 15.5805Z" fill="#C9C5C9"/>
<path d="M24.4675 12.613H21.4997C21.0896 12.613 20.7578 12.2808 20.7578 11.8711C20.7578 11.4614 21.0897 11.1292 21.4997 11.1292H24.4675C24.8776 11.1292 25.2094 11.4614 25.2094 11.8711C25.2094 12.2809 24.8776 12.613 24.4675 12.613Z" fill="#C9C5C9"/>
<path d="M24.4675 9.64524H21.4997C21.0896 9.64524 20.7578 9.31299 20.7578 8.90331C20.7578 8.49362 21.0897 8.16138 21.4997 8.16138H24.4675C24.8776 8.16138 25.2094 8.49362 25.2094 8.90331C25.2094 9.31299 24.8776 9.64524 24.4675 9.64524Z" fill="#C9C5C9"/>
<path d="M24.4675 6.67746H21.4997C21.0896 6.67746 20.7578 6.34522 20.7578 5.93553C20.7578 5.52585 21.0897 5.1936 21.4997 5.1936H24.4675C24.8776 5.1936 25.2094 5.52585 25.2094 5.93553C25.2094 6.34522 24.8776 6.67746 24.4675 6.67746Z" fill="#C9C5C9"/>
<path d="M24.9642 22.2716L24.5414 18.4664C24.4996 18.0907 24.182 17.8064 23.804 17.8064H22.8333L23.2469 21.5297C23.3719 22.654 22.5239 23.6319 21.418 23.723C21.781 24.1804 22.3473 24.4839 22.9841 24.4839C24.1716 24.4839 25.0954 23.4517 24.9642 22.2716Z" fill="#FFD05B"/>
</svg>
