<svg width="20" height="21" viewBox="0 0 20 21" fill="none" xmlns="http://www.w3.org/2000/svg">
<path d="M7.62367 16.554C6.13514 14.2902 6.38543 11.2169 8.37452 9.2253C10.3804 7.21692 13.4849 6.97901 15.751 8.51156M7.62367 16.554C7.83792 16.8799 8.08821 17.189 8.37452 17.4756C9.69811 18.8009 12.5049 19.9467 14.783 18.5371C14.9098 18.4587 14.9732 18.4194 15.0211 18.4004C15.1127 18.3641 15.1822 18.3536 15.2805 18.3612C15.3319 18.3652 15.3901 18.3803 15.5066 18.4105C16.2395 18.6007 16.6059 18.6958 16.8699 18.642C17.3281 18.5486 17.6861 18.1901 17.7794 17.7313C17.8331 17.467 17.7381 17.1001 17.5482 16.3664C17.518 16.2497 17.5029 16.1914 17.4989 16.1398C17.4914 16.0414 17.5021 15.971 17.5386 15.8793C17.5577 15.8312 17.5968 15.7682 17.6751 15.6421C19.0877 13.3662 17.9944 10.607 16.6145 9.2253C16.3449 8.95542 16.0555 8.7175 15.751 8.51156M7.62367 16.554L7.5013 16.5331C6.9833 16.4087 6.47186 16.2026 5.98067 15.8986C5.82673 15.8034 5.74976 15.7558 5.69156 15.7327C5.58028 15.6886 5.49589 15.6758 5.37656 15.685C5.31415 15.6899 5.24344 15.7082 5.10202 15.7449C4.21212 15.9759 3.76717 16.0913 3.44661 16.026C2.89025 15.9126 2.45544 15.4773 2.34221 14.9202C2.27697 14.5993 2.3923 14.1538 2.62295 13.2627C2.65962 13.1211 2.67795 13.0503 2.68275 12.9876C2.69191 12.8681 2.6789 12.7826 2.63462 12.6713C2.61138 12.6129 2.56388 12.5364 2.46889 12.3833C0.753555 9.61963 2.08108 6.26922 3.75673 4.59145C6.51972 1.82498 10.9994 1.82498 13.7624 4.59145C14.8664 5.69683 15.5293 7.07663 15.751 8.51156" stroke="#1B1B1B" stroke-width="1.25"/>
<path d="M10.8346 13.3499C10.8346 13.8102 10.4615 14.1833 10.0013 14.1833C9.54106 14.1833 9.16797 13.8102 9.16797 13.3499C9.16797 12.8897 9.54106 12.5166 10.0013 12.5166C10.4615 12.5166 10.8346 12.8897 10.8346 13.3499Z" fill="#2D264B"/>
<path d="M13.3346 13.3499C13.3346 13.8102 12.9615 14.1833 12.5013 14.1833C12.0411 14.1833 11.668 13.8102 11.668 13.3499C11.668 12.8897 12.0411 12.5166 12.5013 12.5166C12.9615 12.5166 13.3346 12.8897 13.3346 13.3499Z" fill="#2D264B"/>
<path d="M15.8346 13.3499C15.8346 13.8102 15.4615 14.1833 15.0013 14.1833C14.5411 14.1833 14.168 13.8102 14.168 13.3499C14.168 12.8897 14.5411 12.5166 15.0013 12.5166C15.4615 12.5166 15.8346 12.8897 15.8346 13.3499Z" fill="#2D264B"/>
</svg>
