<svg width="19" height="18" viewBox="0 0 19 18" fill="none" xmlns="http://www.w3.org/2000/svg">
<path d="M2.9987 8.45589L2.59453 8.55673C2.23397 8.64685 1.91387 8.85491 1.68512 9.14783C1.45637 9.44076 1.33209 9.80173 1.33203 10.1734V11.7376C1.33209 12.1092 1.45637 12.4702 1.68512 12.7631C1.91387 13.056 2.23397 13.2641 2.59453 13.3542L4.04453 13.7167C4.11821 13.7351 4.1951 13.7364 4.26937 13.7206C4.34364 13.7048 4.41334 13.6723 4.47318 13.6256C4.53301 13.5788 4.58142 13.5191 4.61472 13.4508C4.64802 13.3826 4.66534 13.3077 4.66536 13.2317V8.67922C4.66537 8.6032 4.64804 8.52818 4.61469 8.45987C4.58134 8.39155 4.53286 8.33174 4.47292 8.28498C4.41298 8.23821 4.34317 8.20574 4.26879 8.19001C4.19442 8.17429 4.11743 8.17573 4.0437 8.19422L2.9987 8.45589ZM2.9987 8.45589V8.03923C2.9987 6.27112 3.70108 4.57542 4.95132 3.32518C6.20156 2.07494 7.89725 1.37256 9.66536 1.37256C11.4335 1.37256 13.1292 2.07494 14.3794 3.32518C15.6297 4.57542 16.332 6.27112 16.332 8.03923V8.45589M16.332 8.45589L16.7362 8.55673C17.0968 8.64685 17.4169 8.85491 17.6456 9.14783C17.8744 9.44076 17.9986 9.80173 17.9987 10.1734V11.7376C17.9986 12.1092 17.8744 12.4702 17.6456 12.7631C17.4169 13.056 17.0968 13.2641 16.7362 13.3542L16.332 13.4559M16.332 8.45589L15.2862 8.19422C15.2125 8.17588 15.1356 8.17455 15.0614 8.19034C14.9871 8.20614 14.9174 8.23864 14.8576 8.28538C14.7977 8.33213 14.7493 8.39189 14.716 8.46013C14.6827 8.52837 14.6654 8.60329 14.6654 8.67922V13.2317C14.6654 13.3077 14.6827 13.3826 14.716 13.4508C14.7493 13.5191 14.7977 13.5788 14.8576 13.6256C14.9174 13.6723 14.9871 13.7048 15.0614 13.7206C15.1356 13.7364 15.2125 13.7351 15.2862 13.7167L16.332 13.4559M16.332 13.4559V14.2892C16.332 14.7313 16.1564 15.1552 15.8439 15.4677C15.5313 15.7803 15.1074 15.9559 14.6654 15.9559H12.1654M12.1654 15.9559C12.1654 15.6244 12.0337 15.3064 11.7992 15.072C11.5648 14.8376 11.2469 14.7059 10.9154 14.7059H8.41536C8.08384 14.7059 7.7659 14.8376 7.53148 15.072C7.29706 15.3064 7.16536 15.6244 7.16536 15.9559C7.16536 16.2874 7.29706 16.6054 7.53148 16.8398C7.7659 17.0742 8.08384 17.2059 8.41536 17.2059H10.9154C11.2469 17.2059 11.5648 17.0742 11.7992 16.8398C12.0337 16.6054 12.1654 16.2874 12.1654 15.9559Z" stroke="#1B1B1B"/>
</svg>
