<svg width="20" height="20" viewBox="0 0 20 20" fill="none" xmlns="http://www.w3.org/2000/svg">
<path d="M10.6263 1.6665C10.6263 1.32133 10.3465 1.0415 10.0013 1.0415C9.65612 1.0415 9.3763 1.32133 9.3763 1.6665V7.49984C9.3763 7.84501 9.65612 8.12484 10.0013 8.12484C10.3465 8.12484 10.6263 7.84501 10.6263 7.49984V1.6665Z" fill="#1B1B1B"/>
<path d="M5.37668 3.83288C5.65267 3.62556 5.70833 3.23377 5.50101 2.95779C5.2937 2.6818 4.9019 2.62614 4.62592 2.83346C2.45169 4.46673 1.04297 7.06866 1.04297 9.99984C1.04297 14.9474 5.05375 18.9582 10.0013 18.9582C14.9489 18.9582 18.9596 14.9474 18.9596 9.99984C18.9596 7.09044 17.5161 4.469 15.3809 2.83664C15.1067 2.627 14.7144 2.67936 14.5048 2.95359C14.2951 3.22781 14.3475 3.62006 14.6217 3.8297C16.4702 5.24284 17.7096 7.50745 17.7096 9.99984C17.7096 14.257 14.2585 17.7082 10.0013 17.7082C5.74411 17.7082 2.29297 14.257 2.29297 9.99984C2.29297 7.47856 3.50309 5.24032 5.37668 3.83288Z" fill="#1B1B1B"/>
</svg>
